<svg width="50" height="50" viewBox="0 0 50 50" fill="none" xmlns="http://www.w3.org/2000/svg">
<circle cx="25" cy="25" r="25" fill="#C9A438"/>
<path d="M39.8825 22.2886C40.0906 20.8925 40.0223 19.4633 39.6777 18.089C39.2225 16.2736 38.285 14.5543 36.8653 13.1346C35.4456 11.7149 33.7264 10.7775 31.911 10.3223C30.5368 9.97768 29.1074 9.90943 27.7114 10.1175" stroke="black" stroke-width="2" stroke-linecap="round" stroke-linejoin="round"/>
<path d="M33.6341 21.6272C33.857 20.1317 33.3929 18.5536 32.2416 17.4023C31.0903 16.2511 29.5122 15.7869 28.0167 16.0098" stroke="black" stroke-width="2" stroke-linecap="round" stroke-linejoin="round"/>
<path d="M17.3222 12.564C17.9203 12.564 18.4714 12.8884 18.7618 13.4113L20.7758 17.0392C21.0394 17.5142 21.0519 18.0888 20.8089 18.5747L18.8686 22.4552C18.8686 22.4552 19.4309 25.346 21.7841 27.6992C24.1373 30.0524 27.0184 30.6049 27.0184 30.6049L30.8983 28.665C31.3846 28.4218 31.9595 28.4344 32.4347 28.6986L36.0729 30.7213C36.5954 31.0118 36.9193 31.5626 36.9193 32.1604V36.3371C36.9193 38.4642 34.9436 40.0004 32.9282 39.3203C28.789 37.9237 22.3638 35.2644 18.2914 31.1919C14.2188 27.1195 11.5596 20.6943 10.1629 16.555C9.48289 14.5396 11.0191 12.564 13.1461 12.564H17.3222Z" fill="#2F88FF" stroke="black" stroke-width="2" stroke-linejoin="round"/>
</svg>
