<svg width="30" height="30" viewBox="0 0 30 30" fill="none" xmlns="http://www.w3.org/2000/svg">
<path d="M0.640204 14.8698C0.639501 17.3987 1.30325 19.868 2.56536 22.0445L0.519501 29.481L8.16388 27.4855C10.2782 28.6314 12.6472 29.2318 15.0545 29.232H15.0608C23.0079 29.232 29.477 22.7941 29.4804 14.8811C29.4819 11.0467 27.9833 7.44102 25.2606 4.72833C22.5383 2.01587 18.9178 0.521281 15.0602 0.519531C7.11224 0.519531 0.643602 6.95709 0.640321 14.8698" fill="url(#paint0_linear_242_599)"/>
<path d="M0.125391 14.865C0.12457 17.4849 0.812109 20.0425 2.11922 22.297L0 30L7.91848 27.933C10.1003 29.1173 12.5568 29.7417 15.0564 29.7426H15.0628C23.295 29.7426 29.9965 23.0731 30 14.8769C30.0014 10.9047 28.4489 7.1694 25.6289 4.35953C22.8086 1.55001 19.0586 0.00163331 15.0628 0C6.82922 0 0.128672 6.66856 0.125391 14.865ZM4.84113 21.9087L4.54547 21.4415C3.30258 19.474 2.64656 17.2005 2.6475 14.8659C2.65008 8.05325 8.2193 2.51063 15.0675 2.51063C18.3839 2.51203 21.5006 3.79907 23.8448 6.13423C26.1889 8.46963 27.4788 11.5741 27.478 14.8759C27.475 21.6886 21.9056 27.2319 15.0628 27.2319H15.0579C12.8298 27.2307 10.6446 26.635 8.73891 25.5093L8.28539 25.2416L3.58641 26.4681L4.84113 21.9087Z" fill="url(#paint1_linear_242_599)"/>
<path d="M11.3294 8.65065C11.0498 8.03198 10.7556 8.01949 10.4897 8.00864C10.2719 7.99931 10.023 8.00001 9.77437 8.00001C9.52546 8.00001 9.12105 8.09323 8.77921 8.4648C8.43703 8.83673 7.47281 9.73552 7.47281 11.5635C7.47281 13.3916 8.81027 15.1583 8.99672 15.4065C9.1834 15.6542 11.5787 19.5256 15.3723 21.0149C18.5251 22.2526 19.1667 22.0064 19.851 21.9444C20.5353 21.8825 22.0593 21.0458 22.3702 20.1782C22.6813 19.3107 22.6813 18.567 22.588 18.4116C22.4947 18.2568 22.2458 18.1638 21.8726 17.9781C21.4993 17.7924 19.6643 16.8934 19.3222 16.7694C18.98 16.6455 18.7312 16.5836 18.4823 16.9557C18.2334 17.3271 17.5187 18.1638 17.3009 18.4116C17.0832 18.66 16.8654 18.6909 16.4923 18.5051C16.1188 18.3187 14.9168 17.9268 13.4907 16.6611C12.3812 15.6762 11.6321 14.46 11.4144 14.0879C11.1967 13.7165 11.3911 13.5151 11.5782 13.33C11.7459 13.1635 11.9516 12.8961 12.1384 12.6792C12.3245 12.4622 12.3866 12.3074 12.5111 12.0596C12.6356 11.8116 12.5733 11.5946 12.4801 11.4087C12.3866 11.2229 11.6613 9.38529 11.3294 8.65065Z" fill="white"/>
<defs>
<linearGradient id="paint0_linear_242_599" x1="1448.56" y1="2896.66" x2="1448.56" y2="0.519531" gradientUnits="userSpaceOnUse">
<stop stop-color="#1FAF38"/>
<stop offset="1" stop-color="#60D669"/>
</linearGradient>
<linearGradient id="paint1_linear_242_599" x1="1500" y1="3000" x2="1500" y2="0" gradientUnits="userSpaceOnUse">
<stop stop-color="#F9F9F9"/>
<stop offset="1" stop-color="white"/>
</linearGradient>
</defs>
</svg>
