<svg width="206" height="177" viewBox="0 0 206 177" fill="none" xmlns="http://www.w3.org/2000/svg">
<g filter="url(#filter0_dddd_100_2770)">
<path d="M81.7124 70.8772C82.4155 56.9882 89.5008 43.5674 101.326 33.5764C110.471 40.2744 119.076 53.3361 121.206 67.9668C122.316 75.595 121.662 83.6099 118.448 91.3971C115.406 98.7657 110.007 106.083 101.372 112.721C86.67 99.7141 81.0089 84.7767 81.7124 70.8772Z" stroke="url(#paint0_linear_100_2770)" stroke-width="5.41757" stroke-linecap="round" stroke-linejoin="round"/>
<path d="M121.32 79.5485C131.249 73.5435 144.325 72.8908 157.13 76.9518C157.618 87.9335 152.813 102.002 143.649 111.27C138.856 116.117 132.954 119.566 126.1 120.642C119.647 121.656 112.15 120.599 103.669 116.328C104.081 97.2953 111.345 85.581 121.32 79.5485Z" stroke="url(#paint1_linear_100_2770)" stroke-width="5.41757" stroke-linecap="round" stroke-linejoin="round"/>
<path d="M104.408 73.71C111.054 63.5005 122.605 56.6031 135.731 54.0921C140.403 63.7614 141.492 78.7662 136.799 91.5449C134.344 98.2282 130.35 104.187 124.579 108.466C119.145 112.494 111.969 115.156 102.666 115.393C95.7013 98.0278 97.736 83.9615 104.408 73.71Z" stroke="url(#paint2_linear_100_2770)" stroke-width="5.41757" stroke-linecap="round" stroke-linejoin="round"/>
<path d="M98.1386 73.71C91.4934 63.5005 79.9423 56.6031 66.8161 54.0921C62.1439 63.7614 61.0546 78.7662 65.748 91.5449C68.2027 98.2282 72.1969 104.187 77.9677 108.466C83.4018 112.494 90.5781 115.156 99.881 115.393C106.846 98.0278 104.811 83.9615 98.1386 73.71Z" stroke="url(#paint3_linear_100_2770)" stroke-width="5.41757" stroke-linecap="round" stroke-linejoin="round"/>
<path d="M81.3381 79.5485C71.4083 73.5435 58.3329 72.8908 45.5274 76.9518C45.0399 87.9335 49.8446 102.002 59.009 111.27C63.8021 116.117 69.704 119.566 76.5582 120.642C83.0109 121.656 90.5076 120.599 98.9886 116.328C98.5766 97.2953 91.313 85.581 81.3381 79.5485Z" stroke="url(#paint4_linear_100_2770)" stroke-width="5.41757" stroke-linecap="round" stroke-linejoin="round"/>
<ellipse cx="101.122" cy="53.4458" rx="4.38991" ry="4.38722" fill="#D4AF37"/>
</g>
<path d="M32.4144 117.207C33.2906 118.322 33.6673 119.582 33.5443 120.989C33.5596 121.696 33.4674 122.391 33.2676 123.076C33.0523 123.744 32.8448 124.182 32.645 124.39C32.5066 124.536 32.3567 124.624 32.1953 124.655C32.0262 124.655 31.8533 124.605 31.6765 124.505C31.4382 124.39 31.223 124.275 31.0308 124.159C31.0231 124.152 30.9809 124.129 30.904 124.09C30.8348 124.044 30.781 124.009 30.7426 123.986C30.7042 123.963 30.6503 123.929 30.5812 123.883C30.5197 123.837 30.4697 123.794 30.4313 123.756C30.4005 123.717 30.366 123.675 30.3275 123.629C30.2968 123.575 30.2814 123.525 30.2814 123.479C30.2737 123.379 30.2968 123.287 30.3506 123.202C30.4121 123.11 30.5081 123.003 30.6388 122.88C30.7695 122.749 30.8425 122.676 30.8579 122.661C31.0424 122.468 31.2307 122.23 31.4228 121.946C32.13 120.962 32.4912 119.867 32.5066 118.66C32.5066 118.621 32.4989 118.568 32.4835 118.498C32.4682 118.429 32.4605 118.383 32.4605 118.36C32.4451 118.191 32.4297 118.072 32.4144 118.003C32.3452 117.757 32.2337 117.526 32.08 117.311C31.3037 116.288 30.3121 116.565 29.1054 118.141C27.7603 120.101 27.1223 122.272 27.1915 124.655C27.1915 125.67 27.3145 126.723 27.5604 127.814C27.8141 128.898 28.1292 129.932 28.5058 130.916C28.8902 131.9 29.2783 132.872 29.6703 133.833C30.0623 134.793 30.4236 135.82 30.7541 136.911C31.0846 137.995 31.2998 139.021 31.3998 139.989C31.5074 140.989 31.4228 141.969 31.1461 142.929C30.8771 143.883 30.4851 144.74 29.9701 145.501C29.4551 146.262 28.8171 146.996 28.0562 147.703C27.2952 148.41 26.5228 149.021 25.7387 149.536C24.9547 150.051 24.1131 150.535 23.2138 150.989C22.2607 151.473 21.2999 151.884 20.3314 152.222C19.3629 152.561 18.3291 152.833 17.2299 153.041C16.1308 153.248 15.0431 153.283 13.9671 153.145C12.8986 153.006 11.9378 152.68 11.0847 152.165C10.9617 152.096 10.8579 152.026 10.7734 151.957C10.6965 151.888 10.6427 151.83 10.6119 151.784C10.5812 151.746 10.5735 151.715 10.5889 151.692C9.46668 150.954 8.71726 149.943 8.34062 148.66C7.47206 145.501 8.49435 141.542 11.4075 136.784C12.4144 135.032 13.6673 133.471 15.1661 132.103C15.5966 131.627 16.1154 131.285 16.7226 131.077C17.3298 130.862 17.9486 130.812 18.5789 130.927C19.2783 131.165 19.9125 131.519 20.4813 131.988C20.7195 132.18 20.8617 132.345 20.9079 132.484C20.9386 132.576 20.8656 132.603 20.6888 132.564C20.6734 132.557 20.6619 132.553 20.6542 132.553C20.4697 132.507 20.2545 132.53 20.0086 132.622C19.7626 132.707 19.482 132.864 19.1669 133.095C18.8594 133.325 18.6288 133.506 18.4751 133.637C18.3291 133.76 18.1139 133.952 17.8295 134.213C17.8064 134.236 17.7872 134.255 17.7718 134.271C17.7564 134.278 17.7411 134.29 17.7257 134.305C14.851 136.896 12.5912 139.932 10.9463 143.414C10.7311 143.89 10.5389 144.363 10.3698 144.832C10.2084 145.301 10.0547 145.82 9.90864 146.388C9.7626 146.957 9.67805 147.503 9.65499 148.026C9.63962 148.548 9.67421 149.059 9.75876 149.559C9.84331 150.059 10.0316 150.52 10.3237 150.943C10.6235 151.365 11.0116 151.719 11.4882 152.003C11.934 152.218 12.4567 152.341 13.0562 152.372C13.6558 152.411 14.2399 152.376 14.8087 152.268C15.3852 152.169 15.9963 152.015 16.6419 151.807C17.2876 151.6 17.8525 151.392 18.3368 151.185C18.821 150.977 19.3014 150.754 19.778 150.516C22.0378 149.363 23.9363 147.76 25.4736 145.708C26.4344 144.586 27.13 143.314 27.5604 141.892C27.9985 140.47 28.1331 139.025 27.964 137.557C27.2337 134.605 26.273 131.692 25.0816 128.817C24.1976 126.435 23.9363 123.983 24.2976 121.461C24.4436 120.739 24.6819 120.028 25.0124 119.328C25.3506 118.621 25.8118 117.972 26.3959 117.38C26.9801 116.788 27.6181 116.404 28.3098 116.227C28.9478 116.073 29.5935 116.054 30.2468 116.169C30.9002 116.277 31.5035 116.511 32.057 116.873C32.1723 116.965 32.276 117.069 32.3683 117.184C32.3759 117.192 32.3836 117.195 32.3913 117.195C32.399 117.195 32.4067 117.199 32.4144 117.207ZM44.1399 136.588C44.3321 136.811 44.4666 137.046 44.5435 137.292C44.6203 137.53 44.6357 137.799 44.5896 138.099C44.5435 138.391 44.4935 138.633 44.4397 138.825C44.3936 139.009 44.2975 139.282 44.1515 139.644C44.0131 140.005 43.9247 140.247 43.8863 140.37C43.3636 141.946 42.7064 143.448 41.9147 144.878C41.5842 145.601 41.1307 146.189 40.5543 146.642C39.924 146.98 39.2783 146.988 38.6173 146.665C37.6642 146.304 36.7841 145.862 35.977 145.339C35.7157 145.178 35.4774 145.016 35.2622 144.855C35.2161 144.993 35.1046 145.316 34.9278 145.823C34.751 146.323 34.6127 146.711 34.5128 146.988C34.0208 148.302 33.3944 149.897 32.6334 151.773C32.5566 151.957 32.4259 152.257 32.2414 152.672C32.0493 153.095 31.8994 153.437 31.7918 153.698C31.6765 153.967 31.565 154.301 31.4574 154.701C31.3498 155.101 31.2998 155.447 31.3075 155.739C31.3152 156.031 31.3921 156.338 31.5381 156.661C31.6765 156.984 31.8955 157.265 32.1953 157.503C32.3721 157.641 32.3836 157.695 32.2299 157.664C31.9609 157.603 31.6227 157.461 31.2153 157.238C31.1769 157.215 31.15 157.199 31.1346 157.192C30.5581 156.792 30.1123 156.335 29.7972 155.82C29.4743 155.305 29.2783 154.751 29.2092 154.159C29.14 153.575 29.1438 152.995 29.2207 152.418C29.2975 151.842 29.4436 151.215 29.6588 150.539C29.728 150.316 29.9355 149.644 30.2814 148.521C30.6273 147.407 30.9002 146.554 31.1 145.962C32.7987 141.004 34.3014 136.961 35.6081 133.833C35.6465 133.733 35.9232 133.787 36.4382 133.994C36.9532 134.202 37.4451 134.467 37.914 134.79C38.3905 135.105 38.5981 135.351 38.5366 135.528C38.1446 136.611 37.7641 137.695 37.3951 138.779C38.2791 137.303 39.2975 135.873 40.4505 134.49C40.5735 134.351 40.977 134.501 41.6611 134.939C41.7456 134.993 41.8802 135.082 42.0646 135.205C42.864 135.512 43.5558 135.973 44.1399 136.588ZM35.7349 144.59C35.658 144.544 35.585 144.505 35.5158 144.474C35.585 144.505 35.6503 144.536 35.7118 144.567L35.7349 144.59ZM41.5573 136.623V136.634C41.6803 136.358 41.7226 136.081 41.6841 135.804C41.3844 135.966 41.123 136.142 40.9001 136.335C40.5619 136.611 40.2007 136.942 39.8164 137.326C39.1553 138.018 38.5596 138.714 38.0293 139.413C37.8525 139.651 37.5835 140.009 37.2222 140.485C36.8686 140.954 36.6035 141.308 36.4267 141.546C36.2114 142.176 35.8809 143.122 35.4351 144.382C35.4736 144.398 35.5274 144.428 35.5965 144.474C35.6734 144.521 35.731 144.555 35.7695 144.578C35.8156 144.601 35.8732 144.636 35.9424 144.682C36.0193 144.728 36.0692 144.755 36.0923 144.763C36.1231 144.778 36.1769 144.797 36.2537 144.82C36.3306 144.843 36.3844 144.863 36.4151 144.878C36.3921 144.878 36.3921 144.882 36.4151 144.89C36.492 144.897 36.5458 144.901 36.5765 144.901H36.5881H36.5996H36.6111H36.6227H36.6457H36.6573H36.6688H36.6918H36.7034H36.8187C37.1261 144.832 37.3875 144.678 37.6027 144.44C38.5635 143.333 39.2975 142.115 39.8048 140.785C40.4966 139.271 41.0808 137.883 41.5573 136.623ZM54.8855 139.494C54.8317 139.632 54.6857 139.847 54.4474 140.139C54.2168 140.431 54.0823 140.674 54.0439 140.866C53.99 141.135 53.9824 141.431 54.0208 141.753C54.0362 141.823 54.0746 141.926 54.1361 142.065L54.1822 142.203L54.1707 142.192C54.2783 142.33 54.2475 142.384 54.0784 142.353C53.9631 142.33 53.8517 142.292 53.7441 142.238C53.4597 142.122 53.1714 141.976 52.8794 141.8C52.595 141.615 52.3221 141.396 52.0608 141.142C51.7994 140.881 51.5881 140.616 51.4266 140.347C51.2729 140.07 51.1999 139.77 51.2076 139.448C51.2153 139.117 51.3306 138.802 51.5535 138.502C51.7764 138.256 51.957 137.987 52.0954 137.695C52.1876 137.457 52.2721 137.172 52.349 136.842C52.3106 136.88 52.2337 136.946 52.1184 137.038C52.0108 137.13 51.9301 137.203 51.8763 137.257C51.2306 137.903 50.6196 138.614 50.0431 139.39C49.874 139.605 49.6242 139.936 49.2937 140.381C48.9632 140.82 48.7172 141.15 48.5558 141.373C48.379 141.903 48.1868 142.376 47.9793 142.791C47.9486 142.845 47.8678 142.995 47.7372 143.241C47.6065 143.487 47.5181 143.656 47.472 143.748C47.4336 143.833 47.3644 143.994 47.2645 144.232C47.1645 144.463 47.103 144.64 47.08 144.763C47.0569 144.878 47.0339 145.039 47.0108 145.247C46.9878 145.447 46.9993 145.616 47.0454 145.754C47.0915 145.893 47.1607 146.042 47.2529 146.204C47.3529 146.365 47.4835 146.511 47.6449 146.642C47.6911 146.68 47.7256 146.711 47.7487 146.734C47.7718 146.757 47.7871 146.78 47.7948 146.803C47.8025 146.826 47.7948 146.846 47.7718 146.861C47.7564 146.876 47.7218 146.884 47.668 146.884C47.5296 146.892 47.2299 146.75 46.7687 146.458C46.2076 146.173 45.7195 145.797 45.3044 145.328C44.8894 144.851 44.5819 144.317 44.3821 143.725C44.2668 142.91 44.3859 142.122 44.7395 141.361C44.8855 140.962 45.1315 140.274 45.4774 139.298C45.8233 138.322 46.1307 137.48 46.3997 136.773C46.6688 136.066 46.9493 135.389 47.2414 134.743C47.2875 134.636 47.5642 134.686 48.0715 134.893C48.5865 135.101 49.0784 135.366 49.5473 135.689C50.0162 136.012 50.2237 136.262 50.1699 136.438C50.0854 136.692 49.8317 137.468 49.409 138.767C50.1853 137.561 50.7579 136.696 51.1269 136.173C51.2652 135.981 51.4728 135.7 51.7495 135.332C51.9186 135.07 52.1069 134.84 52.3144 134.64C52.545 134.448 52.7948 134.421 53.0638 134.559C53.6249 134.751 54.1399 135.047 54.6088 135.447C54.9163 135.677 55.1084 135.969 55.1853 136.323C55.2314 136.669 55.2506 136.996 55.2429 137.303C55.2506 138.041 55.1315 138.771 54.8855 139.494ZM63.7748 140.116C63.7902 140.086 63.8555 140.097 63.9708 140.151C64.0861 140.197 64.1899 140.258 64.2821 140.335C64.382 140.412 64.4243 140.466 64.4089 140.497C64.2245 140.958 63.6634 142.122 62.7256 143.99C62.4335 144.62 62.0646 145.301 61.6188 146.031C61.4574 146.369 61.2114 146.623 60.8809 146.792C60.5581 146.961 60.2122 147.019 59.8432 146.965C59.1515 146.819 58.5327 146.573 57.987 146.227C57.0262 145.75 56.2806 145.055 55.7502 144.14C55.2506 142.741 55.3121 141.361 55.9347 140.001C55.9808 139.863 56.1115 139.494 56.3267 138.894C56.5419 138.295 56.6918 137.88 56.7764 137.649C56.8609 137.411 56.9916 137.061 57.1684 136.6C57.3452 136.131 57.5066 135.716 57.6526 135.355C57.7986 134.993 57.9524 134.636 58.1138 134.282C58.1599 134.175 58.4405 134.225 58.9554 134.432C59.4704 134.64 59.9624 134.905 60.4312 135.228C60.9001 135.543 61.1038 135.789 61.0423 135.966C60.8963 136.396 60.7003 137.007 60.4543 137.799C60.216 138.583 59.9893 139.298 59.774 139.943C59.5588 140.581 59.3359 141.177 59.1053 141.73C58.5673 142.768 58.2752 143.898 58.2291 145.12C58.2598 145.405 58.3367 145.685 58.4597 145.962C58.4597 145.969 58.4635 145.985 58.4712 146.008C58.4866 146.023 58.4981 146.035 58.5058 146.042C58.7748 146.173 59.0515 146.235 59.3359 146.227C59.5281 146.212 59.7126 146.158 59.8893 146.066C60.0661 145.966 60.2314 145.831 60.3851 145.662C60.5388 145.485 60.6618 145.335 60.7541 145.212C60.8463 145.082 60.9616 144.909 61.0999 144.694C61.3843 144.255 61.8109 143.514 62.3797 142.468C62.9485 141.423 63.4135 140.639 63.7748 140.116ZM62.8409 132.507C62.4335 132.914 61.9378 133.118 61.3536 133.118C60.7694 133.118 60.2698 132.914 59.8548 132.507C59.4397 132.092 59.2322 131.592 59.2322 131.008C59.2322 130.424 59.4397 129.928 59.8548 129.521C60.2698 129.106 60.7694 128.898 61.3536 128.898C61.9378 128.898 62.4335 129.106 62.8409 129.521C63.256 129.928 63.4635 130.424 63.4635 131.008C63.4635 131.592 63.256 132.092 62.8409 132.507ZM77.6334 140.116C77.6487 140.086 77.7141 140.097 77.8294 140.151C77.9523 140.197 78.0638 140.258 78.1637 140.335C78.2713 140.405 78.3213 140.458 78.3136 140.497C78.1753 140.843 78.0177 141.204 77.8409 141.581C77.6641 141.949 77.4604 142.368 77.2298 142.837C76.9992 143.298 76.8263 143.648 76.711 143.886C76.2114 144.955 75.8732 145.643 75.6964 145.95C75.4812 146.327 75.2506 146.607 75.0046 146.792C74.7663 146.976 74.4627 147.046 74.0938 146.999C73.5557 146.907 73.0523 146.734 72.5834 146.481C71.4612 146.027 70.5273 145.308 69.7817 144.325C69.4973 143.74 69.359 143.122 69.3667 142.468C69.382 141.815 69.5473 141.204 69.8624 140.635C70.0008 140.258 70.2275 139.74 70.5427 139.079C70.8578 138.41 71.073 137.933 71.1883 137.649C71.4189 137.119 71.5342 136.581 71.5342 136.035C71.4881 136.058 71.3459 136.162 71.1076 136.346C70.7694 136.6 70.4274 136.88 70.0815 137.188C69.4589 137.772 68.9055 138.345 68.4212 138.906C67.7525 139.697 67.2298 140.32 66.8532 140.773C66.8225 140.812 66.6995 140.962 66.4843 141.223C66.2767 141.477 66.1153 141.669 66 141.8L65.9654 141.834C65.02 144.155 65.0738 145.72 66.1268 146.527C66.3267 146.673 66.4228 146.769 66.4151 146.815C66.4074 146.846 66.3805 146.869 66.3344 146.884C66.2114 146.93 65.8963 146.784 65.389 146.446C64.2667 145.77 63.525 144.805 63.1637 143.552C62.9408 142.568 62.937 141.577 63.1522 140.577C63.2906 139.893 63.4943 139.217 63.7633 138.548C64.309 137.172 64.8163 135.831 65.2852 134.524C65.3544 134.34 65.9347 134.544 67.0262 135.136C67.0338 135.143 67.0723 135.166 67.1414 135.205C67.2106 135.235 67.2683 135.266 67.3144 135.297C67.3682 135.328 67.4374 135.37 67.5219 135.424C67.6142 135.478 67.691 135.528 67.7525 135.574C67.8217 135.62 67.8947 135.67 67.9716 135.724C68.0561 135.777 68.1253 135.831 68.1791 135.885C68.2329 135.939 68.2829 135.993 68.329 136.046C68.3751 136.1 68.4059 136.154 68.4212 136.208C68.4366 136.254 68.4366 136.296 68.4212 136.335C68.1291 137.072 67.7141 138.006 67.176 139.136C67.299 138.959 67.4835 138.702 67.7295 138.364C68.6134 137.172 69.0899 136.534 69.1591 136.45C69.3974 136.142 69.897 135.501 70.658 134.524C70.7271 134.494 70.8079 134.486 70.9001 134.501C70.9923 134.517 71.1192 134.567 71.2806 134.651C71.442 134.736 71.565 134.805 71.6495 134.859C71.7417 134.905 71.8148 134.947 71.8686 134.986L72.0761 135.112C72.2836 135.182 72.4451 135.247 72.5603 135.308C73.2368 135.562 73.7979 135.973 74.2437 136.542C74.3974 136.842 74.4935 137.161 74.5319 137.499C74.578 137.837 74.5857 138.145 74.555 138.421C74.5242 138.69 74.4435 139.017 74.3128 139.401C74.1899 139.778 74.0784 140.078 73.9785 140.301C73.8786 140.524 73.7325 140.835 73.5404 141.235C73.3559 141.634 73.2252 141.919 73.1484 142.088C72.5258 143.064 72.2221 144.121 72.2375 145.258C72.3298 145.543 72.4374 145.789 72.5603 145.996V146.008L72.5834 146.019C72.8601 146.165 73.1522 146.231 73.4597 146.215C73.6057 146.2 73.7517 146.15 73.8978 146.066C74.0438 145.981 74.1591 145.9 74.2437 145.823C74.3359 145.747 74.4474 145.616 74.578 145.431C74.7087 145.247 74.7894 145.124 74.8201 145.062C74.8586 145.001 74.9393 144.87 75.0623 144.67C75.2775 144.309 75.6656 143.594 76.2268 142.526C76.7879 141.458 77.2567 140.654 77.6334 140.116ZM83.5941 136.231C83.5788 136.231 83.5596 136.212 83.5365 136.173L83.5941 136.231ZM90.4081 140.139C90.4235 140.116 90.4811 140.128 90.5811 140.174C90.6887 140.22 90.7886 140.278 90.8808 140.347C90.9731 140.408 91.0115 140.454 90.9961 140.485C90.3812 141.83 89.6971 143.125 88.9439 144.371C88.4981 145.132 88.0061 145.85 87.4681 146.527C86.538 147.587 85.4273 148.41 84.136 148.994C83.8209 149.847 83.525 150.577 83.2483 151.185C82.9792 151.8 82.641 152.468 82.2337 153.191C81.8263 153.921 81.3613 154.567 80.8386 155.128C80.3159 155.689 79.7433 156.158 79.1207 156.534C78.5749 156.942 77.9639 157.199 77.2875 157.307C76.6188 157.414 75.9616 157.357 75.3159 157.134C74.8009 156.973 74.3705 156.684 74.0246 156.269C73.6787 155.862 73.475 155.389 73.4135 154.851C73.3982 154.551 73.4251 154.263 73.4942 153.986C73.5557 153.71 73.6441 153.46 73.7594 153.237C73.867 153.014 74.0284 152.791 74.2437 152.568C74.4512 152.353 74.651 152.165 74.8432 152.003C75.0277 151.85 75.2775 151.684 75.5926 151.507C75.9001 151.338 76.1653 151.2 76.3882 151.092C76.6111 150.985 76.9032 150.858 77.2644 150.712C77.6334 150.574 77.9216 150.466 78.1291 150.389C78.3367 150.312 78.6287 150.208 79.0054 150.078C79.382 149.947 79.651 149.855 79.8124 149.801C80.0123 149.263 80.3543 148.325 80.8386 146.988C81.3228 145.658 81.6995 144.632 81.9685 143.91C82.0761 143.625 82.2337 143.202 82.4412 142.641C82.6564 142.072 82.8178 141.65 82.9254 141.373C82.3259 142.219 81.7648 143.022 81.2421 143.783C81.073 144.029 80.827 144.405 80.5042 144.913C80.1814 145.42 79.9354 145.797 79.7663 146.042C79.7279 146.096 79.6587 146.208 79.5588 146.377C79.4666 146.546 79.3897 146.673 79.3282 146.757C79.2667 146.834 79.1745 146.903 79.0515 146.965C78.9362 147.034 78.8094 147.053 78.671 147.022C77.8947 146.8 77.2144 146.419 76.6303 145.881C75.5542 144.936 75.4543 143.368 76.3305 141.177C77.1299 139.255 78.1368 137.48 79.3513 135.85C79.5434 135.589 79.7779 135.324 80.0546 135.055C80.2544 134.824 80.5042 134.682 80.804 134.628C81.1114 134.574 81.3958 134.624 81.6572 134.778C82.4181 135.101 83.1829 135.547 83.9516 136.116C84.2206 136.308 84.4666 136.519 84.6895 136.75C84.774 136.527 84.9008 136.189 85.0699 135.735C85.2467 135.282 85.3774 134.943 85.4619 134.72C85.5004 134.621 85.7886 134.678 86.3267 134.893C86.8724 135.109 87.3951 135.385 87.8947 135.724C88.3943 136.054 88.6134 136.315 88.5519 136.508C87.053 140.92 85.7233 144.709 84.5626 147.876C85.362 147.414 86.0845 146.819 86.7302 146.089C88.0753 144.205 89.3013 142.222 90.4081 140.139ZM78.6134 146.688L78.6018 146.677L78.6134 146.688ZM83.4212 139.205C83.5519 139.036 83.7709 138.775 84.0784 138.421L84.4819 137.349C84.3897 137.257 84.3551 137.18 84.3782 137.119C84.4166 136.98 84.4012 136.861 84.332 136.761C84.2629 136.661 84.136 136.554 83.9516 136.438C83.7671 136.323 83.6556 136.25 83.6172 136.219C83.648 136.212 83.6556 136.192 83.6403 136.162C83.6172 136.131 83.5865 136.131 83.548 136.162C83.5403 136.154 83.5288 136.146 83.5134 136.139C83.5058 136.131 83.4981 136.123 83.4904 136.116C83.4827 136.108 83.4789 136.1 83.4789 136.092C83.4942 136.116 83.5173 136.142 83.548 136.173H83.5365C83.5288 136.173 83.525 136.177 83.525 136.185C83.5096 136.208 83.4712 136.254 83.4097 136.323C83.3482 136.392 83.3059 136.446 83.2828 136.484C83.1829 136.631 83.0407 136.857 82.8563 137.165C82.7486 137.341 82.5411 137.668 82.2337 138.145C81.9262 138.621 81.6956 138.994 81.5419 139.263C80.6656 140.777 79.897 142.349 79.236 143.979C79.0976 144.309 78.9746 144.636 78.867 144.959C78.8901 144.936 78.9247 144.897 78.9708 144.843C79.0169 144.79 79.0515 144.751 79.0746 144.728L79.6972 143.967C80.3197 143.183 80.9154 142.426 81.4842 141.696C81.6303 141.511 81.834 141.25 82.0953 140.912C82.3643 140.574 82.6064 140.266 82.8217 139.989C83.0369 139.713 83.2367 139.451 83.4212 139.205ZM78.9016 152.245C78.9862 152.046 79.0938 151.757 79.2244 151.381C79.3628 151.012 79.455 150.762 79.5011 150.631C79.0553 150.793 78.6941 150.923 78.4174 151.023C78.1407 151.131 77.7986 151.273 77.3912 151.45C76.9839 151.634 76.6457 151.815 76.3766 151.992C76.1076 152.176 75.8347 152.388 75.558 152.626C75.2736 152.864 75.043 153.129 74.8663 153.421C74.6818 153.713 74.5434 154.029 74.4512 154.367C74.4128 154.574 74.3859 154.816 74.3705 155.093C74.3551 155.37 74.3935 155.658 74.4858 155.958C74.578 156.258 74.7164 156.465 74.9008 156.581C75.1776 156.757 75.5042 156.757 75.8809 156.581C76.2575 156.411 76.588 156.185 76.8724 155.9C77.7871 154.793 78.4635 153.575 78.9016 152.245ZM109.189 133.243C109.024 133.686 108.779 134.339 108.453 135.202C108.128 136.065 107.866 136.765 107.668 137.303C107.47 137.835 107.244 138.479 106.989 139.234C106.735 139.983 106.513 140.677 106.324 141.313C106.032 142.289 105.848 142.971 105.773 143.357C105.485 144.791 105.631 145.852 106.211 146.54C106.291 146.639 106.235 146.656 106.041 146.59C106.032 146.585 106.018 146.578 105.999 146.569L105.971 146.562C105.73 146.467 105.523 146.333 105.348 146.158C104.231 145.017 103.929 143.19 104.443 140.677C105.169 137.725 106.126 134.886 107.315 132.16C107.338 132.099 107.515 132.134 107.845 132.266C108.175 132.394 108.491 132.561 108.793 132.769C109.099 132.971 109.231 133.129 109.189 133.243ZM112.91 128.772C113.664 129.168 114.282 129.661 114.763 130.25C115.248 130.84 115.588 131.467 115.781 132.132C115.975 132.797 116.069 133.518 116.064 134.296C116.064 135.075 115.982 135.841 115.817 136.595C115.652 137.345 115.425 138.114 115.138 138.901C114.85 139.684 114.544 140.403 114.218 141.059C113.893 141.714 113.544 142.346 113.171 142.954C112.219 144.609 111.04 146.083 109.635 147.375C108.229 148.667 106.664 149.721 104.938 150.537C104.537 150.702 104.108 150.817 103.651 150.883C103.198 150.95 102.747 150.966 102.3 150.933C101.856 150.9 101.439 150.803 101.048 150.643C100.656 150.483 100.321 150.27 100.043 150.006C99.7649 149.742 99.5645 149.398 99.4419 148.974C99.3193 148.549 99.3051 148.071 99.3994 147.538C99.4041 147.528 99.4372 147.535 99.4985 147.559C99.5598 147.587 99.6211 147.62 99.6824 147.658C99.7437 147.696 99.7743 147.729 99.7743 147.757C99.7885 148.049 99.812 148.316 99.845 148.556C99.8828 148.797 99.9488 149.04 100.043 149.285C100.137 149.535 100.258 149.74 100.404 149.9C100.55 150.065 100.743 150.195 100.984 150.289C101.224 150.388 101.505 150.431 101.826 150.417C102.467 150.365 103.066 150.207 103.622 149.943C104.952 149.287 106.129 148.413 107.152 147.319C109.363 144.998 111.118 142.372 112.414 139.439C113.603 137.213 114.225 134.846 114.282 132.337C114.272 132.016 114.235 131.696 114.169 131.375C114.107 131.054 114.015 130.734 113.893 130.413C113.775 130.092 113.61 129.8 113.398 129.536C113.19 129.267 112.947 129.062 112.669 128.921C112.462 128.822 112.249 128.744 112.032 128.687C111.283 128.569 110.538 128.609 109.797 128.807C109.062 129.006 108.399 129.343 107.81 129.819C106.678 130.616 105.73 131.611 104.966 132.804C104.264 133.78 103.702 134.827 103.283 135.945C103.141 136.331 103.063 136.732 103.049 137.147C103.049 137.237 103.073 137.371 103.12 137.55C103.167 137.729 103.188 137.866 103.184 137.96C103.179 138.026 103.061 138.022 102.83 137.946C102.604 137.866 102.441 137.8 102.342 137.748C101.908 137.56 101.491 137.298 101.09 136.963C100.741 136.718 100.559 136.383 100.545 135.959C100.555 135.596 100.628 135.258 100.765 134.947C101.213 134.004 101.786 133.148 102.483 132.38C103.181 131.606 103.976 130.953 104.867 130.42C105.895 129.718 106.989 129.135 108.149 128.673C109.281 128.164 110.465 128.029 111.7 128.27C111.86 128.317 111.999 128.376 112.117 128.447C112.363 128.522 112.627 128.631 112.91 128.772ZM121.857 136.231C121.833 136.231 121.81 136.212 121.787 136.173C121.795 136.181 121.807 136.192 121.822 136.208C121.837 136.215 121.849 136.223 121.857 136.231ZM129.87 140.116C129.893 140.086 129.962 140.097 130.077 140.151C130.192 140.205 130.296 140.27 130.388 140.347C130.488 140.416 130.531 140.466 130.515 140.497C130.269 140.966 129.877 141.63 129.339 142.491C128.809 143.345 128.501 143.844 128.417 143.99C127.779 145.066 127.364 145.739 127.172 146.008C127.01 146.323 126.78 146.573 126.48 146.757C126.18 146.942 125.853 147.03 125.5 147.022C124.977 146.938 124.485 146.777 124.024 146.538C122.917 146.108 122.029 145.385 121.361 144.371C120.907 143.402 120.842 142.407 121.165 141.385C120.788 141.915 120.231 142.71 119.493 143.771C119.324 144.017 119.078 144.394 118.755 144.901C118.432 145.408 118.186 145.785 118.017 146.031C117.979 146.085 117.91 146.196 117.81 146.365C117.717 146.534 117.641 146.661 117.579 146.746C117.518 146.83 117.425 146.903 117.302 146.965C117.187 147.034 117.06 147.053 116.922 147.022C116.153 146.8 115.477 146.419 114.893 145.881C113.809 144.928 113.705 143.356 114.581 141.165C115.358 139.29 116.368 137.518 117.614 135.85C117.821 135.558 118.052 135.293 118.305 135.055C118.505 134.824 118.755 134.682 119.055 134.628C119.362 134.574 119.647 134.624 119.908 134.778C120.715 135.116 121.484 135.558 122.214 136.104C122.46 136.288 122.714 136.511 122.975 136.773C123.551 135.389 123.901 134.559 124.024 134.282C124.07 134.175 124.351 134.225 124.866 134.432C125.381 134.64 125.873 134.905 126.342 135.228C126.81 135.543 127.014 135.789 126.953 135.966C126.791 136.435 126.361 137.611 125.661 139.494C125.192 140.754 124.912 141.492 124.82 141.707C124.174 142.822 123.832 144.032 123.793 145.339C123.809 145.516 123.843 145.677 123.897 145.823C123.905 145.839 123.928 145.881 123.966 145.95C124.005 146.012 124.028 146.054 124.036 146.077L124.209 146.135C124.278 146.165 124.355 146.192 124.439 146.215C124.57 146.238 124.704 146.238 124.843 146.215C124.996 146.192 125.154 146.142 125.315 146.066C125.477 145.981 125.607 145.9 125.707 145.823C125.807 145.739 125.934 145.608 126.088 145.431C126.242 145.255 126.342 145.135 126.388 145.074C126.441 145.005 126.541 144.87 126.687 144.67C126.972 144.286 127.46 143.564 128.152 142.503C128.851 141.442 129.424 140.647 129.87 140.116ZM116.876 146.688L116.864 146.677L116.876 146.688ZM116.864 146.688V146.677L116.876 146.688H116.864ZM117.96 143.967H117.948C118.009 143.89 118.613 143.129 119.758 141.684C119.904 141.5 120.108 141.238 120.369 140.9C120.638 140.562 120.88 140.255 121.096 139.978C121.311 139.701 121.511 139.44 121.695 139.194C121.741 139.132 121.937 138.89 122.283 138.468C122.329 138.345 122.406 138.164 122.514 137.926C122.621 137.68 122.698 137.495 122.744 137.372C122.644 137.28 122.606 137.195 122.629 137.119C122.667 136.98 122.652 136.861 122.583 136.761C122.514 136.661 122.387 136.554 122.202 136.438C122.018 136.323 121.906 136.25 121.868 136.219C121.891 136.212 121.899 136.196 121.891 136.173C121.876 136.142 121.849 136.139 121.81 136.162C121.803 136.154 121.787 136.142 121.764 136.127C121.749 136.112 121.737 136.1 121.73 136.092C121.76 136.131 121.783 136.158 121.799 136.173H121.787L121.776 136.185C121.76 136.208 121.722 136.254 121.661 136.323C121.599 136.392 121.557 136.446 121.534 136.484C121.495 136.538 121.357 136.765 121.119 137.165C121.003 137.349 120.792 137.68 120.484 138.156C120.177 138.625 119.946 138.994 119.793 139.263C118.94 140.731 118.175 142.303 117.498 143.979C117.314 144.432 117.187 144.759 117.118 144.959C117.141 144.936 117.176 144.897 117.222 144.843C117.268 144.79 117.302 144.751 117.325 144.728C117.471 144.559 117.683 144.305 117.96 143.967ZM144.051 140.139C144.066 140.116 144.124 140.128 144.224 140.174C144.332 140.212 144.428 140.266 144.512 140.335C144.604 140.397 144.643 140.443 144.627 140.474C144.02 141.803 143.332 143.102 142.564 144.371C142.095 145.17 141.607 145.889 141.099 146.527C140.177 147.572 139.066 148.391 137.767 148.983C137.452 149.836 137.156 150.566 136.88 151.173C136.611 151.788 136.272 152.457 135.865 153.179C135.458 153.909 134.993 154.555 134.47 155.116C133.947 155.677 133.375 156.146 132.752 156.523C132.206 156.93 131.595 157.188 130.919 157.295C130.25 157.403 129.593 157.345 128.947 157.122C128.432 156.961 128.002 156.673 127.656 156.258C127.31 155.85 127.106 155.378 127.045 154.84C127.022 154.455 127.068 154.09 127.183 153.744C127.291 153.398 127.448 153.091 127.656 152.822C127.856 152.561 128.106 152.307 128.405 152.061C128.697 151.823 129.009 151.611 129.339 151.427C129.67 151.25 130.027 151.077 130.411 150.908C130.803 150.739 131.18 150.589 131.541 150.458C131.91 150.328 132.283 150.197 132.66 150.066C133.013 149.951 133.271 149.863 133.432 149.801C134.062 148.11 134.531 146.842 134.839 145.996C134.693 146.281 134.485 146.515 134.216 146.7C133.955 146.876 133.663 146.98 133.34 147.011C132.787 146.949 132.287 146.792 131.841 146.538C130.742 146.085 129.85 145.389 129.166 144.451C128.828 143.76 128.659 143.033 128.659 142.272C128.659 141.504 128.828 140.773 129.166 140.082C130.119 137.407 130.861 135.47 131.391 134.271C131.438 134.163 131.718 134.213 132.233 134.421C132.748 134.628 133.24 134.893 133.709 135.216C134.178 135.539 134.381 135.789 134.32 135.966C134.166 136.411 133.963 137.034 133.709 137.833C133.463 138.625 133.229 139.351 133.006 140.013C132.783 140.666 132.556 141.277 132.325 141.846C131.718 142.953 131.468 144.148 131.576 145.431C131.599 145.531 131.684 145.735 131.83 146.042C132.129 146.15 132.421 146.177 132.706 146.123C132.79 146.108 132.871 146.081 132.948 146.042C133.033 146.004 133.106 145.969 133.167 145.939C133.236 145.9 133.309 145.846 133.386 145.777C133.471 145.7 133.536 145.643 133.582 145.604C133.628 145.566 133.69 145.501 133.767 145.408C133.851 145.308 133.909 145.239 133.94 145.201C133.97 145.162 134.024 145.086 134.101 144.97C134.185 144.855 134.235 144.786 134.251 144.763C134.274 144.732 134.324 144.655 134.401 144.532C134.485 144.409 134.531 144.344 134.539 144.336C134.808 143.936 135.192 143.325 135.692 142.503C136.199 141.673 136.587 141.058 136.856 140.658C136.972 140.343 137.298 139.467 137.837 138.029C138.375 136.592 138.793 135.489 139.093 134.72C139.132 134.621 139.424 134.678 139.969 134.893C140.515 135.109 141.038 135.385 141.538 135.724C142.037 136.054 142.256 136.315 142.195 136.508C140.696 140.92 139.366 144.709 138.205 147.876C139.013 147.414 139.731 146.819 140.361 146.089C141.737 144.167 142.967 142.184 144.051 140.139ZM132.533 152.245C132.617 152.038 132.733 151.738 132.879 151.346C133.025 150.954 133.113 150.716 133.144 150.631C132.69 150.793 132.325 150.923 132.049 151.023C131.78 151.131 131.438 151.273 131.023 151.45C130.615 151.634 130.277 151.815 130.008 151.992C129.747 152.169 129.474 152.376 129.189 152.614C128.905 152.853 128.674 153.118 128.498 153.41C128.321 153.702 128.186 154.017 128.094 154.355C128.04 154.563 128.009 154.805 128.002 155.082C127.994 155.366 128.036 155.654 128.129 155.946C128.213 156.246 128.352 156.458 128.544 156.581C128.82 156.757 129.147 156.757 129.524 156.581C129.9 156.411 130.231 156.185 130.515 155.9C131.422 154.809 132.095 153.591 132.533 152.245ZM170.561 124.604C171.219 125.441 171.502 126.388 171.41 127.445C171.421 127.977 171.352 128.499 171.202 129.013C171.04 129.516 170.884 129.845 170.734 130.001C170.63 130.111 170.517 130.177 170.396 130.2C170.269 130.2 170.139 130.163 170.006 130.088C169.827 130.001 169.665 129.914 169.521 129.828C169.515 129.822 169.483 129.805 169.426 129.776C169.374 129.741 169.333 129.715 169.304 129.698C169.276 129.681 169.235 129.655 169.183 129.62C169.137 129.585 169.099 129.554 169.071 129.525C169.047 129.496 169.021 129.464 168.993 129.429C168.969 129.389 168.958 129.351 168.958 129.317C168.952 129.242 168.969 129.172 169.01 129.109C169.056 129.039 169.128 128.959 169.226 128.866C169.325 128.768 169.38 128.713 169.391 128.702C169.53 128.557 169.671 128.378 169.816 128.164C170.347 127.425 170.618 126.602 170.63 125.695C170.63 125.666 170.624 125.626 170.613 125.574C170.601 125.522 170.595 125.487 170.595 125.47C170.584 125.343 170.572 125.253 170.561 125.201C170.509 125.017 170.425 124.843 170.309 124.682C169.726 123.913 168.981 124.121 168.074 125.305C167.063 126.778 166.584 128.41 166.636 130.2C166.636 130.963 166.728 131.754 166.913 132.574C167.104 133.389 167.341 134.166 167.624 134.905C167.912 135.644 168.204 136.375 168.499 137.097C168.793 137.819 169.065 138.59 169.313 139.41C169.561 140.224 169.723 140.995 169.798 141.723C169.879 142.474 169.816 143.211 169.608 143.933C169.406 144.649 169.111 145.293 168.724 145.865C168.337 146.436 167.858 146.988 167.286 147.519C166.714 148.051 166.133 148.51 165.544 148.897C164.955 149.284 164.323 149.648 163.647 149.989C162.931 150.352 162.209 150.661 161.481 150.916C160.753 151.17 159.976 151.375 159.15 151.531C158.325 151.687 157.507 151.713 156.699 151.609C155.896 151.505 155.174 151.259 154.533 150.872C154.44 150.82 154.362 150.768 154.299 150.716C154.241 150.664 154.201 150.621 154.177 150.586C154.154 150.557 154.149 150.534 154.16 150.517C153.317 149.963 152.754 149.203 152.471 148.238C151.818 145.865 152.586 142.89 154.775 139.315C155.532 137.998 156.473 136.825 157.6 135.797C157.923 135.439 158.313 135.182 158.769 135.026C159.226 134.864 159.691 134.827 160.164 134.914C160.69 135.093 161.166 135.358 161.594 135.711C161.773 135.855 161.88 135.979 161.914 136.083C161.937 136.152 161.882 136.173 161.75 136.144C161.738 136.138 161.729 136.135 161.724 136.135C161.585 136.1 161.423 136.118 161.238 136.187C161.054 136.251 160.843 136.369 160.606 136.542C160.375 136.716 160.202 136.851 160.086 136.949C159.976 137.042 159.815 137.186 159.601 137.383C159.584 137.4 159.569 137.414 159.558 137.426C159.546 137.432 159.535 137.44 159.523 137.452C157.363 139.398 155.665 141.68 154.429 144.296C154.267 144.654 154.123 145.01 153.995 145.362C153.874 145.714 153.759 146.104 153.649 146.532C153.539 146.959 153.476 147.369 153.458 147.762C153.447 148.155 153.473 148.539 153.536 148.914C153.6 149.29 153.741 149.636 153.961 149.954C154.186 150.272 154.478 150.537 154.836 150.751C155.171 150.913 155.564 151.005 156.014 151.028C156.465 151.057 156.904 151.031 157.331 150.95C157.764 150.875 158.223 150.76 158.709 150.604C159.194 150.448 159.618 150.292 159.982 150.136C160.346 149.98 160.707 149.812 161.065 149.633C162.763 148.767 164.19 147.563 165.345 146.02C166.067 145.177 166.59 144.221 166.913 143.153C167.242 142.084 167.344 140.998 167.216 139.895C166.668 137.677 165.946 135.488 165.051 133.328C164.386 131.538 164.19 129.695 164.461 127.801C164.571 127.258 164.75 126.723 164.999 126.198C165.253 125.666 165.599 125.178 166.038 124.734C166.477 124.289 166.957 124 167.476 123.867C167.956 123.752 168.441 123.737 168.932 123.824C169.423 123.905 169.876 124.081 170.292 124.352C170.379 124.422 170.457 124.5 170.526 124.586C170.532 124.592 170.538 124.595 170.543 124.595C170.549 124.595 170.555 124.598 170.561 124.604ZM182.054 136.588C182.246 136.811 182.381 137.046 182.458 137.292C182.535 137.53 182.55 137.799 182.504 138.099C182.458 138.391 182.408 138.633 182.354 138.825C182.308 139.009 182.212 139.282 182.066 139.644C181.927 140.005 181.839 140.247 181.8 140.37C181.278 141.946 180.621 143.448 179.829 144.878C179.498 145.601 179.045 146.189 178.468 146.642C177.838 146.98 177.192 146.988 176.531 146.665C175.578 146.304 174.698 145.862 173.891 145.339C173.63 145.178 173.392 145.016 173.176 144.855C173.13 144.993 173.019 145.316 172.842 145.823C172.665 146.323 172.527 146.711 172.427 146.988C171.935 148.302 171.309 149.897 170.548 151.773C170.471 151.957 170.34 152.257 170.156 152.672C169.963 153.095 169.814 153.437 169.706 153.698C169.591 153.967 169.479 154.301 169.372 154.701C169.264 155.101 169.214 155.447 169.222 155.739C169.229 156.031 169.306 156.338 169.452 156.661C169.591 156.984 169.81 157.265 170.109 157.503C170.286 157.641 170.298 157.695 170.144 157.664C169.875 157.603 169.537 157.461 169.129 157.238C169.091 157.215 169.064 157.199 169.049 157.192C168.472 156.792 168.026 156.335 167.711 155.82C167.388 155.305 167.192 154.751 167.123 154.159C167.054 153.575 167.058 152.995 167.135 152.418C167.212 151.842 167.358 151.215 167.573 150.539C167.642 150.316 167.85 149.644 168.196 148.521C168.541 147.407 168.814 146.554 169.014 145.962C170.713 141.004 172.216 136.961 173.522 133.833C173.561 133.733 173.837 133.787 174.352 133.994C174.867 134.202 175.359 134.467 175.828 134.79C176.305 135.105 176.512 135.351 176.451 135.528C176.059 136.611 175.678 137.695 175.309 138.779C176.193 137.303 177.212 135.873 178.365 134.49C178.488 134.351 178.891 134.501 179.575 134.939C179.66 134.993 179.794 135.082 179.979 135.205C180.778 135.512 181.47 135.973 182.054 136.588ZM173.649 144.59C173.572 144.544 173.499 144.505 173.43 144.474C173.499 144.505 173.565 144.536 173.626 144.567L173.649 144.59ZM179.471 136.623V136.634C179.594 136.358 179.637 136.081 179.598 135.804C179.299 135.966 179.037 136.142 178.814 136.335C178.476 136.611 178.115 136.942 177.731 137.326C177.069 138.018 176.474 138.714 175.943 139.413C175.767 139.651 175.498 140.009 175.136 140.485C174.783 140.954 174.518 141.308 174.341 141.546C174.126 142.176 173.795 143.122 173.349 144.382C173.388 144.398 173.442 144.428 173.511 144.474C173.588 144.521 173.645 144.555 173.684 144.578C173.73 144.601 173.787 144.636 173.857 144.682C173.933 144.728 173.983 144.755 174.006 144.763C174.037 144.778 174.091 144.797 174.168 144.82C174.245 144.843 174.299 144.863 174.329 144.878C174.306 144.878 174.306 144.882 174.329 144.89C174.406 144.897 174.46 144.901 174.491 144.901H174.502H174.514H174.525H174.537H174.56H174.571H174.583H174.606H174.618H174.733C175.04 144.832 175.302 144.678 175.517 144.44C176.478 143.333 177.212 142.115 177.719 140.785C178.411 139.271 178.995 137.883 179.471 136.623ZM190.01 136.231C189.986 136.231 189.963 136.212 189.94 136.173C189.948 136.181 189.96 136.192 189.975 136.208C189.99 136.215 190.002 136.223 190.01 136.231ZM198.023 140.116C198.046 140.086 198.115 140.097 198.23 140.151C198.345 140.205 198.449 140.27 198.541 140.347C198.641 140.416 198.684 140.466 198.668 140.497C198.422 140.966 198.03 141.63 197.492 142.491C196.962 143.345 196.654 143.844 196.57 143.99C195.932 145.066 195.517 145.739 195.325 146.008C195.163 146.323 194.933 146.573 194.633 146.757C194.333 146.942 194.006 147.03 193.653 147.022C193.13 146.938 192.638 146.777 192.177 146.538C191.07 146.108 190.182 145.385 189.514 144.371C189.06 143.402 188.995 142.407 189.318 141.385C188.941 141.915 188.384 142.71 187.646 143.771C187.477 144.017 187.231 144.394 186.908 144.901C186.585 145.408 186.339 145.785 186.17 146.031C186.132 146.085 186.063 146.196 185.963 146.365C185.87 146.534 185.794 146.661 185.732 146.746C185.671 146.83 185.578 146.903 185.455 146.965C185.34 147.034 185.213 147.053 185.075 147.022C184.306 146.8 183.63 146.419 183.046 145.881C181.962 144.928 181.858 143.356 182.734 141.165C183.511 139.29 184.521 137.518 185.767 135.85C185.974 135.558 186.205 135.293 186.458 135.055C186.658 134.824 186.908 134.682 187.208 134.628C187.515 134.574 187.8 134.624 188.061 134.778C188.868 135.116 189.637 135.558 190.367 136.104C190.613 136.288 190.867 136.511 191.128 136.773C191.704 135.389 192.054 134.559 192.177 134.282C192.223 134.175 192.504 134.225 193.019 134.432C193.534 134.64 194.026 134.905 194.495 135.228C194.963 135.543 195.167 135.789 195.106 135.966C194.944 136.435 194.514 137.611 193.814 139.494C193.345 140.754 193.065 141.492 192.973 141.707C192.327 142.822 191.985 144.032 191.947 145.339C191.962 145.516 191.996 145.677 192.05 145.823C192.058 145.839 192.081 145.881 192.119 145.95C192.158 146.012 192.181 146.054 192.189 146.077L192.362 146.135C192.431 146.165 192.508 146.192 192.592 146.215C192.723 146.238 192.857 146.238 192.996 146.215C193.149 146.192 193.307 146.142 193.468 146.066C193.63 145.981 193.76 145.9 193.86 145.823C193.96 145.739 194.087 145.608 194.241 145.431C194.395 145.255 194.495 145.135 194.541 145.074C194.594 145.005 194.694 144.87 194.84 144.67C195.125 144.286 195.613 143.564 196.305 142.503C197.004 141.442 197.577 140.647 198.023 140.116ZM185.029 146.688L185.017 146.677L185.029 146.688ZM185.017 146.688V146.677L185.029 146.688H185.017ZM186.113 143.967H186.101C186.162 143.89 186.766 143.129 187.911 141.684C188.057 141.5 188.261 141.238 188.522 140.9C188.791 140.562 189.033 140.255 189.249 139.978C189.464 139.701 189.664 139.44 189.848 139.194C189.894 139.132 190.09 138.89 190.436 138.468C190.482 138.345 190.559 138.164 190.667 137.926C190.774 137.68 190.851 137.495 190.897 137.372C190.797 137.28 190.759 137.195 190.782 137.119C190.82 136.98 190.805 136.861 190.736 136.761C190.667 136.661 190.54 136.554 190.355 136.438C190.171 136.323 190.059 136.25 190.021 136.219C190.044 136.212 190.052 136.196 190.044 136.173C190.029 136.142 190.002 136.139 189.963 136.162C189.956 136.154 189.94 136.142 189.917 136.127C189.902 136.112 189.89 136.1 189.883 136.092C189.913 136.131 189.937 136.158 189.952 136.173H189.94L189.929 136.185C189.913 136.208 189.875 136.254 189.814 136.323C189.752 136.392 189.71 136.446 189.687 136.484C189.648 136.538 189.51 136.765 189.272 137.165C189.156 137.349 188.945 137.68 188.638 138.156C188.33 138.625 188.099 138.994 187.946 139.263C187.093 140.731 186.328 142.303 185.651 143.979C185.467 144.432 185.34 144.759 185.271 144.959C185.294 144.936 185.329 144.897 185.375 144.843C185.421 144.79 185.455 144.751 185.478 144.728C185.624 144.559 185.836 144.305 186.113 143.967Z" fill="white"/>
<path d="M44.5749 162.098C44.5749 162.348 44.6883 162.552 44.7564 162.613C44.832 162.688 44.8396 162.711 44.8396 162.749C44.8396 162.771 44.7867 162.802 44.7564 162.802C44.6127 162.802 44.2799 162.703 44.1437 162.666C43.9546 162.605 43.9243 162.567 43.9243 162.454C43.9243 162 44.4009 161.206 44.7413 160.865C44.7791 160.82 44.8169 160.805 44.8547 160.805C44.8774 160.805 44.9077 160.82 44.9077 160.843C44.9077 160.865 44.8926 160.888 44.8623 160.941C44.7337 161.206 44.5749 161.637 44.5749 162.098ZM43.4402 162.098C43.4402 162.348 43.5537 162.552 43.6218 162.613C43.6974 162.688 43.705 162.711 43.705 162.749C43.705 162.771 43.652 162.802 43.6218 162.802C43.4781 162.802 43.1452 162.703 43.0091 162.666C42.82 162.605 42.7897 162.567 42.7897 162.454C42.7897 162 43.2663 161.206 43.6067 160.865C43.6445 160.82 43.6823 160.805 43.7201 160.805C43.7428 160.805 43.7655 160.82 43.7655 160.843C43.7655 160.865 43.7579 160.888 43.7277 160.941C43.5991 161.206 43.4402 161.637 43.4402 162.098ZM47.5333 164.836V161.735L46.4063 161.765C45.9675 161.781 45.786 161.818 45.6725 161.985C45.5969 162.098 45.5591 162.189 45.544 162.25C45.5288 162.31 45.5061 162.34 45.4607 162.34C45.4078 162.34 45.3927 162.302 45.3927 162.219C45.3927 162.098 45.5364 161.41 45.5515 161.349C45.5742 161.251 45.5969 161.206 45.6423 161.206C45.7028 161.206 45.7784 161.281 45.9675 161.296C46.1869 161.319 46.4743 161.334 46.724 161.334H49.7193C49.9614 161.334 50.1278 161.312 50.2413 161.296C50.3547 161.274 50.4152 161.259 50.4455 161.259C50.4984 161.259 50.506 161.304 50.506 161.417C50.506 161.576 50.4833 162.098 50.4833 162.295C50.4757 162.371 50.4606 162.416 50.4152 162.416C50.3547 162.416 50.3396 162.378 50.332 162.265L50.3245 162.181C50.3093 161.985 50.1051 161.773 49.4319 161.758L48.4788 161.735V164.836C48.4788 165.532 48.4788 166.13 48.5166 166.455C48.5393 166.667 48.5847 166.833 48.8116 166.864C48.9175 166.879 49.084 166.894 49.1974 166.894C49.2806 166.894 49.3184 166.917 49.3184 166.954C49.3184 167.007 49.2579 167.03 49.1747 167.03C48.6755 167.03 48.199 167.007 47.9872 167.007C47.8132 167.007 47.3366 167.03 47.0341 167.03C46.9357 167.03 46.8828 167.007 46.8828 166.954C46.8828 166.917 46.9131 166.894 47.0038 166.894C47.1173 166.894 47.2081 166.879 47.2761 166.864C47.4274 166.833 47.4728 166.667 47.4955 166.448C47.5333 166.13 47.5333 165.532 47.5333 164.836ZM51.7462 165.162V164.027C51.7462 163.051 51.7462 162.87 51.7387 162.666C51.7235 162.446 51.663 162.378 51.4512 162.318C51.3983 162.302 51.2848 162.295 51.1865 162.295C51.1184 162.295 51.073 162.272 51.073 162.227C51.073 162.181 51.126 162.166 51.2243 162.166C51.5722 162.166 51.9958 162.181 52.132 162.181C52.3589 162.181 52.964 162.166 53.1683 162.166C53.5919 162.166 54.076 162.204 54.4315 162.439C54.6206 162.567 54.9005 162.892 54.9005 163.324C54.9005 163.8 54.6281 164.224 53.9776 164.746C54.5676 165.472 55.0366 166.054 55.4375 166.455C55.8081 166.826 56.0426 166.856 56.1485 166.879C56.2166 166.894 56.2544 166.894 56.3074 166.894C56.3603 166.894 56.3906 166.932 56.3906 166.962C56.3906 167.015 56.3452 167.03 56.262 167.03H55.6266C55.256 167.03 55.0744 166.992 54.9005 166.901C54.613 166.758 54.3634 166.455 53.9928 165.956C53.728 165.608 53.4481 165.177 53.3649 165.078C53.3271 165.041 53.2893 165.033 53.2439 165.033L52.6463 165.018C52.6161 165.018 52.5934 165.033 52.5934 165.071V165.162C52.5934 165.759 52.601 166.258 52.6312 166.531C52.6539 166.72 52.6842 166.841 52.8884 166.871C52.9867 166.886 53.1305 166.894 53.2137 166.894C53.2666 166.894 53.2969 166.932 53.2969 166.962C53.2969 167.007 53.2439 167.03 53.1607 167.03C52.7749 167.03 52.2228 167.007 52.1244 167.007C51.9958 167.007 51.5722 167.03 51.3075 167.03C51.2243 167.03 51.1789 167.007 51.1789 166.962C51.1789 166.932 51.2016 166.894 51.2848 166.894C51.3831 166.894 51.4588 166.886 51.5193 166.871C51.6555 166.841 51.6933 166.72 51.716 166.531C51.7462 166.258 51.7462 165.752 51.7462 165.162ZM52.5934 162.613V164.526C52.5934 164.594 52.6085 164.617 52.6539 164.64C52.7976 164.685 52.9943 164.7 53.1607 164.7C53.4255 164.7 53.5162 164.678 53.6297 164.594C53.8339 164.451 54.0608 164.171 54.0608 163.641C54.0608 162.734 53.4406 162.499 53.0472 162.499C52.8808 162.499 52.722 162.507 52.6539 162.522C52.6085 162.537 52.5934 162.56 52.5934 162.613ZM56.9318 165.162V164.027C56.9318 163.051 56.9318 162.87 56.9242 162.666C56.9091 162.446 56.8486 162.378 56.6368 162.318C56.5838 162.302 56.4704 162.295 56.372 162.295C56.3039 162.295 56.2586 162.272 56.2586 162.227C56.2586 162.181 56.3115 162.166 56.4098 162.166C56.7578 162.166 57.1814 162.181 57.3705 162.181C57.5823 162.181 59.0573 162.189 59.1859 162.181C59.3069 162.174 59.4128 162.151 59.4657 162.144C59.5036 162.136 59.5414 162.113 59.5716 162.113C59.6095 162.113 59.617 162.144 59.617 162.174C59.617 162.219 59.5792 162.295 59.5641 162.59C59.5565 162.658 59.5414 162.938 59.5263 163.013C59.5187 163.044 59.5036 163.119 59.4506 163.119C59.4052 163.119 59.3977 163.089 59.3977 163.036C59.3977 162.991 59.3901 162.877 59.3523 162.802C59.2993 162.688 59.2464 162.597 58.9136 162.567C58.8001 162.552 58.0059 162.537 57.8697 162.537C57.8395 162.537 57.8243 162.56 57.8243 162.597V164.186C57.8243 164.224 57.8319 164.254 57.8697 164.254C58.021 164.254 58.8833 164.254 59.0346 164.239C59.1934 164.224 59.2842 164.201 59.3523 164.141C59.4052 164.095 59.4279 164.057 59.4582 164.057C59.4884 164.057 59.5111 164.088 59.5111 164.125C59.5111 164.163 59.496 164.269 59.4582 164.594C59.4431 164.723 59.4279 164.98 59.4279 165.026C59.4279 165.078 59.4204 165.169 59.3598 165.169C59.3145 165.169 59.2993 165.147 59.2993 165.116C59.2918 165.048 59.2918 164.965 59.2766 164.882C59.2388 164.753 59.1556 164.655 58.906 164.632C58.785 164.617 58.0286 164.602 57.8622 164.602C57.8319 164.602 57.8243 164.632 57.8243 164.67V165.184C57.8243 165.404 57.8168 165.948 57.8243 166.137C57.8395 166.576 58.0437 166.675 58.7245 166.675C58.8984 166.675 59.1783 166.667 59.3523 166.591C59.5187 166.516 59.5943 166.38 59.6397 166.115C59.6548 166.047 59.67 166.016 59.7154 166.016C59.7683 166.016 59.7759 166.1 59.7759 166.168C59.7759 166.311 59.7229 166.75 59.6851 166.879C59.6397 167.045 59.5792 167.045 59.3296 167.045C58.8304 167.045 58.4295 167.038 58.1042 167.022C57.7789 167.015 57.5293 167.007 57.3327 167.007C57.257 167.007 57.1133 167.015 56.9545 167.015C56.7956 167.022 56.6292 167.03 56.4931 167.03C56.4098 167.03 56.3645 167.007 56.3645 166.962C56.3645 166.932 56.3872 166.894 56.4704 166.894C56.5687 166.894 56.6443 166.886 56.7048 166.871C56.841 166.841 56.8788 166.72 56.9015 166.531C56.9318 166.258 56.9318 165.752 56.9318 165.162ZM63.1432 165.404H61.5774C61.5396 165.404 61.532 165.411 61.5169 165.449L61.1614 166.319C61.0933 166.478 61.0631 166.637 61.0631 166.712C61.0631 166.826 61.1236 166.894 61.3278 166.894H61.4261C61.5094 166.894 61.5245 166.924 61.5245 166.962C61.5245 167.015 61.4867 167.03 61.4186 167.03C61.1992 167.03 60.8891 167.007 60.6773 167.007C60.6092 167.007 60.2537 167.03 59.9058 167.03C59.8226 167.03 59.7847 167.015 59.7847 166.962C59.7847 166.924 59.8074 166.894 59.8604 166.894C59.9209 166.894 59.9965 166.886 60.057 166.886C60.3596 166.841 60.4731 166.644 60.6092 166.319L62.349 162.302C62.4246 162.121 62.4776 162.045 62.5456 162.045C62.644 162.045 62.6742 162.106 62.7423 162.25C62.9011 162.605 64.0131 165.207 64.4367 166.183C64.6938 166.765 64.8829 166.848 65.004 166.871C65.1023 166.886 65.1779 166.894 65.2536 166.894C65.3141 166.894 65.3444 166.917 65.3444 166.962C65.3444 167.015 65.3065 167.03 65.0569 167.03C64.8224 167.03 64.3383 167.03 63.7786 167.015C63.6576 167.007 63.5819 167.007 63.5819 166.962C63.5819 166.924 63.597 166.901 63.6651 166.894C63.7105 166.886 63.7559 166.826 63.7256 166.75L63.2113 165.449C63.1961 165.411 63.1735 165.404 63.1432 165.404ZM61.7136 165.048H62.9995C63.0297 165.048 63.0373 165.033 63.0297 165.01L62.4019 163.399C62.3944 163.377 62.3868 163.339 62.3717 163.339C62.349 163.339 62.3414 163.377 62.3338 163.399L61.6909 165.003C61.6758 165.033 61.6909 165.048 61.7136 165.048ZM66.4593 165.162V162.56L65.4685 162.582C65.0827 162.59 64.9238 162.635 64.8255 162.779C64.7574 162.87 64.7272 162.953 64.712 162.998C64.6969 163.051 64.6818 163.082 64.6364 163.082C64.591 163.082 64.5759 163.044 64.5759 162.976C64.5759 162.87 64.7045 162.25 64.7196 162.197C64.7347 162.113 64.7574 162.076 64.7952 162.076C64.8482 162.076 64.9163 162.128 65.0827 162.151C65.2793 162.174 65.529 162.181 65.7483 162.181H68.4487C68.6605 162.181 68.8042 162.166 68.9026 162.151C69.0085 162.136 69.0614 162.121 69.0841 162.121C69.1295 162.121 69.137 162.159 69.137 162.257C69.137 162.393 69.1219 162.87 69.1219 163.036C69.1144 163.104 69.0992 163.142 69.0614 163.142C69.0085 163.142 68.9933 163.112 68.9858 163.013L68.9782 162.945C68.9631 162.779 68.7891 162.582 68.1915 162.575L67.3519 162.56V165.162C67.3519 165.752 67.3595 166.258 67.3897 166.538C67.4124 166.72 67.4502 166.841 67.6469 166.871C67.7377 166.886 67.889 166.894 67.9873 166.894C68.0629 166.894 68.0932 166.932 68.0932 166.962C68.0932 167.007 68.0402 167.03 67.9646 167.03C67.5259 167.03 67.0796 167.007 66.8905 167.007C66.7392 167.007 66.2854 167.03 66.0206 167.03C65.9374 167.03 65.892 167.007 65.892 166.962C65.892 166.932 65.9147 166.894 65.9979 166.894C66.0963 166.894 66.1795 166.886 66.2324 166.871C66.3686 166.841 66.4064 166.72 66.4291 166.531C66.4593 166.258 66.4593 165.752 66.4593 165.162ZM73.6272 165.691V165.071C73.6272 164.662 73.5516 164.496 73.4532 164.277C73.4003 164.156 72.3867 162.492 72.122 162.098C71.9329 161.818 71.7438 161.629 71.6 161.546C71.5017 161.493 71.3731 161.448 71.2824 161.448C71.2218 161.448 71.1689 161.433 71.1689 161.38C71.1689 161.334 71.2218 161.312 71.3126 161.312C71.4488 161.312 72.0161 161.334 72.2657 161.334C72.4245 161.334 72.7347 161.312 73.075 161.312C73.1507 161.312 73.1885 161.334 73.1885 161.38C73.1885 161.425 73.1356 161.433 73.0221 161.463C72.954 161.478 72.9162 161.538 72.9162 161.599C72.9162 161.66 72.954 161.75 73.007 161.856C73.1129 162.083 74.1718 163.906 74.2929 164.118C74.3685 163.936 75.3216 162.272 75.4275 162.038C75.5031 161.871 75.5334 161.743 75.5334 161.644C75.5334 161.569 75.5031 161.486 75.3745 161.455C75.3065 161.44 75.2384 161.425 75.2384 161.38C75.2384 161.327 75.2762 161.312 75.367 161.312C75.6166 161.312 75.8586 161.334 76.078 161.334C76.2444 161.334 76.7436 161.312 76.8874 161.312C76.9706 161.312 77.0235 161.327 77.0235 161.372C77.0235 161.425 76.963 161.448 76.8798 161.448C76.8041 161.448 76.6604 161.478 76.547 161.538C76.3881 161.614 76.3049 161.705 76.1385 161.909C75.8889 162.212 74.8299 163.989 74.6938 164.315C74.5803 164.587 74.5803 164.821 74.5803 165.071V165.691C74.5803 165.812 74.5803 166.13 74.603 166.448C74.6181 166.667 74.6862 166.833 74.9131 166.864C75.019 166.879 75.1854 166.894 75.2913 166.894C75.3745 166.894 75.4124 166.917 75.4124 166.954C75.4124 167.007 75.3518 167.03 75.2535 167.03C74.777 167.03 74.3004 167.007 74.0962 167.007C73.9071 167.007 73.4306 167.03 73.1507 167.03C73.0448 167.03 72.9843 167.015 72.9843 166.954C72.9843 166.917 73.0221 166.894 73.1053 166.894C73.2112 166.894 73.302 166.879 73.37 166.864C73.5213 166.833 73.5894 166.667 73.6045 166.448C73.6272 166.13 73.6272 165.812 73.6272 165.691ZM79.5822 167.113C77.6458 167.113 76.8592 165.737 76.8592 164.594C76.8592 163.498 77.6307 162.076 79.6503 162.076C81.3295 162.076 82.3734 163.006 82.3734 164.481C82.3734 165.956 81.2993 167.113 79.5822 167.113ZM79.8545 166.765C80.3235 166.765 81.3825 166.546 81.3825 164.715C81.3825 163.293 80.5277 162.416 79.4536 162.416C78.7124 162.416 77.8425 162.809 77.8425 164.398C77.8425 165.721 78.5989 166.765 79.8545 166.765ZM83.5545 164.973V164.027C83.5545 163.051 83.5621 162.87 83.547 162.666C83.5318 162.439 83.4713 162.378 83.2595 162.318C83.2066 162.302 83.0931 162.295 83.0023 162.295C82.9267 162.295 82.8889 162.272 82.8889 162.227C82.8889 162.181 82.9343 162.166 83.0326 162.166C83.3881 162.166 83.8344 162.181 84.0311 162.181C84.1975 162.181 84.6438 162.166 84.8858 162.166C84.9841 162.166 85.0295 162.181 85.0295 162.227C85.0295 162.272 84.9917 162.295 84.9236 162.295C84.848 162.295 84.8102 162.302 84.727 162.318C84.553 162.348 84.5 162.439 84.4849 162.666C84.4698 162.87 84.4698 163.051 84.4698 164.027V164.927C84.4698 165.865 84.6513 166.228 84.9766 166.485C85.2716 166.72 85.5893 166.743 85.8162 166.743C86.1036 166.743 86.444 166.659 86.7088 166.402C87.0794 166.054 87.0945 165.495 87.0945 164.836V164.027C87.0945 163.051 87.087 162.87 87.0794 162.666C87.0643 162.446 87.0113 162.378 86.7995 162.318C86.7466 162.302 86.6331 162.295 86.5575 162.295C86.4818 162.295 86.444 162.272 86.444 162.227C86.444 162.181 86.4894 162.166 86.5802 162.166C86.9205 162.166 87.3668 162.181 87.3744 162.181C87.45 162.181 87.8963 162.166 88.1535 162.166C88.2443 162.166 88.2897 162.181 88.2897 162.227C88.2897 162.272 88.2518 162.295 88.1762 162.295C88.1005 162.295 88.0627 162.302 87.9795 162.318C87.798 162.348 87.7526 162.439 87.7375 162.666C87.7299 162.87 87.7223 163.051 87.7223 164.027V164.715C87.7223 165.434 87.6467 166.19 87.087 166.652C86.618 167.045 86.1112 167.113 85.68 167.113C85.3321 167.113 84.6438 167.098 84.1597 166.675C83.8193 166.38 83.5545 165.903 83.5545 164.973ZM89.4412 165.162V164.027C89.4412 163.051 89.4412 162.87 89.4336 162.666C89.4185 162.446 89.358 162.378 89.1462 162.318C89.0932 162.302 88.9798 162.295 88.8814 162.295C88.8133 162.295 88.768 162.272 88.768 162.227C88.768 162.181 88.8209 162.166 88.9192 162.166C89.2672 162.166 89.6908 162.181 89.8269 162.181C90.0539 162.181 90.659 162.166 90.8632 162.166C91.2868 162.166 91.7709 162.204 92.1264 162.439C92.3155 162.567 92.5954 162.892 92.5954 163.324C92.5954 163.8 92.3231 164.224 91.6726 164.746C92.2626 165.472 92.7316 166.054 93.1325 166.455C93.5031 166.826 93.7376 166.856 93.8435 166.879C93.9116 166.894 93.9494 166.894 94.0023 166.894C94.0553 166.894 94.0855 166.932 94.0855 166.962C94.0855 167.015 94.0401 167.03 93.9569 167.03H93.3216C92.9509 167.03 92.7694 166.992 92.5954 166.901C92.308 166.758 92.0583 166.455 91.6877 165.956C91.423 165.608 91.1431 165.177 91.0599 165.078C91.0221 165.041 90.9842 165.033 90.9389 165.033L90.3413 165.018C90.311 165.018 90.2883 165.033 90.2883 165.071V165.162C90.2883 165.759 90.2959 166.258 90.3262 166.531C90.3489 166.72 90.3791 166.841 90.5833 166.871C90.6817 166.886 90.8254 166.894 90.9086 166.894C90.9616 166.894 90.9918 166.932 90.9918 166.962C90.9918 167.007 90.9389 167.03 90.8557 167.03C90.4699 167.03 89.9177 167.007 89.8194 167.007C89.6908 167.007 89.2672 167.03 89.0024 167.03C88.9192 167.03 88.8739 167.007 88.8739 166.962C88.8739 166.932 88.8966 166.894 88.9798 166.894C89.0781 166.894 89.1537 166.886 89.2142 166.871C89.3504 166.841 89.3882 166.72 89.4109 166.531C89.4412 166.258 89.4412 165.752 89.4412 165.162ZM90.2883 162.613V164.526C90.2883 164.594 90.3035 164.617 90.3489 164.64C90.4926 164.685 90.6892 164.7 90.8557 164.7C91.1204 164.7 91.2112 164.678 91.3246 164.594C91.5289 164.451 91.7558 164.171 91.7558 163.641C91.7558 162.734 91.1355 162.499 90.7422 162.499C90.5758 162.499 90.4169 162.507 90.3489 162.522C90.3035 162.537 90.2883 162.56 90.2883 162.613ZM97.7341 167.136C97.2954 167.136 96.955 167.083 96.6297 166.939C96.5087 166.886 96.486 166.848 96.486 166.682C96.486 166.266 96.5163 165.812 96.5238 165.691C96.5314 165.578 96.5541 165.495 96.6146 165.495C96.6827 165.495 96.6902 165.563 96.6902 165.623C96.6902 165.721 96.7205 165.88 96.7583 166.009C96.9247 166.569 97.371 166.773 97.84 166.773C98.5207 166.773 98.8536 166.311 98.8536 165.911C98.8536 165.54 98.7401 165.192 98.1123 164.7L97.7643 164.428C96.9323 163.777 96.6448 163.248 96.6448 162.635C96.6448 161.803 97.3407 161.206 98.3922 161.206C98.8838 161.206 99.2015 161.281 99.3982 161.334C99.4663 161.349 99.5041 161.372 99.5041 161.425C99.5041 161.523 99.4738 161.743 99.4738 162.333C99.4738 162.499 99.4511 162.56 99.3906 162.56C99.3377 162.56 99.315 162.514 99.315 162.423C99.315 162.355 99.2772 162.121 99.1183 161.924C99.0048 161.781 98.7855 161.554 98.2938 161.554C97.7341 161.554 97.3937 161.879 97.3937 162.333C97.3937 162.681 97.5677 162.945 98.1955 163.422L98.4073 163.581C99.3225 164.269 99.6478 164.791 99.6478 165.51C99.6478 165.948 99.4814 166.47 98.9368 166.826C98.5586 167.068 98.135 167.136 97.7341 167.136ZM103.294 167.113C101.358 167.113 100.571 165.737 100.571 164.594C100.571 163.498 101.342 162.076 103.362 162.076C105.041 162.076 106.085 163.006 106.085 164.481C106.085 165.956 105.011 167.113 103.294 167.113ZM103.566 166.765C104.035 166.765 105.094 166.546 105.094 164.715C105.094 163.293 104.239 162.416 103.165 162.416C102.424 162.416 101.554 162.809 101.554 164.398C101.554 165.721 102.311 166.765 103.566 166.765ZM107.266 164.973V164.027C107.266 163.051 107.274 162.87 107.259 162.666C107.244 162.439 107.183 162.378 106.971 162.318C106.918 162.302 106.805 162.295 106.714 162.295C106.638 162.295 106.601 162.272 106.601 162.227C106.601 162.181 106.646 162.166 106.744 162.166C107.1 162.166 107.546 162.181 107.743 162.181C107.909 162.181 108.355 162.166 108.597 162.166C108.696 162.166 108.741 162.181 108.741 162.227C108.741 162.272 108.703 162.295 108.635 162.295C108.56 162.295 108.522 162.302 108.439 162.318C108.265 162.348 108.212 162.439 108.197 162.666C108.181 162.87 108.181 163.051 108.181 164.027V164.927C108.181 165.865 108.363 166.228 108.688 166.485C108.983 166.72 109.301 166.743 109.528 166.743C109.815 166.743 110.156 166.659 110.42 166.402C110.791 166.054 110.806 165.495 110.806 164.836V164.027C110.806 163.051 110.799 162.87 110.791 162.666C110.776 162.446 110.723 162.378 110.511 162.318C110.458 162.302 110.345 162.295 110.269 162.295C110.194 162.295 110.156 162.272 110.156 162.227C110.156 162.181 110.201 162.166 110.292 162.166C110.632 162.166 111.079 162.181 111.086 162.181C111.162 162.181 111.608 162.166 111.865 162.166C111.956 162.166 112.001 162.181 112.001 162.227C112.001 162.272 111.964 162.295 111.888 162.295C111.812 162.295 111.774 162.302 111.691 162.318C111.51 162.348 111.464 162.439 111.449 162.666C111.442 162.87 111.434 163.051 111.434 164.027V164.715C111.434 165.434 111.358 166.19 110.799 166.652C110.33 167.045 109.823 167.113 109.392 167.113C109.044 167.113 108.355 167.098 107.871 166.675C107.531 166.38 107.266 165.903 107.266 164.973ZM114.045 164.027V165.162C114.045 165.986 114.045 166.395 114.189 166.516C114.303 166.614 114.56 166.652 115.074 166.652C115.43 166.652 115.687 166.644 115.853 166.47C115.936 166.387 116.005 166.206 116.02 166.085C116.027 166.024 116.042 165.986 116.095 165.986C116.141 165.986 116.156 166.054 116.156 166.13C116.156 166.206 116.11 166.682 116.057 166.871C116.012 167.015 115.982 167.045 115.634 167.045C115.157 167.045 114.772 167.038 114.439 167.022C114.106 167.015 113.826 167.007 113.554 167.007C113.478 167.007 113.334 167.015 113.176 167.015C113.017 167.022 112.85 167.03 112.714 167.03C112.631 167.03 112.586 167.007 112.586 166.962C112.586 166.932 112.608 166.894 112.691 166.894C112.79 166.894 112.865 166.886 112.926 166.871C113.062 166.841 113.1 166.72 113.123 166.531C113.153 166.258 113.153 165.752 113.153 165.162V164.027C113.153 163.051 113.153 162.87 113.145 162.666C113.13 162.446 113.07 162.378 112.858 162.318C112.805 162.302 112.722 162.295 112.639 162.295C112.563 162.295 112.525 162.272 112.525 162.227C112.525 162.181 112.57 162.166 112.669 162.166C112.979 162.166 113.402 162.181 113.584 162.181C113.743 162.181 114.287 162.166 114.545 162.166C114.643 162.166 114.688 162.181 114.688 162.227C114.688 162.272 114.651 162.295 114.567 162.295C114.492 162.295 114.386 162.302 114.31 162.318C114.129 162.348 114.076 162.439 114.061 162.666C114.045 162.87 114.045 163.051 114.045 164.027ZM121.447 165.404H119.882C119.844 165.404 119.836 165.411 119.821 165.449L119.466 166.319C119.398 166.478 119.367 166.637 119.367 166.712C119.367 166.826 119.428 166.894 119.632 166.894H119.73C119.814 166.894 119.829 166.924 119.829 166.962C119.829 167.015 119.791 167.03 119.723 167.03C119.503 167.03 119.193 167.007 118.981 167.007C118.913 167.007 118.558 167.03 118.21 167.03C118.127 167.03 118.089 167.015 118.089 166.962C118.089 166.924 118.112 166.894 118.165 166.894C118.225 166.894 118.301 166.886 118.361 166.886C118.664 166.841 118.777 166.644 118.913 166.319L120.653 162.302C120.729 162.121 120.782 162.045 120.85 162.045C120.948 162.045 120.978 162.106 121.046 162.25C121.205 162.605 122.317 165.207 122.741 166.183C122.998 166.765 123.187 166.848 123.308 166.871C123.406 166.886 123.482 166.894 123.558 166.894C123.618 166.894 123.649 166.917 123.649 166.962C123.649 167.015 123.611 167.03 123.361 167.03C123.127 167.03 122.643 167.03 122.083 167.015C121.962 167.007 121.886 167.007 121.886 166.962C121.886 166.924 121.901 166.901 121.969 166.894C122.015 166.886 122.06 166.826 122.03 166.75L121.515 165.449C121.5 165.411 121.478 165.404 121.447 165.404ZM120.018 165.048H121.304C121.334 165.048 121.341 165.033 121.334 165.01L120.706 163.399C120.699 163.377 120.691 163.339 120.676 163.339C120.653 163.339 120.646 163.377 120.638 163.399L119.995 165.003C119.98 165.033 119.995 165.048 120.018 165.048ZM124.714 163.528L124.789 166.153C124.805 166.652 124.888 166.803 125.016 166.848C125.13 166.886 125.258 166.894 125.364 166.894C125.44 166.894 125.478 166.924 125.478 166.962C125.478 167.015 125.417 167.03 125.327 167.03C124.895 167.03 124.585 167.007 124.464 167.007C124.404 167.007 124.086 167.03 123.746 167.03C123.655 167.03 123.594 167.022 123.594 166.962C123.594 166.924 123.64 166.894 123.7 166.894C123.791 166.894 123.912 166.886 124.003 166.864C124.177 166.818 124.199 166.644 124.207 166.085L124.268 162.272C124.268 162.144 124.313 162.053 124.381 162.053C124.464 162.053 124.555 162.151 124.668 162.265C124.752 162.348 125.75 163.369 126.718 164.315C127.172 164.761 128.057 165.668 128.155 165.759H128.186L128.118 162.9C128.11 162.507 128.05 162.393 127.891 162.333C127.792 162.295 127.634 162.295 127.543 162.295C127.46 162.295 127.437 162.265 127.437 162.227C127.437 162.174 127.505 162.166 127.603 162.166C127.951 162.166 128.307 162.181 128.45 162.181C128.526 162.181 128.776 162.166 129.101 162.166C129.192 162.166 129.252 162.174 129.252 162.227C129.252 162.265 129.214 162.295 129.139 162.295C129.071 162.295 129.018 162.295 128.935 162.318C128.753 162.371 128.7 162.484 128.693 162.847L128.617 166.901C128.617 167.045 128.564 167.106 128.511 167.106C128.398 167.106 128.307 167.038 128.239 166.97C127.823 166.584 126.991 165.79 126.295 165.116C125.569 164.42 124.865 163.641 124.737 163.528H124.714ZM130.733 165.162V164.027C130.733 163.051 130.733 162.87 130.726 162.666C130.711 162.446 130.65 162.378 130.438 162.318C130.386 162.302 130.272 162.295 130.174 162.295C130.106 162.295 130.06 162.272 130.06 162.227C130.06 162.181 130.113 162.166 130.212 162.166C130.56 162.166 130.983 162.181 131.172 162.181C131.376 162.181 131.853 162.166 132.254 162.166C133.086 162.166 134.205 162.166 134.932 162.9C135.264 163.233 135.559 163.77 135.559 164.534C135.559 165.343 135.211 165.956 134.833 166.327C134.531 166.629 133.827 167.083 132.602 167.083C132.36 167.083 132.072 167.06 131.808 167.045C131.543 167.022 131.301 167.007 131.134 167.007C131.059 167.007 130.915 167.015 130.756 167.015C130.597 167.022 130.431 167.03 130.295 167.03C130.212 167.03 130.166 167.007 130.166 166.962C130.166 166.932 130.189 166.894 130.272 166.894C130.37 166.894 130.446 166.886 130.507 166.871C130.643 166.841 130.681 166.72 130.703 166.531C130.733 166.258 130.733 165.752 130.733 165.162ZM131.626 163.929V164.738C131.626 165.419 131.634 165.911 131.641 166.039C131.649 166.198 131.664 166.425 131.717 166.493C131.8 166.614 132.065 166.75 132.587 166.75C133.192 166.75 133.638 166.644 134.039 166.311C134.47 165.956 134.606 165.381 134.606 164.715C134.606 163.898 134.281 163.369 133.986 163.112C133.373 162.567 132.647 162.499 132.125 162.499C131.989 162.499 131.77 162.514 131.717 162.545C131.656 162.567 131.634 162.597 131.634 162.673C131.626 162.892 131.626 163.422 131.626 163.929ZM139.439 164.836V163.505C139.439 162.355 139.439 162.144 139.424 161.902C139.408 161.644 139.348 161.523 139.098 161.47C139.038 161.455 138.909 161.448 138.803 161.448C138.72 161.448 138.675 161.433 138.675 161.38C138.675 161.327 138.728 161.312 138.841 161.312C139.242 161.312 139.719 161.334 139.87 161.334C140.241 161.334 140.536 161.312 140.793 161.312C142.162 161.312 142.404 162.045 142.404 162.446C142.404 163.066 142.048 163.437 141.632 163.77C142.253 163.982 143.009 164.519 143.009 165.404C143.009 166.213 142.381 167.053 140.989 167.053C140.899 167.053 140.679 167.038 140.46 167.03C140.233 167.015 140.006 167.007 139.893 167.007C139.809 167.007 139.643 167.007 139.461 167.015C139.287 167.015 139.091 167.03 138.939 167.03C138.841 167.03 138.788 167.007 138.788 166.954C138.788 166.917 138.818 166.894 138.909 166.894C139.023 166.894 139.113 166.879 139.182 166.864C139.333 166.833 139.371 166.667 139.401 166.448C139.439 166.13 139.439 165.532 139.439 164.836ZM140.346 161.765V163.634C140.346 163.694 140.369 163.709 140.399 163.717C140.467 163.732 140.581 163.74 140.755 163.74C141.004 163.74 141.171 163.709 141.299 163.596C141.496 163.437 141.61 163.165 141.61 162.794C141.61 162.287 141.315 161.622 140.664 161.622C140.558 161.622 140.49 161.622 140.414 161.637C140.362 161.652 140.346 161.682 140.346 161.765ZM142.079 165.744C142.079 165.275 141.92 164.64 141.345 164.239C141.186 164.125 141.012 164.072 140.717 164.057C140.581 164.05 140.505 164.05 140.392 164.05C140.362 164.05 140.346 164.065 140.346 164.103V165.895C140.346 166.395 140.369 166.523 140.611 166.622C140.815 166.705 140.989 166.712 141.163 166.712C141.504 166.712 142.079 166.531 142.079 165.744ZM146.485 167.113C144.548 167.113 143.762 165.737 143.762 164.594C143.762 163.498 144.533 162.076 146.553 162.076C148.232 162.076 149.276 163.006 149.276 164.481C149.276 165.956 148.202 167.113 146.485 167.113ZM146.757 166.765C147.226 166.765 148.285 166.546 148.285 164.715C148.285 163.293 147.43 162.416 146.356 162.416C145.615 162.416 144.745 162.809 144.745 164.398C144.745 165.721 145.501 166.765 146.757 166.765ZM150.515 165.162V164.027C150.515 163.051 150.515 162.87 150.508 162.666C150.493 162.446 150.432 162.378 150.22 162.318C150.167 162.302 150.054 162.295 149.956 162.295C149.888 162.295 149.842 162.272 149.842 162.227C149.842 162.181 149.895 162.166 149.993 162.166C150.341 162.166 150.765 162.181 150.954 162.181C151.158 162.181 151.635 162.166 152.036 162.166C152.868 162.166 153.987 162.166 154.713 162.9C155.046 163.233 155.341 163.77 155.341 164.534C155.341 165.343 154.993 165.956 154.615 166.327C154.313 166.629 153.609 167.083 152.384 167.083C152.142 167.083 151.854 167.06 151.589 167.045C151.325 167.022 151.083 167.007 150.916 167.007C150.841 167.007 150.697 167.015 150.538 167.015C150.379 167.022 150.213 167.03 150.077 167.03C149.993 167.03 149.948 167.007 149.948 166.962C149.948 166.932 149.971 166.894 150.054 166.894C150.152 166.894 150.228 166.886 150.288 166.871C150.425 166.841 150.462 166.72 150.485 166.531C150.515 166.258 150.515 165.752 150.515 165.162ZM151.408 163.929V164.738C151.408 165.419 151.416 165.911 151.423 166.039C151.431 166.198 151.446 166.425 151.499 166.493C151.582 166.614 151.847 166.75 152.369 166.75C152.974 166.75 153.42 166.644 153.821 166.311C154.252 165.956 154.388 165.381 154.388 164.715C154.388 163.898 154.063 163.369 153.768 163.112C153.155 162.567 152.429 162.499 151.907 162.499C151.771 162.499 151.552 162.514 151.499 162.545C151.438 162.567 151.416 162.597 151.416 162.673C151.408 162.892 151.408 163.422 151.408 163.929ZM157.52 165.888V165.358C157.52 165.01 157.46 164.874 157.369 164.685C157.323 164.587 156.416 163.172 156.181 162.832C156.015 162.597 155.879 162.446 155.75 162.378C155.667 162.333 155.553 162.295 155.47 162.295C155.417 162.295 155.372 162.272 155.372 162.227C155.372 162.181 155.417 162.166 155.501 162.166C155.614 162.166 156.113 162.181 156.333 162.181C156.476 162.181 156.786 162.166 157.089 162.166C157.15 162.166 157.187 162.181 157.187 162.227C157.187 162.28 157.142 162.28 157.036 162.31C156.983 162.325 156.945 162.355 156.945 162.408C156.945 162.461 156.976 162.537 157.028 162.628C157.15 162.824 158.019 164.33 158.133 164.511C158.216 164.36 159.025 162.983 159.124 162.787C159.192 162.643 159.222 162.529 159.222 162.446C159.222 162.386 159.192 162.325 159.078 162.302C159.018 162.287 158.957 162.28 158.957 162.227C158.957 162.181 158.995 162.166 159.071 162.166C159.29 162.166 159.525 162.181 159.721 162.181C159.865 162.181 160.304 162.166 160.432 162.166C160.508 162.166 160.553 162.181 160.553 162.219C160.553 162.265 160.5 162.295 160.425 162.295C160.357 162.295 160.236 162.325 160.137 162.371C159.994 162.439 159.933 162.499 159.789 162.673C159.57 162.93 158.617 164.458 158.496 164.731C158.398 164.965 158.413 165.162 158.413 165.373V165.888C158.413 165.994 158.413 166.258 158.428 166.531C158.443 166.72 158.503 166.841 158.7 166.871C158.798 166.886 158.942 166.894 159.033 166.894C159.109 166.894 159.146 166.932 159.146 166.962C159.146 167.007 159.093 167.03 159.003 167.03C158.587 167.03 158.14 167.007 157.959 167.007C157.792 167.007 157.346 167.03 157.097 167.03C157.006 167.03 156.953 167.015 156.953 166.962C156.953 166.932 156.983 166.894 157.059 166.894C157.15 166.894 157.233 166.886 157.293 166.871C157.429 166.841 157.482 166.72 157.497 166.531C157.52 166.258 157.52 165.994 157.52 165.888ZM161.91 161.153C161.91 161.607 161.434 162.401 161.094 162.749C161.048 162.787 161.01 162.802 160.973 162.802C160.95 162.802 160.927 162.787 160.927 162.764C160.927 162.741 160.942 162.718 160.973 162.666C161.124 162.416 161.26 161.97 161.26 161.508C161.26 161.259 161.146 161.054 161.078 160.994C161.003 160.918 160.995 160.896 160.995 160.858C160.995 160.835 161.048 160.805 161.078 160.805C161.222 160.805 161.555 160.903 161.691 160.941C161.88 161.001 161.91 161.039 161.91 161.153ZM162.395 161.508C162.395 161.259 162.281 161.054 162.213 160.994C162.137 160.918 162.13 160.896 162.13 160.858C162.13 160.835 162.183 160.805 162.213 160.805C162.357 160.805 162.69 160.903 162.826 160.941C163.015 161.001 163.045 161.039 163.045 161.153C163.045 161.607 162.576 162.408 162.236 162.749C162.19 162.787 162.153 162.802 162.115 162.802C162.092 162.802 162.069 162.787 162.069 162.764C162.069 162.741 162.077 162.718 162.107 162.666C162.258 162.416 162.395 161.97 162.395 161.508Z" fill="#CBA437"/>
<defs>
<filter id="filter0_dddd_100_2770" x="40.1064" y="27.0103" width="122.445" height="105.7" filterUnits="userSpaceOnUse" color-interpolation-filters="sRGB">
<feFlood flood-opacity="0" result="BackgroundImageFix"/>
<feColorMatrix in="SourceAlpha" type="matrix" values="0 0 0 0 0 0 0 0 0 0 0 0 0 0 0 0 0 0 127 0" result="hardAlpha"/>
<feOffset dx="0.866811"/>
<feGaussianBlur stdDeviation="0.216703"/>
<feComposite in2="hardAlpha" operator="out"/>
<feColorMatrix type="matrix" values="0 0 0 0 0.811765 0 0 0 0 0.658824 0 0 0 0 0.215686 0 0 0 1 0"/>
<feBlend mode="normal" in2="BackgroundImageFix" result="effect1_dropShadow_100_2770"/>
<feColorMatrix in="SourceAlpha" type="matrix" values="0 0 0 0 0 0 0 0 0 0 0 0 0 0 0 0 0 0 127 0" result="hardAlpha"/>
<feOffset dy="0.866811"/>
<feGaussianBlur stdDeviation="0.216703"/>
<feComposite in2="hardAlpha" operator="out"/>
<feColorMatrix type="matrix" values="0 0 0 0 0.819608 0 0 0 0 0.67451 0 0 0 0 0.215686 0 0 0 1 0"/>
<feBlend mode="normal" in2="effect1_dropShadow_100_2770" result="effect2_dropShadow_100_2770"/>
<feColorMatrix in="SourceAlpha" type="matrix" values="0 0 0 0 0 0 0 0 0 0 0 0 0 0 0 0 0 0 127 0" result="hardAlpha"/>
<feOffset dx="-0.866811"/>
<feGaussianBlur stdDeviation="0.216703"/>
<feComposite in2="hardAlpha" operator="out"/>
<feColorMatrix type="matrix" values="0 0 0 0 0.768627 0 0 0 0 0.607843 0 0 0 0 0.219608 0 0 0 1 0"/>
<feBlend mode="normal" in2="effect2_dropShadow_100_2770" result="effect3_dropShadow_100_2770"/>
<feColorMatrix in="SourceAlpha" type="matrix" values="0 0 0 0 0 0 0 0 0 0 0 0 0 0 0 0 0 0 127 0" result="hardAlpha"/>
<feOffset dy="-0.866811"/>
<feGaussianBlur stdDeviation="0.216703"/>
<feComposite in2="hardAlpha" operator="out"/>
<feColorMatrix type="matrix" values="0 0 0 0 0.768627 0 0 0 0 0.607843 0 0 0 0 0.219608 0 0 0 1 0"/>
<feBlend mode="normal" in2="effect3_dropShadow_100_2770" result="effect4_dropShadow_100_2770"/>
<feBlend mode="normal" in="SourceGraphic" in2="effect4_dropShadow_100_2770" result="shape"/>
</filter>
<linearGradient id="paint0_linear_100_2770" x1="82.1714" y1="48.3486" x2="125.986" y2="93.0302" gradientUnits="userSpaceOnUse">
<stop stop-color="#D4AF37"/>
<stop offset="1" stop-color="#C49A3A"/>
</linearGradient>
<linearGradient id="paint1_linear_100_2770" x1="135.546" y1="68.9972" x2="122.639" y2="124.905" gradientUnits="userSpaceOnUse">
<stop stop-color="#D4AF37"/>
<stop offset="1" stop-color="#C49A3A"/>
</linearGradient>
<linearGradient id="paint2_linear_100_2770" x1="113.181" y1="57.3209" x2="128.433" y2="112.512" gradientUnits="userSpaceOnUse">
<stop stop-color="#D4AF37"/>
<stop offset="1" stop-color="#C49A3A"/>
</linearGradient>
<linearGradient id="paint3_linear_100_2770" x1="89.3662" y1="57.3209" x2="74.1137" y2="112.512" gradientUnits="userSpaceOnUse">
<stop stop-color="#D4AF37"/>
<stop offset="1" stop-color="#C49A3A"/>
</linearGradient>
<linearGradient id="paint4_linear_100_2770" x1="67.1121" y1="68.9972" x2="80.0185" y2="124.905" gradientUnits="userSpaceOnUse">
<stop stop-color="#D4AF37"/>
<stop offset="1" stop-color="#C49A3A"/>
</linearGradient>
</defs>
</svg>
