<svg width="74" height="64" viewBox="0 0 74 64" fill="none" xmlns="http://www.w3.org/2000/svg">
<g filter="url(#filter0_dddd_100_2759)">
<path d="M29.265 25.6278C29.5193 20.6066 32.0805 15.7549 36.3552 12.1425C39.662 14.5643 42.7751 19.2852 43.5452 24.5757C43.9467 27.3337 43.71 30.2316 42.548 33.0472C41.4483 35.7117 39.4949 38.3569 36.3722 40.7574C31.0571 36.0544 29.0106 30.6533 29.265 25.6278Z" stroke="url(#paint0_linear_100_2759)" stroke-width="1.9589" stroke-linecap="round" stroke-linejoin="round"/>
<path d="M43.5861 28.7629C47.1762 26.5919 51.9039 26.355 56.5337 27.823C56.7105 31.7939 54.9742 36.8814 51.6603 40.233C49.9272 41.9857 47.7925 43.2327 45.3142 43.6221C42.9811 43.9886 40.2708 43.6054 37.2043 42.0613C37.3535 35.1799 39.9795 30.9441 43.5861 28.7629Z" stroke="url(#paint1_linear_100_2759)" stroke-width="1.9589" stroke-linecap="round" stroke-linejoin="round"/>
<path d="M37.4714 26.6528C39.8739 22.9616 44.0499 20.4663 48.7955 19.5581C50.4854 23.0543 50.8801 28.4801 49.1828 33.1012C48.2953 35.5176 46.8515 37.6722 44.765 39.2191C42.8001 40.6759 40.2049 41.6382 36.841 41.7236C34.323 35.4452 35.059 30.3594 37.4714 26.6528Z" stroke="url(#paint2_linear_100_2759)" stroke-width="1.9589" stroke-linecap="round" stroke-linejoin="round"/>
<path d="M35.2044 26.6528C32.8019 22.9616 28.6259 20.4663 23.8802 19.5581C22.1903 23.0543 21.7957 28.4801 23.4929 33.1012C24.3805 35.5176 25.8243 37.6722 27.9107 39.2191C29.8757 40.6759 32.4708 41.6382 35.8348 41.7236C38.3528 35.4452 37.6167 30.3594 35.2044 26.6528Z" stroke="url(#paint3_linear_100_2759)" stroke-width="1.9589" stroke-linecap="round" stroke-linejoin="round"/>
<path d="M29.1297 28.7629C25.5396 26.5919 20.8119 26.355 16.182 27.823C16.0053 31.7939 17.7416 36.8814 21.0555 40.233C22.7886 41.9857 24.9232 43.2327 27.4016 43.6221C29.7347 43.9886 32.445 43.6054 35.5115 42.0613C35.3623 35.1799 32.7363 30.9441 29.1297 28.7629Z" stroke="url(#paint4_linear_100_2759)" stroke-width="1.9589" stroke-linecap="round" stroke-linejoin="round"/>
<ellipse cx="36.2833" cy="19.325" rx="1.58731" ry="1.58634" fill="#D4AF37"/>
</g>
<path d="M11.4397 42.4254C11.7565 42.8283 11.8927 43.2841 11.8482 43.7927C11.8538 44.0484 11.8204 44.3 11.7482 44.5473C11.6703 44.7891 11.5953 44.9475 11.523 45.0226C11.473 45.0754 11.4188 45.1073 11.3605 45.1185C11.2993 45.1185 11.2368 45.1004 11.1729 45.0643C11.0867 45.0226 11.0089 44.9809 10.9394 44.9392C10.9366 44.9364 10.9213 44.9281 10.8935 44.9142C10.8685 44.8975 10.8491 44.885 10.8352 44.8767C10.8213 44.8683 10.8018 44.8558 10.7768 44.8391C10.7546 44.8225 10.7365 44.8072 10.7226 44.7933C10.7115 44.7794 10.699 44.7641 10.6851 44.7474C10.674 44.728 10.6684 44.7099 10.6684 44.6932C10.6656 44.6571 10.674 44.6237 10.6934 44.5932C10.7157 44.5598 10.7504 44.5209 10.7977 44.4764C10.8449 44.4292 10.8713 44.4028 10.8769 44.3972C10.9436 44.3278 11.0117 44.2416 11.0811 44.1388C11.3368 43.783 11.4675 43.387 11.473 42.9506C11.473 42.9367 11.4702 42.9173 11.4647 42.8923C11.4591 42.8673 11.4563 42.8506 11.4563 42.8422C11.4508 42.7811 11.4452 42.738 11.4397 42.713C11.4146 42.6241 11.3743 42.5407 11.3188 42.4629C11.0381 42.0932 10.6795 42.1933 10.2432 42.763C9.75682 43.4717 9.52614 44.2569 9.55115 45.1185C9.55115 45.4853 9.59562 45.8661 9.68456 46.2607C9.77627 46.6526 9.89022 47.0264 10.0264 47.3822C10.1654 47.7379 10.3057 48.0895 10.4475 48.4369C10.5892 48.7843 10.7198 49.1553 10.8393 49.55C10.9588 49.9419 11.0367 50.3129 11.0728 50.6631C11.1117 51.0244 11.0811 51.3787 10.9811 51.7261C10.8838 52.0708 10.7421 52.3807 10.5559 52.6558C10.3696 52.9309 10.139 53.1964 9.86382 53.4521C9.58867 53.7077 9.30936 53.9287 9.02588 54.1149C8.74239 54.3011 8.43806 54.4762 8.11289 54.6402C7.76826 54.8153 7.42085 54.964 7.07067 55.0863C6.72048 55.2085 6.34667 55.3072 5.94924 55.3822C5.5518 55.4573 5.15854 55.4698 4.76944 55.4198C4.38313 55.3697 4.03572 55.2516 3.72722 55.0654C3.68275 55.0404 3.64523 55.0154 3.61466 54.9904C3.58687 54.9654 3.56742 54.9445 3.5563 54.9278C3.54518 54.9139 3.5424 54.9028 3.54796 54.8945C3.14219 54.6277 2.87121 54.2622 2.73503 53.7981C2.42097 52.6558 2.79061 51.2245 3.84395 49.5041C4.20803 48.8704 4.66105 48.3063 5.20301 47.8116C5.35865 47.6392 5.54625 47.5156 5.76581 47.4405C5.98537 47.3627 6.2091 47.3446 6.437 47.3863C6.68991 47.4725 6.9192 47.6003 7.12486 47.7699C7.21102 47.8393 7.26244 47.8991 7.27911 47.9491C7.29023 47.9825 7.26383 47.9922 7.1999 47.9783C7.19435 47.9755 7.19018 47.9741 7.1874 47.9741C7.1207 47.9575 7.04288 47.9658 6.95394 47.9992C6.865 48.0297 6.76356 48.0867 6.64961 48.1701C6.53844 48.2535 6.45506 48.3188 6.39948 48.366C6.34667 48.4105 6.26885 48.48 6.16602 48.5745C6.15768 48.5828 6.15073 48.5897 6.14518 48.5953C6.13962 48.5981 6.13406 48.6023 6.1285 48.6078C5.08906 49.5444 4.27196 50.6422 3.6772 51.9012C3.59938 52.0735 3.5299 52.2445 3.46875 52.414C3.41039 52.5835 3.3548 52.7711 3.302 52.9768C3.24919 53.1825 3.21862 53.3798 3.21028 53.5688C3.20472 53.7578 3.21723 53.9426 3.2478 54.1232C3.27837 54.3039 3.34646 54.4707 3.45208 54.6235C3.56047 54.7764 3.70082 54.9042 3.87313 55.007C4.03433 55.0849 4.22332 55.1293 4.4401 55.1405C4.65688 55.1543 4.86811 55.1418 5.07377 55.1029C5.28222 55.0668 5.50317 55.0112 5.73663 54.9362C5.97008 54.8611 6.17436 54.7861 6.34945 54.7111C6.52454 54.636 6.69825 54.5554 6.87056 54.4693C7.68766 54.0524 8.37414 53.4729 8.92999 52.7308C9.2774 52.3251 9.52892 51.8651 9.68456 51.3509C9.84298 50.8368 9.89161 50.3143 9.83047 49.7834C9.56644 48.7162 9.21903 47.6629 8.78825 46.6234C8.46863 45.7619 8.37414 44.8753 8.50476 43.9637C8.55757 43.7024 8.64373 43.4453 8.76324 43.1924C8.88552 42.9367 9.05228 42.7019 9.2635 42.4879C9.47473 42.2739 9.7054 42.1349 9.95554 42.071C10.1862 42.0154 10.4197 42.0085 10.6559 42.0502C10.8921 42.0891 11.1103 42.1738 11.3104 42.3045C11.3521 42.3378 11.3896 42.3753 11.423 42.417C11.4258 42.4198 11.4285 42.4212 11.4313 42.4212C11.4341 42.4212 11.4369 42.4226 11.4397 42.4254ZM15.6794 49.4332C15.7489 49.5138 15.7975 49.5986 15.8253 49.6876C15.8531 49.7737 15.8587 49.871 15.842 49.9794C15.8253 50.085 15.8073 50.1725 15.7878 50.242C15.7711 50.3087 15.7364 50.4074 15.6836 50.538C15.6336 50.6686 15.6016 50.7562 15.5877 50.8006C15.3987 51.3704 15.1611 51.9137 14.8748 52.4307C14.7553 52.6919 14.5913 52.9045 14.3829 53.0685C14.155 53.1908 13.9215 53.1936 13.6825 53.0769C13.3379 52.9462 13.0197 52.7864 12.7278 52.5974C12.6334 52.5391 12.5472 52.4807 12.4694 52.4223C12.4527 52.4724 12.4124 52.5891 12.3485 52.7725C12.2846 52.9532 12.2345 53.0935 12.1984 53.1936C12.0205 53.6688 11.794 54.2455 11.5189 54.9237C11.4911 54.9904 11.4438 55.0988 11.3771 55.2488C11.3076 55.4017 11.2535 55.5254 11.2145 55.6199C11.1729 55.7171 11.1326 55.838 11.0936 55.9826C11.0547 56.1271 11.0367 56.2522 11.0394 56.3578C11.0422 56.4634 11.07 56.5745 11.1228 56.6913C11.1729 56.808 11.2521 56.9094 11.3605 56.9956C11.4244 57.0456 11.4285 57.0651 11.373 57.054C11.2757 57.0317 11.1534 56.9803 11.0061 56.8997C10.9922 56.8914 10.9825 56.8858 10.9769 56.883C10.7685 56.7385 10.6073 56.5732 10.4933 56.3869C10.3766 56.2007 10.3057 56.0006 10.2807 55.7866C10.2557 55.5754 10.2571 55.3656 10.2849 55.1571C10.3127 54.9487 10.3655 54.7222 10.4433 54.4776C10.4683 54.397 10.5434 54.1538 10.6684 53.748C10.7935 53.3451 10.8921 53.0366 10.9644 52.8226C11.5786 51.0299 12.122 49.568 12.5944 48.4369C12.6083 48.4008 12.7084 48.4202 12.8946 48.4953C13.0808 48.5703 13.2587 48.6662 13.4282 48.7829C13.6005 48.8969 13.6756 48.9858 13.6533 49.0497C13.5116 49.4416 13.374 49.8335 13.2406 50.2253C13.5602 49.6917 13.9285 49.1748 14.3454 48.6745C14.3898 48.6245 14.5358 48.6787 14.7831 48.8371C14.8137 48.8566 14.8623 48.8885 14.929 48.933C15.2181 49.0442 15.4682 49.2109 15.6794 49.4332ZM12.6403 52.3265C12.6125 52.3098 12.5861 52.2959 12.5611 52.2848C12.5861 52.2959 12.6097 52.307 12.632 52.3181L12.6403 52.3265ZM14.7456 49.4458V49.4499C14.7901 49.3499 14.8053 49.2498 14.7914 49.1498C14.6831 49.2081 14.5886 49.2721 14.508 49.3415C14.3857 49.4416 14.255 49.5611 14.1161 49.7001C13.8771 49.9502 13.6617 50.2017 13.4699 50.4546C13.406 50.5408 13.3087 50.67 13.1781 50.8423C13.0502 51.0119 12.9544 51.1397 12.8904 51.2259C12.8126 51.4538 12.6931 51.7956 12.5319 52.2514C12.5458 52.257 12.5653 52.2681 12.5903 52.2848C12.6181 52.3014 12.6389 52.3139 12.6528 52.3223C12.6695 52.3306 12.6903 52.3431 12.7153 52.3598C12.7431 52.3765 12.7612 52.3862 12.7695 52.389C12.7807 52.3945 12.8001 52.4015 12.8279 52.4098C12.8557 52.4182 12.8751 52.4251 12.8863 52.4307C12.8779 52.4307 12.8779 52.4321 12.8863 52.4348C12.9141 52.4376 12.9335 52.439 12.9446 52.439H12.9488H12.953H12.9571H12.9613H12.9696H12.9738H12.978H12.9863H12.9905H13.0322C13.1433 52.414 13.2378 52.3584 13.3157 52.2723C13.6631 51.872 13.9285 51.4315 14.1119 50.9507C14.362 50.4032 14.5733 49.9016 14.7456 49.4458ZM19.5648 50.4838C19.5454 50.5338 19.4926 50.6117 19.4064 50.7173C19.323 50.8229 19.2744 50.9104 19.2605 50.9799C19.241 51.0772 19.2383 51.1842 19.2522 51.3009C19.2577 51.3259 19.2716 51.3634 19.2938 51.4135L19.3105 51.4635L19.3063 51.4593C19.3453 51.5094 19.3341 51.5288 19.273 51.5177C19.2313 51.5094 19.191 51.4955 19.1521 51.476C19.0493 51.4343 18.945 51.3815 18.8394 51.3176C18.7366 51.2509 18.6379 51.1717 18.5434 51.08C18.4489 50.9855 18.3725 50.8896 18.3142 50.7923C18.2586 50.6923 18.2322 50.5839 18.2349 50.4671C18.2377 50.3476 18.2794 50.2337 18.36 50.1253C18.4406 50.0363 18.5059 49.9391 18.5559 49.8335C18.5893 49.7473 18.6199 49.6445 18.6477 49.525C18.6338 49.5389 18.606 49.5625 18.5643 49.5958C18.5254 49.6292 18.4962 49.6556 18.4767 49.675C18.2433 49.9085 18.0223 50.1656 17.8139 50.4463C17.7527 50.5241 17.6624 50.6436 17.5429 50.8048C17.4234 50.9632 17.3345 51.0827 17.2761 51.1633C17.2122 51.3551 17.1427 51.526 17.0677 51.6761C17.0565 51.6956 17.0274 51.7498 16.9801 51.8387C16.9329 51.9276 16.9009 51.9888 16.8842 52.0221C16.8703 52.0527 16.8453 52.1111 16.8092 52.1972C16.7731 52.2806 16.7508 52.3445 16.7425 52.389C16.7341 52.4307 16.7258 52.489 16.7175 52.5641C16.7091 52.6363 16.7133 52.6975 16.73 52.7475C16.7467 52.7975 16.7717 52.8517 16.805 52.9101C16.8411 52.9685 16.8884 53.0213 16.9468 53.0685C16.9634 53.0824 16.9759 53.0935 16.9843 53.1019C16.9926 53.1102 16.9982 53.1185 17.001 53.1269C17.0037 53.1352 17.001 53.1422 16.9926 53.1477C16.9871 53.1533 16.9745 53.1561 16.9551 53.1561C16.9051 53.1588 16.7967 53.1074 16.6299 53.0018C16.427 52.899 16.2506 52.7628 16.1005 52.5933C15.9504 52.4209 15.8392 52.2278 15.767 52.0138C15.7253 51.7192 15.7684 51.4343 15.8962 51.1592C15.949 51.0146 16.0379 50.7659 16.163 50.4129C16.2881 50.06 16.3992 49.7556 16.4965 49.5C16.5938 49.2443 16.6952 48.9997 16.8008 48.7662C16.8175 48.7273 16.9176 48.7454 17.101 48.8204C17.2872 48.8955 17.4651 48.9913 17.6346 49.1081C17.8042 49.2248 17.8792 49.3151 17.8597 49.3791C17.8292 49.4708 17.7375 49.7515 17.5846 50.2212C17.8653 49.7848 18.0724 49.4722 18.2058 49.2832C18.2558 49.2137 18.3308 49.1122 18.4309 48.9788C18.492 48.8843 18.5601 48.801 18.6352 48.7287C18.7185 48.6592 18.8089 48.6495 18.9061 48.6995C19.109 48.769 19.2952 48.876 19.4648 49.0205C19.5759 49.1039 19.6454 49.2095 19.6732 49.3374C19.6899 49.4624 19.6968 49.5805 19.6941 49.6917C19.6968 49.9585 19.6538 50.2226 19.5648 50.4838ZM22.779 50.7089C22.7846 50.6978 22.8082 50.702 22.8499 50.7214C22.8916 50.7381 22.9291 50.7603 22.9625 50.7881C22.9986 50.8159 23.0139 50.8354 23.0083 50.8465C22.9416 51.0133 22.7387 51.4343 22.3997 52.1097C22.294 52.3376 22.1606 52.5835 21.9994 52.8476C21.9411 52.9699 21.8521 53.0616 21.7326 53.1227C21.6159 53.1839 21.4908 53.2047 21.3574 53.1852C21.1073 53.1324 20.8836 53.0435 20.6862 52.9184C20.3388 52.7461 20.0693 52.4946 19.8775 52.1639C19.6968 51.658 19.7191 51.1592 19.9442 50.6672C19.9609 50.6172 20.0081 50.4838 20.0859 50.267C20.1637 50.0502 20.2179 49.9002 20.2485 49.8168C20.2791 49.7306 20.3263 49.6042 20.3903 49.4374C20.4542 49.2679 20.5125 49.1178 20.5653 48.9872C20.6182 48.8566 20.6737 48.7273 20.7321 48.5995C20.7488 48.5606 20.8502 48.5786 21.0364 48.6537C21.2226 48.7287 21.4005 48.8246 21.5701 48.9413C21.7396 49.0553 21.8132 49.1442 21.791 49.2081C21.7382 49.3638 21.6673 49.5847 21.5784 49.871C21.4922 50.1545 21.4102 50.4129 21.3324 50.6464C21.2546 50.8771 21.174 51.0925 21.0906 51.2926C20.8961 51.6678 20.7905 52.0763 20.7738 52.5182C20.7849 52.6211 20.8127 52.7225 20.8572 52.8226C20.8572 52.8253 20.8586 52.8309 20.8613 52.8392C20.8669 52.8448 20.8711 52.849 20.8738 52.8517C20.9711 52.899 21.0712 52.9212 21.174 52.9184C21.2435 52.9129 21.3102 52.8934 21.3741 52.8601C21.438 52.8239 21.4978 52.7753 21.5534 52.7142C21.609 52.6502 21.6534 52.596 21.6868 52.5516C21.7201 52.5043 21.7618 52.4418 21.8118 52.364C21.9147 52.2056 22.0689 51.9374 22.2746 51.5594C22.4803 51.1814 22.6484 50.8979 22.779 50.7089ZM22.4413 47.9575C22.294 48.1048 22.1148 48.1784 21.9036 48.1784C21.6923 48.1784 21.5117 48.1048 21.3616 47.9575C21.2115 47.8074 21.1365 47.6267 21.1365 47.4155C21.1365 47.2043 21.2115 47.025 21.3616 46.8777C21.5117 46.7276 21.6923 46.6526 21.9036 46.6526C22.1148 46.6526 22.294 46.7276 22.4413 46.8777C22.5914 47.025 22.6665 47.2043 22.6665 47.4155C22.6665 47.6267 22.5914 47.8074 22.4413 47.9575ZM27.79 50.7089C27.7956 50.6978 27.8192 50.702 27.8609 50.7214C27.9054 50.7381 27.9457 50.7603 27.9818 50.7881C28.0207 50.8132 28.0388 50.8326 28.036 50.8465C27.986 50.9716 27.929 51.1022 27.8651 51.2384C27.8011 51.3718 27.7275 51.5233 27.6441 51.6928C27.5607 51.8595 27.4982 51.986 27.4565 52.0722C27.2759 52.4585 27.1536 52.7072 27.0897 52.8184C27.0118 52.9546 26.9285 53.056 26.8395 53.1227C26.7534 53.1894 26.6436 53.2144 26.5102 53.1978C26.3156 53.1644 26.1336 53.1019 25.9641 53.0102C25.5583 52.8462 25.2206 52.5863 24.951 52.2306C24.8482 52.0193 24.7982 51.7956 24.8009 51.5594C24.8065 51.3231 24.8662 51.1022 24.9802 50.8965C25.0302 50.7603 25.1122 50.5727 25.2262 50.3337C25.3401 50.0919 25.4179 49.9196 25.4596 49.8168C25.543 49.625 25.5847 49.4305 25.5847 49.2331C25.568 49.2415 25.5166 49.279 25.4304 49.3457C25.3081 49.4374 25.1845 49.5389 25.0594 49.65C24.8343 49.8613 24.6342 50.0683 24.4591 50.2712C24.2173 50.5575 24.0283 50.7826 23.8921 50.9466C23.881 50.9605 23.8365 51.0146 23.7587 51.1091C23.6837 51.2009 23.6253 51.2703 23.5836 51.3176L23.5711 51.3301C23.2293 52.1694 23.2487 52.735 23.6295 53.0268C23.7017 53.0796 23.7365 53.1144 23.7337 53.1311C23.7309 53.1422 23.7212 53.1505 23.7045 53.1561C23.6601 53.1727 23.5461 53.1199 23.3627 52.9976C22.9569 52.7531 22.6887 52.4043 22.5581 51.9513C22.4775 51.5955 22.4761 51.237 22.5539 50.8757C22.6039 50.6283 22.6776 50.3838 22.7749 50.142C22.9722 49.6445 23.1556 49.1595 23.3252 48.687C23.3502 48.6203 23.56 48.694 23.9547 48.908C23.9574 48.9107 23.9713 48.9191 23.9963 48.933C24.0214 48.9441 24.0422 48.9552 24.0589 48.9663C24.0783 48.9775 24.1033 48.9927 24.1339 49.0122C24.1673 49.0316 24.1951 49.0497 24.2173 49.0664C24.2423 49.0831 24.2687 49.1011 24.2965 49.1206C24.3271 49.14 24.3521 49.1595 24.3715 49.1789C24.391 49.1984 24.4091 49.2179 24.4257 49.2373C24.4424 49.2568 24.4535 49.2762 24.4591 49.2957C24.4646 49.3124 24.4646 49.3276 24.4591 49.3415C24.3535 49.6083 24.2034 49.946 24.0088 50.3546C24.0533 50.2906 24.12 50.1975 24.209 50.0753C24.5286 49.6445 24.7009 49.4138 24.7259 49.3832C24.8121 49.2721 24.9927 49.04 25.2679 48.687C25.2929 48.6759 25.322 48.6731 25.3554 48.6787C25.3887 48.6842 25.4346 48.7023 25.493 48.7329C25.5513 48.7634 25.5958 48.7885 25.6264 48.8079C25.6597 48.8246 25.6861 48.8399 25.7056 48.8538L25.7806 48.8996C25.8557 48.9246 25.914 48.9483 25.9557 48.9705C26.2003 49.0622 26.4032 49.2109 26.5644 49.4166C26.62 49.525 26.6547 49.6403 26.6686 49.7626C26.6853 49.8849 26.6881 49.996 26.6769 50.0961C26.6658 50.1934 26.6366 50.3115 26.5894 50.4505C26.5449 50.5866 26.5046 50.695 26.4685 50.7756C26.4324 50.8562 26.3796 50.9688 26.3101 51.1133C26.2434 51.2578 26.1961 51.3607 26.1683 51.4218C25.9432 51.7748 25.8334 52.1569 25.839 52.5683C25.8723 52.6711 25.9112 52.76 25.9557 52.8351V52.8392L25.9641 52.8434C26.0641 52.8962 26.1697 52.9198 26.2809 52.9143C26.3337 52.9087 26.3865 52.8906 26.4393 52.8601C26.4921 52.8295 26.5338 52.8003 26.5644 52.7725C26.5977 52.7447 26.638 52.6975 26.6853 52.6308C26.7325 52.5641 26.7617 52.5196 26.7728 52.4974C26.7867 52.4751 26.8159 52.4279 26.8604 52.3556C26.9382 52.225 27.0785 51.9665 27.2814 51.5802C27.4843 51.1939 27.6538 50.9035 27.79 50.7089ZM29.9453 49.304C29.9398 49.304 29.9328 49.2971 29.9245 49.2832L29.9453 49.304ZM32.4091 50.7173C32.4147 50.7089 32.4356 50.7131 32.4717 50.7298C32.5106 50.7464 32.5467 50.7673 32.5801 50.7923C32.6134 50.8145 32.6273 50.8312 32.6218 50.8423C32.3994 51.3287 32.1521 51.797 31.8797 52.2472C31.7185 52.5224 31.5406 52.7823 31.3461 53.0268C31.0098 53.4104 30.6082 53.7077 30.1413 53.919C30.0273 54.2275 29.9203 54.4915 29.8203 54.7111C29.723 54.9334 29.6007 55.1752 29.4534 55.4364C29.3061 55.7005 29.138 55.9339 28.949 56.1368C28.76 56.3397 28.5529 56.5092 28.3278 56.6454C28.1305 56.7927 27.9095 56.8858 27.665 56.9247C27.4232 56.9636 27.1855 56.9428 26.9521 56.8622C26.7659 56.8038 26.6102 56.6996 26.4852 56.5495C26.3601 56.4022 26.2864 56.2313 26.2642 56.0368C26.2587 55.9284 26.2684 55.8241 26.2934 55.7241C26.3156 55.624 26.3476 55.5337 26.3893 55.4531C26.4282 55.3725 26.4866 55.2919 26.5644 55.2113C26.6394 55.1335 26.7117 55.0654 26.7812 55.007C26.8479 54.9515 26.9382 54.8917 27.0521 54.8278C27.1633 54.7666 27.2592 54.7166 27.3398 54.6777C27.4204 54.6388 27.526 54.5929 27.6566 54.5401C27.79 54.4901 27.8942 54.4512 27.9693 54.4234C28.0443 54.3956 28.1499 54.3581 28.2861 54.3108C28.4223 54.2636 28.5196 54.2302 28.5779 54.2108C28.6502 54.0162 28.7739 53.6772 28.949 53.1936C29.1241 52.7128 29.2603 52.3417 29.3575 52.0805C29.3964 51.9777 29.4534 51.8248 29.5284 51.6219C29.6063 51.4162 29.6646 51.2634 29.7035 51.1633C29.4868 51.4691 29.2839 51.7595 29.0949 52.0346C29.0337 52.1236 28.9448 52.2598 28.8281 52.4432C28.7113 52.6266 28.6224 52.7628 28.5613 52.8517C28.5474 52.8712 28.5224 52.9115 28.4862 52.9726C28.4529 53.0338 28.4251 53.0796 28.4029 53.1102C28.3806 53.138 28.3473 53.163 28.3028 53.1852C28.2611 53.2103 28.2153 53.2172 28.1652 53.2061C27.8845 53.1255 27.6386 52.9879 27.4273 52.7934C27.0382 52.4515 27.0021 51.8846 27.3189 51.0925C27.608 50.3977 27.9721 49.7556 28.4112 49.1664C28.4807 49.0719 28.5654 48.9761 28.6655 48.8788C28.7378 48.7954 28.8281 48.744 28.9365 48.7245C29.0476 48.7051 29.1505 48.7231 29.245 48.7787C29.5201 48.8955 29.7966 49.0567 30.0746 49.2623C30.1718 49.3318 30.2608 49.4082 30.3414 49.4916C30.372 49.411 30.4178 49.2887 30.479 49.1248C30.5429 48.9608 30.5901 48.8385 30.6207 48.7579C30.6346 48.7218 30.7388 48.7426 30.9334 48.8204C31.1307 48.8982 31.3197 48.9983 31.5003 49.1206C31.681 49.2401 31.7602 49.3346 31.738 49.4041C31.196 50.9994 30.7152 52.3695 30.2955 53.5146C30.5846 53.3478 30.8458 53.1324 31.0793 52.8684C31.5656 52.1875 32.0089 51.4704 32.4091 50.7173ZM28.1444 53.0852L28.1402 53.081L28.1444 53.0852ZM29.8828 50.3796C29.9301 50.3184 30.0093 50.2239 30.1204 50.0961L30.2663 49.7084C30.233 49.675 30.2205 49.6473 30.2288 49.625C30.2427 49.575 30.2372 49.5319 30.2121 49.4958C30.1871 49.4597 30.1413 49.4207 30.0746 49.3791C30.0079 49.3374 29.9676 49.311 29.9537 49.2998C29.9648 49.2971 29.9676 49.2901 29.962 49.279C29.9537 49.2679 29.9426 49.2679 29.9287 49.279C29.9259 49.2762 29.9217 49.2734 29.9162 49.2707C29.9134 49.2679 29.9106 49.2651 29.9078 49.2623C29.905 49.2595 29.9036 49.2568 29.9036 49.254C29.9092 49.2623 29.9175 49.2721 29.9287 49.2832H29.9245C29.9217 49.2832 29.9203 49.2846 29.9203 49.2873C29.9148 49.2957 29.9009 49.3124 29.8786 49.3374C29.8564 49.3624 29.8411 49.3818 29.8328 49.3957C29.7966 49.4485 29.7452 49.5305 29.6785 49.6417C29.6396 49.7056 29.5646 49.8237 29.4534 49.996C29.3422 50.1684 29.2589 50.3032 29.2033 50.4004C28.8864 50.9479 28.6085 51.5163 28.3695 52.1055C28.3195 52.225 28.275 52.3431 28.2361 52.4599C28.2444 52.4515 28.2569 52.4376 28.2736 52.4182C28.2903 52.3987 28.3028 52.3848 28.3111 52.3765L28.5363 52.1013C28.7614 51.8179 28.9768 51.5441 29.1824 51.2801C29.2352 51.2134 29.3089 51.1189 29.4034 50.9966C29.5007 50.8743 29.5882 50.7631 29.666 50.6631C29.7438 50.563 29.8161 50.4685 29.8828 50.3796ZM28.2486 55.0946C28.2792 55.0223 28.3181 54.9181 28.3653 54.7819C28.4154 54.6485 28.4487 54.5582 28.4654 54.511C28.3042 54.5693 28.1736 54.6166 28.0735 54.6527C27.9735 54.6916 27.8498 54.743 27.7025 54.8069C27.5552 54.8736 27.4329 54.939 27.3356 55.0029C27.2383 55.0696 27.1397 55.146 27.0396 55.2322C26.9368 55.3183 26.8534 55.4142 26.7895 55.5198C26.7228 55.6254 26.6728 55.7394 26.6394 55.8617C26.6255 55.9367 26.6158 56.0243 26.6102 56.1243C26.6047 56.2244 26.6186 56.3286 26.6519 56.437C26.6853 56.5454 26.7353 56.6204 26.802 56.6621C26.9021 56.726 27.0202 56.726 27.1564 56.6621C27.2925 56.601 27.412 56.519 27.5149 56.4161C27.8456 56.0159 28.0902 55.5754 28.2486 55.0946ZM39.2 48.2235C39.1403 48.3838 39.0516 48.6199 38.934 48.932C38.8163 49.244 38.7217 49.4972 38.6501 49.6916C38.5785 49.8842 38.4966 50.117 38.4046 50.3898C38.3125 50.6609 38.2323 50.9115 38.1641 51.1417C38.0584 51.4947 37.9919 51.7411 37.9646 51.8809C37.8606 52.3992 37.9135 52.7828 38.1232 53.0318C38.1522 53.0676 38.1317 53.0736 38.0618 53.0497C38.0584 53.048 38.0533 53.0454 38.0465 53.042L38.0363 53.0395C37.9493 53.0054 37.8743 52.9568 37.8112 52.8937C37.4071 52.4811 37.298 51.8203 37.4838 50.9115C37.7464 49.8442 38.0925 48.8177 38.5222 47.8322C38.5307 47.81 38.5947 47.8228 38.714 47.8705C38.8334 47.9166 38.9476 47.9771 39.0567 48.0521C39.1676 48.1255 39.2153 48.1826 39.2 48.2235ZM40.5453 46.6071C40.8181 46.7503 41.0414 46.9285 41.2154 47.1416C41.391 47.3548 41.5137 47.5815 41.5837 47.822C41.6536 48.0624 41.6877 48.3232 41.686 48.6046C41.686 48.8859 41.6561 49.163 41.5964 49.4358C41.5368 49.7069 41.4549 49.9848 41.3509 50.2696C41.2469 50.5526 41.1361 50.8126 41.0184 51.0496C40.9008 51.2867 40.7746 51.5151 40.6399 51.7351C40.2955 52.3336 39.8692 52.8664 39.3611 53.3336C38.853 53.8008 38.2869 54.1819 37.6628 54.4768C37.5179 54.5365 37.3628 54.5783 37.1974 54.6022C37.0337 54.626 36.8708 54.632 36.7089 54.6201C36.5486 54.6081 36.3977 54.5732 36.2562 54.5152C36.1146 54.4572 35.9936 54.3805 35.893 54.285C35.7924 54.1895 35.7199 54.0651 35.6756 53.9116C35.6313 53.7581 35.6261 53.5851 35.6602 53.3924C35.6619 53.389 35.6739 53.3916 35.696 53.4001C35.7182 53.4103 35.7404 53.4223 35.7625 53.4359C35.7847 53.4495 35.7958 53.4615 35.7958 53.4717C35.8009 53.5774 35.8094 53.6737 35.8214 53.7607C35.835 53.8477 35.8589 53.9355 35.893 54.0241C35.9271 54.1145 35.9706 54.1887 36.0234 54.2467C36.0763 54.3063 36.1462 54.3532 36.2331 54.3873C36.3201 54.4231 36.4216 54.4385 36.5375 54.4334C36.7694 54.4146 36.9859 54.3575 37.1871 54.262C37.668 54.025 38.0934 53.7087 38.4634 53.3131C39.2631 52.4742 39.8973 51.5245 40.3662 50.464C40.7959 49.6592 41.021 48.8032 41.0414 47.8961C41.038 47.7802 41.0244 47.6642 41.0005 47.5483C40.9784 47.4323 40.9451 47.3164 40.9008 47.2005C40.8581 47.0845 40.7985 46.9788 40.7217 46.8833C40.6467 46.7861 40.5589 46.712 40.4583 46.6608C40.3833 46.625 40.3066 46.5969 40.2281 46.5764C39.957 46.5338 39.6876 46.5483 39.4199 46.6199C39.1539 46.6915 38.9144 46.8134 38.7012 46.9856C38.292 47.2738 37.9493 47.6335 37.6731 48.0649C37.419 48.4179 37.2161 48.7964 37.0644 49.2005C37.0132 49.3403 36.9851 49.4852 36.98 49.6353C36.98 49.6677 36.9885 49.7163 37.0055 49.7811C37.0226 49.8459 37.0303 49.8953 37.0286 49.9294C37.0269 49.9533 36.9842 49.9516 36.9007 49.9243C36.8188 49.8953 36.76 49.8714 36.7242 49.8527C36.5673 49.7845 36.4164 49.6899 36.2715 49.5688C36.1453 49.4801 36.0797 49.3591 36.0746 49.2056C36.078 49.0743 36.1044 48.9524 36.1539 48.8399C36.3158 48.4989 36.523 48.1894 36.7754 47.9115C37.0277 47.6318 37.315 47.3957 37.6373 47.203C38.009 46.949 38.4046 46.7384 38.824 46.5713C39.2332 46.3871 39.6612 46.3385 40.1079 46.4255C40.1659 46.4426 40.2162 46.4639 40.2588 46.4894C40.3475 46.5167 40.443 46.5559 40.5453 46.6071ZM43.7803 49.304C43.772 49.304 43.7636 49.2971 43.7553 49.2832C43.7581 49.2859 43.7623 49.2901 43.7678 49.2957C43.7734 49.2985 43.7775 49.3012 43.7803 49.304ZM46.6777 50.7089C46.686 50.6978 46.711 50.702 46.7527 50.7214C46.7944 50.7409 46.8319 50.7645 46.8653 50.7923C46.9014 50.8173 46.9167 50.8354 46.9112 50.8465C46.8222 51.016 46.6805 51.2564 46.4859 51.5677C46.2942 51.8762 46.183 52.0569 46.1524 52.1097C45.9217 52.4988 45.7717 52.742 45.7022 52.8392C45.6438 52.9532 45.5604 53.0435 45.452 53.1102C45.3437 53.1769 45.2255 53.2089 45.0977 53.2061C44.9087 53.1755 44.7308 53.1172 44.5641 53.031C44.1639 52.8754 43.8429 52.6141 43.6011 52.2472C43.4371 51.8971 43.4135 51.5371 43.5302 51.1675C43.394 51.3593 43.1925 51.6469 42.9257 52.0305C42.8646 52.1194 42.7756 52.2556 42.6589 52.439C42.5422 52.6224 42.4532 52.7586 42.3921 52.8476C42.3782 52.867 42.3532 52.9073 42.317 52.9685C42.2837 53.0296 42.2559 53.0755 42.2337 53.106C42.2114 53.1366 42.1781 53.163 42.1336 53.1852C42.0919 53.2103 42.0461 53.2172 41.996 53.2061C41.7181 53.1255 41.4735 52.9879 41.2623 52.7934C40.8704 52.4487 40.8329 51.8804 41.1498 51.0883C41.4305 50.4102 41.7959 49.7695 42.2462 49.1664C42.3212 49.0608 42.4046 48.9649 42.4963 48.8788C42.5686 48.7954 42.6589 48.744 42.7673 48.7245C42.8785 48.7051 42.9813 48.7231 43.0758 48.7787C43.3676 48.901 43.6455 49.0608 43.9096 49.2582C43.9985 49.3249 44.0902 49.4055 44.1847 49.5C44.3931 48.9997 44.5196 48.6995 44.5641 48.5995C44.5807 48.5606 44.6822 48.5786 44.8684 48.6537C45.0546 48.7287 45.2325 48.8246 45.402 48.9413C45.5716 49.0553 45.6452 49.1442 45.623 49.2081C45.5646 49.3777 45.409 49.8029 45.1561 50.4838C44.9865 50.9396 44.8851 51.2064 44.8517 51.2842C44.6183 51.6872 44.4946 52.125 44.4807 52.5974C44.4863 52.6614 44.4988 52.7197 44.5182 52.7725C44.521 52.7781 44.5293 52.7934 44.5432 52.8184C44.5571 52.8406 44.5655 52.8559 44.5682 52.8642L44.6308 52.8851C44.6558 52.8962 44.6836 52.9059 44.7141 52.9143C44.7614 52.9226 44.81 52.9226 44.8601 52.9143C44.9156 52.9059 44.9726 52.8879 45.031 52.8601C45.0893 52.8295 45.1366 52.8003 45.1727 52.7725C45.2089 52.742 45.2547 52.6947 45.3103 52.6308C45.3659 52.5669 45.402 52.5238 45.4187 52.5015C45.4381 52.4765 45.4743 52.4279 45.5271 52.3556C45.6299 52.2167 45.8064 51.9554 46.0565 51.5719C46.3094 51.1883 46.5165 50.9007 46.6777 50.7089ZM41.9794 53.0852L41.9752 53.081L41.9794 53.0852ZM41.9752 53.0852V53.081L41.9794 53.0852H41.9752ZM42.3712 52.1013H42.3671C42.3893 52.0735 42.6075 51.7984 43.0216 51.2759C43.0744 51.2092 43.148 51.1147 43.2425 50.9924C43.3398 50.8701 43.4274 50.759 43.5052 50.6589C43.583 50.5588 43.6553 50.4644 43.722 50.3754C43.7386 50.3532 43.8095 50.2656 43.9346 50.1128C43.9512 50.0683 43.979 50.003 44.0179 49.9168C44.0569 49.8279 44.0846 49.7612 44.1013 49.7167C44.0652 49.6834 44.0513 49.6528 44.0596 49.625C44.0735 49.575 44.068 49.5319 44.043 49.4958C44.0179 49.4597 43.9721 49.4207 43.9054 49.3791C43.8387 49.3374 43.7984 49.311 43.7845 49.2998C43.7928 49.2971 43.7956 49.2915 43.7928 49.2832C43.7873 49.2721 43.7775 49.2707 43.7636 49.279C43.7609 49.2762 43.7553 49.2721 43.747 49.2665C43.7414 49.2609 43.7372 49.2568 43.7345 49.254C43.7456 49.2679 43.7539 49.2776 43.7595 49.2832H43.7553L43.7511 49.2873C43.7456 49.2957 43.7317 49.3124 43.7094 49.3374C43.6872 49.3624 43.6719 49.3818 43.6636 49.3957C43.6497 49.4152 43.5997 49.4972 43.5135 49.6417C43.4718 49.7084 43.3954 49.8279 43.2842 50.0002C43.1731 50.1698 43.0897 50.3032 43.0341 50.4004C42.7256 50.9313 42.4491 51.4996 42.2045 52.1055C42.1378 52.2695 42.0919 52.3876 42.0669 52.4599C42.0752 52.4515 42.0878 52.4376 42.1044 52.4182C42.1211 52.3987 42.1336 52.3848 42.1419 52.3765C42.1948 52.3153 42.2712 52.2236 42.3712 52.1013ZM51.8054 50.7173C51.811 50.7089 51.8318 50.7131 51.868 50.7298C51.9069 50.7437 51.9416 50.7631 51.9722 50.7881C52.0055 50.8104 52.0194 50.827 52.0139 50.8382C51.7943 51.319 51.5456 51.7887 51.2676 52.2472C51.0981 52.5363 50.9216 52.7961 50.7382 53.0268C50.4047 53.4048 50.0031 53.7008 49.5334 53.9148C49.4194 54.2233 49.3124 54.4873 49.2124 54.7069C49.1151 54.9292 48.9928 55.171 48.8455 55.4323C48.6982 55.6963 48.5301 55.9298 48.3411 56.1326C48.1521 56.3355 47.945 56.5051 47.7199 56.6413C47.5226 56.7886 47.3016 56.8817 47.0571 56.9206C46.8153 56.9595 46.5776 56.9386 46.3442 56.858C46.158 56.7997 46.0023 56.6954 45.8773 56.5454C45.7522 56.3981 45.6786 56.2271 45.6563 56.0326C45.648 55.8936 45.6647 55.7616 45.7063 55.6365C45.7453 55.5115 45.8022 55.4003 45.8773 55.303C45.9495 55.2085 46.0399 55.1168 46.1482 55.0279C46.2539 54.9417 46.3664 54.8653 46.4859 54.7986C46.6054 54.7347 46.7347 54.6721 46.8736 54.611C47.0154 54.5499 47.1516 54.4957 47.2822 54.4484C47.4156 54.4012 47.5504 54.3539 47.6866 54.3067C47.8144 54.265 47.9075 54.233 47.9659 54.2108C48.1938 53.5994 48.3633 53.1408 48.4745 52.8351C48.4217 52.9379 48.3466 53.0227 48.2494 53.0894C48.1549 53.1533 48.0493 53.1908 47.9325 53.2019C47.7324 53.1797 47.5518 53.1227 47.3906 53.031C46.9931 52.867 46.6707 52.6155 46.4234 52.2764C46.3011 52.0263 46.24 51.7637 46.24 51.4885C46.24 51.2106 46.3011 50.9466 46.4234 50.6964C46.768 49.7292 47.0362 49.0289 47.228 48.5953C47.2447 48.5564 47.3461 48.5745 47.5323 48.6495C47.7185 48.7245 47.8964 48.8204 48.0659 48.9372C48.2355 49.0539 48.3091 49.1442 48.2869 49.2081C48.2313 49.3693 48.1576 49.5944 48.0659 49.8835C47.977 50.1698 47.8922 50.4324 47.8116 50.6714C47.731 50.9076 47.649 51.1286 47.5657 51.3343C47.3461 51.7345 47.2558 52.1666 47.2947 52.6308C47.303 52.6669 47.3336 52.7406 47.3864 52.8517C47.4948 52.8906 47.6004 52.9004 47.7032 52.8809C47.7338 52.8754 47.763 52.8656 47.7908 52.8517C47.8214 52.8378 47.8478 52.8253 47.87 52.8142C47.895 52.8003 47.9214 52.7809 47.9492 52.7559C47.9798 52.7281 48.0034 52.7072 48.0201 52.6933C48.0368 52.6794 48.059 52.6558 48.0868 52.6224C48.1173 52.5863 48.1382 52.5613 48.1493 52.5474C48.1604 52.5335 48.1799 52.5057 48.2077 52.464C48.2382 52.4223 48.2563 52.3973 48.2619 52.389C48.2702 52.3779 48.2883 52.3501 48.3161 52.3056C48.3466 52.2611 48.3633 52.2375 48.3661 52.2347C48.4634 52.0902 48.6023 51.8693 48.783 51.5719C48.9664 51.2717 49.1068 51.0494 49.204 50.9049C49.2457 50.7909 49.3638 50.4741 49.5584 49.9544C49.7529 49.4346 49.9044 49.0358 50.0128 48.7579C50.0267 48.7218 50.1323 48.7426 50.3296 48.8204C50.527 48.8982 50.716 48.9983 50.8966 49.1206C51.0773 49.2401 51.1565 49.3346 51.1342 49.4041C50.5923 50.9994 50.1115 52.3695 49.6918 53.5146C49.9836 53.3478 50.2435 53.1324 50.4714 52.8684C50.9689 52.1736 51.4135 51.4565 51.8054 50.7173ZM47.6407 55.0946C47.6713 55.0196 47.713 54.9112 47.7658 54.7694C47.8186 54.6277 47.8505 54.5415 47.8617 54.511C47.6977 54.5693 47.5657 54.6166 47.4656 54.6527C47.3683 54.6916 47.2447 54.743 47.0946 54.8069C46.9473 54.8736 46.825 54.939 46.7277 55.0029C46.6332 55.0668 46.5346 55.1418 46.4317 55.228C46.3289 55.3142 46.2455 55.41 46.1816 55.5157C46.1177 55.6213 46.069 55.7352 46.0357 55.8575C46.0162 55.9325 46.0051 56.0201 46.0023 56.1201C45.9996 56.223 46.0148 56.3272 46.0482 56.4328C46.0788 56.5412 46.1288 56.6176 46.1983 56.6621C46.2983 56.726 46.4164 56.726 46.5526 56.6621C46.6888 56.601 46.8083 56.519 46.9112 56.4161C47.2391 56.0215 47.4823 55.581 47.6407 55.0946ZM61.3909 45.0998C61.6289 45.4026 61.7313 45.7451 61.6979 46.1273C61.702 46.3195 61.677 46.5085 61.6227 46.6943C61.5642 46.876 61.5078 46.9951 61.4535 47.0515C61.4159 47.0912 61.3752 47.1152 61.3313 47.1235C61.2854 47.1235 61.2384 47.11 61.1904 47.0828C61.1256 47.0515 61.0672 47.0201 61.0149 46.9888C61.0129 46.9867 61.0014 46.9805 60.9805 46.97C60.9617 46.9575 60.9471 46.9481 60.9366 46.9418C60.9262 46.9356 60.9116 46.9262 60.8928 46.9136C60.8761 46.9011 60.8625 46.8896 60.852 46.8792C60.8437 46.8687 60.8343 46.8572 60.8238 46.8447C60.8155 46.8301 60.8113 46.8165 60.8113 46.804C60.8092 46.7768 60.8155 46.7518 60.8301 46.7288C60.8468 46.7037 60.8729 46.6745 60.9084 46.6411C60.9439 46.6056 60.9638 46.5857 60.9679 46.5816C61.0181 46.5294 61.0692 46.4646 61.1215 46.3873C61.3136 46.12 61.4117 45.8224 61.4159 45.4945C61.4159 45.4841 61.4138 45.4695 61.4097 45.4507C61.4055 45.4319 61.4034 45.4194 61.4034 45.4131C61.3992 45.3671 61.395 45.3348 61.3909 45.316C61.3721 45.2491 61.3418 45.1865 61.3 45.128C61.0891 44.8502 60.8197 44.9254 60.4918 45.3536C60.1263 45.8861 59.953 46.4761 59.9718 47.1235C59.9718 47.3992 60.0052 47.6853 60.072 47.9819C60.1409 48.2763 60.2266 48.5572 60.3289 48.8246C60.4333 49.0919 60.5388 49.3561 60.6453 49.6171C60.7518 49.8782 60.85 50.157 60.9398 50.4536C61.0296 50.748 61.088 51.0268 61.1152 51.29C61.1444 51.5615 61.1215 51.8278 61.0463 52.0888C60.9732 52.3478 60.8667 52.5806 60.7267 52.7874C60.5868 52.9942 60.4135 53.1936 60.2067 53.3857C60 53.5779 59.7901 53.7439 59.577 53.8838C59.364 54.0238 59.1353 54.1553 58.891 54.2785C58.632 54.4101 58.371 54.5219 58.1078 54.6137C57.8447 54.7056 57.5638 54.7798 57.2651 54.8362C56.9665 54.8926 56.671 54.9019 56.3786 54.8644C56.0883 54.8268 55.8272 54.738 55.5954 54.5981C55.562 54.5793 55.5338 54.5605 55.5108 54.5417C55.49 54.5229 55.4753 54.5072 55.467 54.4947C55.4586 54.4843 55.4565 54.4759 55.4607 54.4696C55.1558 54.2692 54.9522 53.9945 54.8498 53.6457C54.6138 52.7874 54.8916 51.7118 55.6831 50.4191C55.9567 49.9429 56.2971 49.519 56.7044 49.1472C56.8213 49.0177 56.9623 48.9248 57.1273 48.8684C57.2923 48.8099 57.4604 48.7964 57.6317 48.8277C57.8217 48.8924 57.994 48.9885 58.1485 49.1159C58.2133 49.1681 58.2519 49.213 58.2645 49.2506C58.2728 49.2757 58.253 49.283 58.2049 49.2725C58.2008 49.2704 58.1976 49.2694 58.1955 49.2694C58.1454 49.2569 58.0869 49.2631 58.0201 49.2882C57.9533 49.3112 57.877 49.354 57.7914 49.4166C57.7079 49.4793 57.6452 49.5284 57.6035 49.5639C57.5638 49.5973 57.5053 49.6495 57.428 49.7205C57.4218 49.7268 57.4165 49.732 57.4124 49.7362C57.4082 49.7383 57.404 49.7414 57.3998 49.7456C56.6188 50.4494 56.0048 51.2743 55.5578 52.2204C55.4993 52.3499 55.4471 52.4783 55.4012 52.6057C55.3573 52.7331 55.3156 52.8741 55.2759 53.0286C55.2362 53.1832 55.2132 53.3314 55.207 53.4735C55.2028 53.6155 55.2122 53.7543 55.2352 53.8901C55.2581 54.0258 55.3093 54.1512 55.3887 54.266C55.4701 54.3809 55.5756 54.477 55.7051 54.5542C55.8262 54.6127 55.9682 54.6461 56.1311 54.6545C56.294 54.6649 56.4527 54.6555 56.6073 54.6263C56.7639 54.5991 56.9299 54.5574 57.1054 54.501C57.2808 54.4446 57.4343 54.3882 57.5659 54.3318C57.6974 54.2754 57.828 54.2149 57.9575 54.1501C58.5715 53.8368 59.0873 53.4014 59.505 52.8438C59.766 52.5389 59.9551 52.1932 60.072 51.8069C60.191 51.4205 60.2276 51.0279 60.1816 50.629C59.9832 49.827 59.7222 49.0355 59.3985 48.2544C59.1583 47.607 59.0873 46.9408 59.1855 46.2558C59.2251 46.0595 59.2899 45.8663 59.3797 45.6762C59.4716 45.4841 59.5969 45.3076 59.7556 45.1468C59.9143 44.986 60.0877 44.8816 60.2756 44.8335C60.449 44.7918 60.6244 44.7866 60.8019 44.8179C60.9794 44.8471 61.1434 44.9108 61.2937 45.009C61.3251 45.034 61.3533 45.0622 61.3783 45.0936C61.3804 45.0956 61.3825 45.0967 61.3846 45.0967C61.3867 45.0967 61.3888 45.0977 61.3909 45.0998ZM65.5467 49.4332C65.6162 49.5138 65.6648 49.5986 65.6926 49.6876C65.7204 49.7737 65.7259 49.871 65.7093 49.9794C65.6926 50.085 65.6745 50.1725 65.6551 50.242C65.6384 50.3087 65.6037 50.4074 65.5509 50.538C65.5008 50.6686 65.4689 50.7562 65.455 50.8006C65.266 51.3704 65.0284 51.9137 64.7421 52.4307C64.6226 52.6919 64.4586 52.9045 64.2502 53.0685C64.0223 53.1908 63.7888 53.1936 63.5498 53.0769C63.2052 52.9462 62.8869 52.7864 62.5951 52.5974C62.5006 52.5391 62.4145 52.4807 62.3366 52.4223C62.32 52.4724 62.2797 52.5891 62.2157 52.7725C62.1518 52.9532 62.1018 53.0935 62.0657 53.1936C61.8878 53.6688 61.6613 54.2455 61.3861 54.9237C61.3583 54.9904 61.3111 55.0988 61.2444 55.2488C61.1749 55.4017 61.1207 55.5254 61.0818 55.6199C61.0401 55.7171 60.9998 55.838 60.9609 55.9826C60.922 56.1271 60.9039 56.2522 60.9067 56.3578C60.9095 56.4634 60.9373 56.5745 60.9901 56.6913C61.0401 56.808 61.1193 56.9094 61.2277 56.9956C61.2916 57.0456 61.2958 57.0651 61.2402 57.054C61.1429 57.0317 61.0207 56.9803 60.8734 56.8997C60.8595 56.8914 60.8497 56.8858 60.8442 56.883C60.6357 56.7385 60.4745 56.5732 60.3606 56.3869C60.2439 56.2007 60.173 56.0006 60.148 55.7866C60.123 55.5754 60.1244 55.3656 60.1521 55.1571C60.1799 54.9487 60.2327 54.7222 60.3106 54.4776C60.3356 54.397 60.4106 54.1538 60.5357 53.748C60.6607 53.3451 60.7594 53.0366 60.8317 52.8226C61.4459 51.0299 61.9892 49.568 62.4617 48.4369C62.4756 48.4008 62.5757 48.4202 62.7619 48.4953C62.9481 48.5703 63.1259 48.6662 63.2955 48.7829C63.4678 48.8969 63.5428 48.9858 63.5206 49.0497C63.3789 49.4416 63.2413 49.8335 63.1079 50.2253C63.4275 49.6917 63.7958 49.1748 64.2126 48.6745C64.2571 48.6245 64.403 48.6787 64.6504 48.8371C64.6809 48.8566 64.7296 48.8885 64.7963 48.933C65.0853 49.0442 65.3355 49.2109 65.5467 49.4332ZM62.5076 52.3265C62.4798 52.3098 62.4534 52.2959 62.4284 52.2848C62.4534 52.2959 62.477 52.307 62.4992 52.3181L62.5076 52.3265ZM64.6129 49.4458V49.4499C64.6573 49.3499 64.6726 49.2498 64.6587 49.1498C64.5503 49.2081 64.4558 49.2721 64.3752 49.3415C64.2529 49.4416 64.1223 49.5611 63.9834 49.7001C63.7443 49.9502 63.5289 50.2017 63.3372 50.4546C63.2732 50.5408 63.176 50.67 63.0454 50.8423C62.9175 51.0119 62.8216 51.1397 62.7577 51.2259C62.6799 51.4538 62.5604 51.7956 62.3992 52.2514C62.4131 52.257 62.4325 52.2681 62.4575 52.2848C62.4853 52.3014 62.5062 52.3139 62.5201 52.3223C62.5367 52.3306 62.5576 52.3431 62.5826 52.3598C62.6104 52.3765 62.6285 52.3862 62.6368 52.389C62.6479 52.3945 62.6674 52.4015 62.6952 52.4098C62.723 52.4182 62.7424 52.4251 62.7535 52.4307C62.7452 52.4307 62.7452 52.4321 62.7535 52.4348C62.7813 52.4376 62.8008 52.439 62.8119 52.439H62.8161H62.8202H62.8244H62.8286H62.8369H62.8411H62.8452H62.8536H62.8578H62.8994C63.0106 52.414 63.1051 52.3584 63.1829 52.2723C63.5303 51.872 63.7958 51.4315 63.9792 50.9507C64.2293 50.4032 64.4405 49.9016 64.6129 49.4458ZM68.4232 49.304C68.4149 49.304 68.4065 49.2971 68.3982 49.2832C68.401 49.2859 68.4051 49.2901 68.4107 49.2957C68.4163 49.2985 68.4204 49.3012 68.4232 49.304ZM71.3206 50.7089C71.3289 50.6978 71.3539 50.702 71.3956 50.7214C71.4373 50.7409 71.4748 50.7645 71.5082 50.7923C71.5443 50.8173 71.5596 50.8354 71.554 50.8465C71.4651 51.016 71.3234 51.2564 71.1288 51.5677C70.9371 51.8762 70.8259 52.0569 70.7953 52.1097C70.5646 52.4988 70.4146 52.742 70.3451 52.8392C70.2867 52.9532 70.2033 53.0435 70.0949 53.1102C69.9865 53.1769 69.8684 53.2089 69.7406 53.2061C69.5516 53.1755 69.3737 53.1172 69.207 53.031C68.8068 52.8754 68.4857 52.6141 68.244 52.2472C68.08 51.8971 68.0564 51.5371 68.1731 51.1675C68.0369 51.3593 67.8354 51.6469 67.5686 52.0305C67.5074 52.1194 67.4185 52.2556 67.3018 52.439C67.1851 52.6224 67.0961 52.7586 67.035 52.8476C67.0211 52.867 66.9961 52.9073 66.9599 52.9685C66.9266 53.0296 66.8988 53.0755 66.8766 53.106C66.8543 53.1366 66.821 53.163 66.7765 53.1852C66.7348 53.2103 66.689 53.2172 66.6389 53.2061C66.361 53.1255 66.1164 52.9879 65.9052 52.7934C65.5133 52.4487 65.4758 51.8804 65.7926 51.0883C66.0734 50.4102 66.4388 49.7695 66.8891 49.1664C66.9641 49.0608 67.0475 48.9649 67.1392 48.8788C67.2115 48.7954 67.3018 48.744 67.4102 48.7245C67.5213 48.7051 67.6242 48.7231 67.7187 48.7787C68.0105 48.901 68.2884 49.0608 68.5524 49.2582C68.6414 49.3249 68.7331 49.4055 68.8276 49.5C69.036 48.9997 69.1625 48.6995 69.207 48.5995C69.2236 48.5606 69.3251 48.5786 69.5113 48.6537C69.6975 48.7287 69.8754 48.8246 70.0449 48.9413C70.2144 49.0553 70.2881 49.1442 70.2659 49.2081C70.2075 49.3777 70.0519 49.8029 69.7989 50.4838C69.6294 50.9396 69.528 51.2064 69.4946 51.2842C69.2612 51.6872 69.1375 52.125 69.1236 52.5974C69.1291 52.6614 69.1417 52.7197 69.1611 52.7725C69.1639 52.7781 69.1722 52.7934 69.1861 52.8184C69.2 52.8406 69.2084 52.8559 69.2111 52.8642L69.2737 52.8851C69.2987 52.8962 69.3265 52.9059 69.357 52.9143C69.4043 52.9226 69.4529 52.9226 69.503 52.9143C69.5585 52.9059 69.6155 52.8879 69.6739 52.8601C69.7322 52.8295 69.7795 52.8003 69.8156 52.7725C69.8518 52.742 69.8976 52.6947 69.9532 52.6308C70.0088 52.5669 70.0449 52.5238 70.0616 52.5015C70.081 52.4765 70.1172 52.4279 70.17 52.3556C70.2728 52.2167 70.4493 51.9554 70.6994 51.5719C70.9523 51.1883 71.1594 50.9007 71.3206 50.7089ZM66.6223 53.0852L66.6181 53.081L66.6223 53.0852ZM66.6181 53.0852V53.081L66.6223 53.0852H66.6181ZM67.0141 52.1013H67.01C67.0322 52.0735 67.2504 51.7984 67.6645 51.2759C67.7173 51.2092 67.7909 51.1147 67.8854 50.9924C67.9827 50.8701 68.0702 50.759 68.1481 50.6589C68.2259 50.5588 68.2981 50.4644 68.3648 50.3754C68.3815 50.3532 68.4524 50.2656 68.5775 50.1128C68.5941 50.0683 68.6219 50.003 68.6608 49.9168C68.6998 49.8279 68.7275 49.7612 68.7442 49.7167C68.7081 49.6834 68.6942 49.6528 68.7025 49.625C68.7164 49.575 68.7109 49.5319 68.6859 49.4958C68.6608 49.4597 68.615 49.4207 68.5483 49.3791C68.4816 49.3374 68.4413 49.311 68.4274 49.2998C68.4357 49.2971 68.4385 49.2915 68.4357 49.2832C68.4302 49.2721 68.4204 49.2707 68.4065 49.279C68.4038 49.2762 68.3982 49.2721 68.3899 49.2665C68.3843 49.2609 68.3801 49.2568 68.3774 49.254C68.3885 49.2679 68.3968 49.2776 68.4024 49.2832H68.3982L68.394 49.2873C68.3885 49.2957 68.3746 49.3124 68.3523 49.3374C68.3301 49.3624 68.3148 49.3818 68.3065 49.3957C68.2926 49.4152 68.2426 49.4972 68.1564 49.6417C68.1147 49.7084 68.0383 49.8279 67.9271 50.0002C67.8159 50.1698 67.7326 50.3032 67.677 50.4004C67.3685 50.9313 67.092 51.4996 66.8474 52.1055C66.7807 52.2695 66.7348 52.3876 66.7098 52.4599C66.7181 52.4515 66.7306 52.4376 66.7473 52.4182C66.764 52.3987 66.7765 52.3848 66.7848 52.3765C66.8376 52.3153 66.9141 52.2236 67.0141 52.1013Z" fill="white"/>
<path d="M15.8367 58.4423C15.8367 58.5326 15.8777 58.6064 15.9023 58.6283C15.9297 58.6556 15.9324 58.6638 15.9324 58.6775C15.9324 58.6857 15.9133 58.6967 15.9023 58.6967C15.8504 58.6967 15.73 58.6611 15.6808 58.6474C15.6124 58.6255 15.6015 58.6119 15.6015 58.5708C15.6015 58.4067 15.7738 58.1196 15.8968 57.9965C15.9105 57.9801 15.9242 57.9746 15.9379 57.9746C15.9461 57.9746 15.957 57.9801 15.957 57.9883C15.957 57.9965 15.9515 58.0047 15.9406 58.0238C15.8941 58.1196 15.8367 58.2755 15.8367 58.4423ZM15.4264 58.4423C15.4264 58.5326 15.4674 58.6064 15.4921 58.6283C15.5194 58.6556 15.5221 58.6638 15.5221 58.6775C15.5221 58.6857 15.503 58.6967 15.4921 58.6967C15.4401 58.6967 15.3198 58.6611 15.2705 58.6474C15.2021 58.6255 15.1912 58.6119 15.1912 58.5708C15.1912 58.4067 15.3635 58.1196 15.4866 57.9965C15.5003 57.9801 15.5139 57.9746 15.5276 57.9746C15.5358 57.9746 15.544 57.9801 15.544 57.9883C15.544 57.9965 15.5413 58.0047 15.5304 58.0238C15.4839 58.1196 15.4264 58.2755 15.4264 58.4423ZM16.9064 59.4324V58.311L16.4989 58.322C16.3402 58.3274 16.2746 58.3411 16.2336 58.4013C16.2062 58.4423 16.1926 58.4751 16.1871 58.497C16.1816 58.5189 16.1734 58.5298 16.157 58.5298C16.1379 58.5298 16.1324 58.5161 16.1324 58.4861C16.1324 58.4423 16.1843 58.1934 16.1898 58.1715C16.198 58.136 16.2062 58.1196 16.2226 58.1196C16.2445 58.1196 16.2719 58.1469 16.3402 58.1524C16.4196 58.1606 16.5235 58.1661 16.6138 58.1661H17.6968C17.7843 58.1661 17.8445 58.1579 17.8855 58.1524C17.9266 58.1442 17.9485 58.1387 17.9594 58.1387C17.9785 58.1387 17.9813 58.1551 17.9813 58.1961C17.9813 58.2536 17.9731 58.4423 17.9731 58.5134C17.9703 58.5408 17.9649 58.5572 17.9485 58.5572C17.9266 58.5572 17.9211 58.5435 17.9184 58.5025L17.9156 58.4724C17.9102 58.4013 17.8363 58.3247 17.5929 58.3192L17.2483 58.311V59.4324C17.2483 59.684 17.2483 59.9001 17.262 60.0177C17.2702 60.0943 17.2866 60.1544 17.3686 60.1654C17.4069 60.1708 17.4671 60.1763 17.5081 60.1763C17.5382 60.1763 17.5519 60.1845 17.5519 60.1982C17.5519 60.2173 17.53 60.2255 17.4999 60.2255C17.3194 60.2255 17.1471 60.2173 17.0705 60.2173C17.0076 60.2173 16.8353 60.2255 16.7259 60.2255C16.6903 60.2255 16.6712 60.2173 16.6712 60.1982C16.6712 60.1845 16.6821 60.1763 16.7149 60.1763C16.756 60.1763 16.7888 60.1708 16.8134 60.1654C16.8681 60.1544 16.8845 60.0943 16.8927 60.0149C16.9064 59.9001 16.9064 59.684 16.9064 59.4324ZM18.4297 59.55V59.1397C18.4297 58.7869 18.4297 58.7213 18.427 58.6474C18.4215 58.5681 18.3996 58.5435 18.323 58.5216C18.3039 58.5161 18.2629 58.5134 18.2273 58.5134C18.2027 58.5134 18.1863 58.5052 18.1863 58.4888C18.1863 58.4724 18.2054 58.4669 18.241 58.4669C18.3668 58.4669 18.52 58.4724 18.5692 58.4724C18.6513 58.4724 18.8701 58.4669 18.9439 58.4669C19.0971 58.4669 19.2721 58.4806 19.4007 58.5654C19.469 58.6119 19.5702 58.7295 19.5702 58.8854C19.5702 59.0577 19.4718 59.2108 19.2366 59.3996C19.4499 59.6621 19.6195 59.8727 19.7644 60.0177C19.8984 60.1517 19.9832 60.1626 20.0215 60.1708C20.0461 60.1763 20.0598 60.1763 20.0789 60.1763C20.0981 60.1763 20.109 60.19 20.109 60.2009C20.109 60.2201 20.0926 60.2255 20.0625 60.2255H19.8328C19.6988 60.2255 19.6331 60.2119 19.5702 60.179C19.4663 60.1271 19.376 60.0177 19.242 59.8372C19.1463 59.7114 19.0451 59.5555 19.015 59.5199C19.0013 59.5062 18.9877 59.5035 18.9713 59.5035L18.7552 59.498C18.7442 59.498 18.736 59.5035 18.736 59.5172V59.55C18.736 59.7661 18.7388 59.9466 18.7497 60.045C18.7579 60.1134 18.7689 60.1572 18.8427 60.1681C18.8783 60.1736 18.9302 60.1763 18.9603 60.1763C18.9795 60.1763 18.9904 60.19 18.9904 60.2009C18.9904 60.2173 18.9713 60.2255 18.9412 60.2255C18.8017 60.2255 18.602 60.2173 18.5665 60.2173C18.52 60.2173 18.3668 60.2255 18.2711 60.2255C18.241 60.2255 18.2246 60.2173 18.2246 60.2009C18.2246 60.19 18.2328 60.1763 18.2629 60.1763C18.2984 60.1763 18.3258 60.1736 18.3477 60.1681C18.3969 60.1572 18.4106 60.1134 18.4188 60.045C18.4297 59.9466 18.4297 59.7633 18.4297 59.55ZM18.736 58.6283V59.3202C18.736 59.3449 18.7415 59.3531 18.7579 59.3613C18.8099 59.3777 18.881 59.3832 18.9412 59.3832C19.0369 59.3832 19.0697 59.3749 19.1107 59.3449C19.1846 59.2929 19.2666 59.1917 19.2666 59.0002C19.2666 58.672 19.0424 58.5873 18.9001 58.5873C18.84 58.5873 18.7825 58.59 18.7579 58.5955C18.7415 58.6009 18.736 58.6091 18.736 58.6283ZM20.3047 59.55V59.1397C20.3047 58.7869 20.3047 58.7213 20.302 58.6474C20.2965 58.5681 20.2746 58.5435 20.198 58.5216C20.1789 58.5161 20.1379 58.5134 20.1023 58.5134C20.0777 58.5134 20.0613 58.5052 20.0613 58.4888C20.0613 58.4724 20.0804 58.4669 20.116 58.4669C20.2418 58.4669 20.395 58.4724 20.4633 58.4724C20.5399 58.4724 21.0733 58.4751 21.1198 58.4724C21.1635 58.4696 21.2018 58.4614 21.221 58.4587C21.2346 58.456 21.2483 58.4478 21.2592 58.4478C21.2729 58.4478 21.2757 58.4587 21.2757 58.4696C21.2757 58.4861 21.262 58.5134 21.2565 58.6201C21.2538 58.6447 21.2483 58.7459 21.2428 58.7732C21.2401 58.7842 21.2346 58.8115 21.2155 58.8115C21.1991 58.8115 21.1963 58.8006 21.1963 58.7814C21.1963 58.765 21.1936 58.724 21.1799 58.6967C21.1608 58.6556 21.1416 58.6228 21.0213 58.6119C20.9803 58.6064 20.6931 58.6009 20.6439 58.6009C20.6329 58.6009 20.6274 58.6091 20.6274 58.6228V59.1972C20.6274 59.2108 20.6302 59.2218 20.6439 59.2218C20.6986 59.2218 21.0104 59.2218 21.0651 59.2163C21.1225 59.2108 21.1553 59.2026 21.1799 59.1808C21.1991 59.1643 21.2073 59.1507 21.2182 59.1507C21.2292 59.1507 21.2374 59.1616 21.2374 59.1753C21.2374 59.189 21.2319 59.2273 21.2182 59.3449C21.2127 59.3914 21.2073 59.4843 21.2073 59.5008C21.2073 59.5199 21.2045 59.5527 21.1827 59.5527C21.1663 59.5527 21.1608 59.5445 21.1608 59.5336C21.158 59.509 21.158 59.4789 21.1526 59.4488C21.1389 59.4023 21.1088 59.3667 21.0186 59.3585C20.9748 59.3531 20.7013 59.3476 20.6411 59.3476C20.6302 59.3476 20.6274 59.3585 20.6274 59.3722V59.5582C20.6274 59.6375 20.6247 59.8344 20.6274 59.9028C20.6329 60.0614 20.7068 60.097 20.9529 60.097C21.0158 60.097 21.117 60.0943 21.1799 60.0669C21.2401 60.0396 21.2674 59.9903 21.2839 59.8946C21.2893 59.87 21.2948 59.859 21.3112 59.859C21.3304 59.859 21.3331 59.8891 21.3331 59.9137C21.3331 59.9657 21.3139 60.1243 21.3003 60.1708C21.2839 60.231 21.262 60.231 21.1717 60.231C20.9912 60.231 20.8463 60.2283 20.7286 60.2228C20.611 60.2201 20.5208 60.2173 20.4497 60.2173C20.4223 60.2173 20.3704 60.2201 20.3129 60.2201C20.2555 60.2228 20.1953 60.2255 20.1461 60.2255C20.116 60.2255 20.0996 60.2173 20.0996 60.2009C20.0996 60.19 20.1078 60.1763 20.1379 60.1763C20.1734 60.1763 20.2008 60.1736 20.2227 60.1681C20.2719 60.1572 20.2856 60.1134 20.2938 60.045C20.3047 59.9466 20.3047 59.7633 20.3047 59.55ZM22.5507 59.6375H21.9845C21.9708 59.6375 21.9681 59.6402 21.9626 59.6539L21.8341 59.9684C21.8095 60.0259 21.7985 60.0833 21.7985 60.1107C21.7985 60.1517 21.8204 60.1763 21.8942 60.1763H21.9298C21.9599 60.1763 21.9654 60.1873 21.9654 60.2009C21.9654 60.2201 21.9517 60.2255 21.9271 60.2255C21.8477 60.2255 21.7356 60.2173 21.659 60.2173C21.6344 60.2173 21.5059 60.2255 21.3801 60.2255C21.35 60.2255 21.3363 60.2201 21.3363 60.2009C21.3363 60.1873 21.3445 60.1763 21.3636 60.1763C21.3855 60.1763 21.4129 60.1736 21.4348 60.1736C21.5442 60.1572 21.5852 60.0861 21.6344 59.9684L22.2635 58.5161C22.2908 58.4505 22.31 58.4232 22.3346 58.4232C22.3701 58.4232 22.3811 58.445 22.4057 58.497C22.4631 58.6255 22.8652 59.5664 23.0183 59.9192C23.1113 60.1298 23.1797 60.1599 23.2235 60.1681C23.259 60.1736 23.2864 60.1763 23.3137 60.1763C23.3356 60.1763 23.3466 60.1845 23.3466 60.2009C23.3466 60.2201 23.3329 60.2255 23.2426 60.2255C23.1578 60.2255 22.9828 60.2255 22.7804 60.2201C22.7366 60.2173 22.7093 60.2173 22.7093 60.2009C22.7093 60.1873 22.7148 60.179 22.7394 60.1763C22.7558 60.1736 22.7722 60.1517 22.7613 60.1243L22.5753 59.6539C22.5698 59.6402 22.5616 59.6375 22.5507 59.6375ZM22.0337 59.509H22.4987C22.5096 59.509 22.5124 59.5035 22.5096 59.4953L22.2826 58.9127C22.2799 58.9045 22.2771 58.8908 22.2717 58.8908C22.2635 58.8908 22.2607 58.9045 22.258 58.9127L22.0255 59.4926C22.0201 59.5035 22.0255 59.509 22.0337 59.509ZM23.7497 59.55V58.6091L23.3914 58.6173C23.2519 58.6201 23.1945 58.6365 23.1589 58.6884C23.1343 58.7213 23.1234 58.7514 23.1179 58.7678C23.1124 58.7869 23.107 58.7979 23.0906 58.7979C23.0742 58.7979 23.0687 58.7842 23.0687 58.7596C23.0687 58.7213 23.1152 58.497 23.1207 58.4779C23.1261 58.4478 23.1343 58.4341 23.148 58.4341C23.1671 58.4341 23.1918 58.4532 23.2519 58.4614C23.323 58.4696 23.4133 58.4724 23.4926 58.4724H24.469C24.5456 58.4724 24.5976 58.4669 24.6331 58.4614C24.6714 58.456 24.6906 58.4505 24.6988 58.4505C24.7152 58.4505 24.7179 58.4642 24.7179 58.4997C24.7179 58.549 24.7124 58.7213 24.7124 58.7814C24.7097 58.8061 24.7042 58.8197 24.6906 58.8197C24.6714 58.8197 24.666 58.8088 24.6632 58.7732L24.6605 58.7486C24.655 58.6884 24.5921 58.6173 24.376 58.6146L24.0724 58.6091V59.55C24.0724 59.7633 24.0752 59.9466 24.0861 60.0478C24.0943 60.1134 24.108 60.1572 24.1791 60.1681C24.2119 60.1736 24.2666 60.1763 24.3022 60.1763C24.3295 60.1763 24.3405 60.19 24.3405 60.2009C24.3405 60.2173 24.3213 60.2255 24.294 60.2255C24.1354 60.2255 23.974 60.2173 23.9056 60.2173C23.8509 60.2173 23.6868 60.2255 23.5911 60.2255C23.561 60.2255 23.5446 60.2173 23.5446 60.2009C23.5446 60.19 23.5528 60.1763 23.5829 60.1763C23.6184 60.1763 23.6485 60.1736 23.6677 60.1681C23.7169 60.1572 23.7306 60.1134 23.7388 60.045C23.7497 59.9466 23.7497 59.7633 23.7497 59.55ZM26.3415 59.7414V59.5172C26.3415 59.3695 26.3141 59.3093 26.2786 59.23C26.2594 59.1862 25.8929 58.5845 25.7972 58.4423C25.7288 58.3411 25.6605 58.2727 25.6085 58.2426C25.5729 58.2235 25.5264 58.2071 25.4936 58.2071C25.4717 58.2071 25.4526 58.2016 25.4526 58.1825C25.4526 58.1661 25.4717 58.1579 25.5046 58.1579C25.5538 58.1579 25.7589 58.1661 25.8492 58.1661C25.9066 58.1661 26.0188 58.1579 26.1418 58.1579C26.1692 58.1579 26.1829 58.1661 26.1829 58.1825C26.1829 58.1989 26.1637 58.2016 26.1227 58.2126C26.0981 58.218 26.0844 58.2399 26.0844 58.2618C26.0844 58.2837 26.0981 58.3165 26.1172 58.3548C26.1555 58.4368 26.5384 59.096 26.5822 59.1726C26.6095 59.1069 26.9541 58.5052 26.9924 58.4204C27.0198 58.3602 27.0307 58.3137 27.0307 58.2782C27.0307 58.2508 27.0198 58.2208 26.9733 58.2098C26.9487 58.2043 26.9241 58.1989 26.9241 58.1825C26.9241 58.1633 26.9377 58.1579 26.9705 58.1579C27.0608 58.1579 27.1483 58.1661 27.2276 58.1661C27.2878 58.1661 27.4683 58.1579 27.5203 58.1579C27.5504 58.1579 27.5695 58.1633 27.5695 58.1797C27.5695 58.1989 27.5476 58.2071 27.5176 58.2071C27.4902 58.2071 27.4382 58.218 27.3972 58.2399C27.3398 58.2673 27.3097 58.3001 27.2495 58.3739C27.1593 58.4833 26.7764 59.1261 26.7271 59.2437C26.6861 59.3421 26.6861 59.4269 26.6861 59.5172V59.7414C26.6861 59.7852 26.6861 59.9001 26.6943 60.0149C26.6998 60.0943 26.7244 60.1544 26.8064 60.1654C26.8447 60.1708 26.9049 60.1763 26.9432 60.1763C26.9733 60.1763 26.987 60.1845 26.987 60.1982C26.987 60.2173 26.9651 60.2255 26.9295 60.2255C26.7572 60.2255 26.5849 60.2173 26.5111 60.2173C26.4427 60.2173 26.2704 60.2255 26.1692 60.2255C26.1309 60.2255 26.109 60.2201 26.109 60.1982C26.109 60.1845 26.1227 60.1763 26.1528 60.1763C26.1911 60.1763 26.2239 60.1708 26.2485 60.1654C26.3032 60.1544 26.3278 60.0943 26.3333 60.0149C26.3415 59.9001 26.3415 59.7852 26.3415 59.7414ZM28.4947 60.2556C27.7945 60.2556 27.5101 59.7579 27.5101 59.3449C27.5101 58.9483 27.7891 58.4341 28.5193 58.4341C29.1265 58.4341 29.5039 58.7705 29.5039 59.3038C29.5039 59.8372 29.1156 60.2556 28.4947 60.2556ZM28.5932 60.1298C28.7627 60.1298 29.1457 60.0505 29.1457 59.3886C29.1457 58.8744 28.8366 58.5572 28.4482 58.5572C28.1802 58.5572 27.8657 58.6994 27.8657 59.2737C27.8657 59.7524 28.1392 60.1298 28.5932 60.1298ZM29.931 59.4816V59.1397C29.931 58.7869 29.9338 58.7213 29.9283 58.6474C29.9228 58.5654 29.9009 58.5435 29.8244 58.5216C29.8052 58.5161 29.7642 58.5134 29.7314 58.5134C29.704 58.5134 29.6903 58.5052 29.6903 58.4888C29.6903 58.4724 29.7067 58.4669 29.7423 58.4669C29.8708 58.4669 30.0322 58.4724 30.1033 58.4724C30.1635 58.4724 30.3249 58.4669 30.4124 58.4669C30.4479 58.4669 30.4644 58.4724 30.4644 58.4888C30.4644 58.5052 30.4507 58.5134 30.4261 58.5134C30.3987 58.5134 30.385 58.5161 30.3549 58.5216C30.292 58.5326 30.2729 58.5654 30.2674 58.6474C30.262 58.7213 30.262 58.7869 30.262 59.1397V59.4652C30.262 59.8043 30.3276 59.9356 30.4452 60.0286C30.5519 60.1134 30.6667 60.1216 30.7488 60.1216C30.8527 60.1216 30.9758 60.0915 31.0715 59.9985C31.2055 59.8727 31.211 59.6703 31.211 59.4324V59.1397C31.211 58.7869 31.2083 58.7213 31.2055 58.6474C31.2001 58.5681 31.1809 58.5435 31.1044 58.5216C31.0852 58.5161 31.0442 58.5134 31.0168 58.5134C30.9895 58.5134 30.9758 58.5052 30.9758 58.4888C30.9758 58.4724 30.9922 58.4669 31.025 58.4669C31.1481 58.4669 31.3095 58.4724 31.3122 58.4724C31.3396 58.4724 31.5009 58.4669 31.5939 58.4669C31.6267 58.4669 31.6432 58.4724 31.6432 58.4888C31.6432 58.5052 31.6295 58.5134 31.6021 58.5134C31.5748 58.5134 31.5611 58.5161 31.531 58.5216C31.4654 58.5326 31.449 58.5654 31.4435 58.6474C31.4408 58.7213 31.438 58.7869 31.438 59.1397V59.3886C31.438 59.6484 31.4107 59.922 31.2083 60.0888C31.0387 60.231 30.8555 60.2556 30.6996 60.2556C30.5738 60.2556 30.3249 60.2502 30.1498 60.097C30.0267 59.9903 29.931 59.818 29.931 59.4816ZM32.0595 59.55V59.1397C32.0595 58.7869 32.0595 58.7213 32.0568 58.6474C32.0513 58.5681 32.0294 58.5435 31.9529 58.5216C31.9337 58.5161 31.8927 58.5134 31.8571 58.5134C31.8325 58.5134 31.8161 58.5052 31.8161 58.4888C31.8161 58.4724 31.8352 58.4669 31.8708 58.4669C31.9966 58.4669 32.1498 58.4724 32.199 58.4724C32.2811 58.4724 32.4999 58.4669 32.5737 58.4669C32.7269 58.4669 32.9019 58.4806 33.0305 58.5654C33.0988 58.6119 33.2 58.7295 33.2 58.8854C33.2 59.0577 33.1016 59.2108 32.8664 59.3996C33.0797 59.6621 33.2493 59.8727 33.3942 60.0177C33.5282 60.1517 33.613 60.1626 33.6513 60.1708C33.6759 60.1763 33.6896 60.1763 33.7088 60.1763C33.7279 60.1763 33.7388 60.19 33.7388 60.2009C33.7388 60.2201 33.7224 60.2255 33.6923 60.2255H33.4626C33.3286 60.2255 33.2629 60.2119 33.2 60.179C33.0961 60.1271 33.0058 60.0177 32.8718 59.8372C32.7761 59.7114 32.6749 59.5555 32.6448 59.5199C32.6311 59.5062 32.6175 59.5035 32.6011 59.5035L32.385 59.498C32.3741 59.498 32.3658 59.5035 32.3658 59.5172V59.55C32.3658 59.7661 32.3686 59.9466 32.3795 60.045C32.3877 60.1134 32.3987 60.1572 32.4725 60.1681C32.5081 60.1736 32.56 60.1763 32.5901 60.1763C32.6093 60.1763 32.6202 60.19 32.6202 60.2009C32.6202 60.2173 32.6011 60.2255 32.571 60.2255C32.4315 60.2255 32.2318 60.2173 32.1963 60.2173C32.1498 60.2173 31.9966 60.2255 31.9009 60.2255C31.8708 60.2255 31.8544 60.2173 31.8544 60.2009C31.8544 60.19 31.8626 60.1763 31.8927 60.1763C31.9282 60.1763 31.9556 60.1736 31.9775 60.1681C32.0267 60.1572 32.0404 60.1134 32.0486 60.045C32.0595 59.9466 32.0595 59.7633 32.0595 59.55ZM32.3658 58.6283V59.3202C32.3658 59.3449 32.3713 59.3531 32.3877 59.3613C32.4397 59.3777 32.5108 59.3832 32.571 59.3832C32.6667 59.3832 32.6995 59.3749 32.7405 59.3449C32.8144 59.2929 32.8964 59.1917 32.8964 59.0002C32.8964 58.672 32.6722 58.5873 32.5299 58.5873C32.4698 58.5873 32.4123 58.59 32.3877 58.5955C32.3713 58.6009 32.3658 58.6091 32.3658 58.6283ZM35.0581 60.2638C34.8995 60.2638 34.7764 60.2447 34.6588 60.1927C34.615 60.1736 34.6068 60.1599 34.6068 60.0997C34.6068 59.9493 34.6177 59.7852 34.6205 59.7414C34.6232 59.7004 34.6314 59.6703 34.6533 59.6703C34.6779 59.6703 34.6807 59.6949 34.6807 59.7168C34.6807 59.7524 34.6916 59.8098 34.7053 59.8563C34.7654 60.0587 34.9268 60.1326 35.0964 60.1326C35.3425 60.1326 35.4629 59.9657 35.4629 59.8208C35.4629 59.6867 35.4219 59.5609 35.1948 59.3832L35.069 59.2847C34.7682 59.0495 34.6642 58.858 34.6642 58.6365C34.6642 58.3356 34.9159 58.1196 35.296 58.1196C35.4738 58.1196 35.5887 58.1469 35.6598 58.1661C35.6844 58.1715 35.6981 58.1797 35.6981 58.1989C35.6981 58.2344 35.6872 58.3137 35.6872 58.5271C35.6872 58.5873 35.6789 58.6091 35.6571 58.6091C35.6379 58.6091 35.6297 58.5927 35.6297 58.5599C35.6297 58.5353 35.616 58.4505 35.5586 58.3794C35.5176 58.3274 35.4383 58.2454 35.2605 58.2454C35.0581 58.2454 34.935 58.363 34.935 58.5271C34.935 58.6529 34.9979 58.7486 35.2249 58.9209L35.3015 58.9784C35.6324 59.2273 35.7501 59.416 35.7501 59.6758C35.7501 59.8344 35.6899 60.0232 35.493 60.1517C35.3562 60.2392 35.203 60.2638 35.0581 60.2638ZM37.0684 60.2556C36.3683 60.2556 36.0838 59.7579 36.0838 59.3449C36.0838 58.9483 36.3628 58.4341 37.093 58.4341C37.7002 58.4341 38.0777 58.7705 38.0777 59.3038C38.0777 59.8372 37.6893 60.2556 37.0684 60.2556ZM37.1669 60.1298C37.3365 60.1298 37.7194 60.0505 37.7194 59.3886C37.7194 58.8744 37.4103 58.5572 37.0219 58.5572C36.7539 58.5572 36.4394 58.6994 36.4394 59.2737C36.4394 59.7524 36.7129 60.1298 37.1669 60.1298ZM38.5047 59.4816V59.1397C38.5047 58.7869 38.5075 58.7213 38.502 58.6474C38.4965 58.5654 38.4746 58.5435 38.3981 58.5216C38.3789 58.5161 38.3379 58.5134 38.3051 58.5134C38.2777 58.5134 38.2641 58.5052 38.2641 58.4888C38.2641 58.4724 38.2805 58.4669 38.316 58.4669C38.4446 58.4669 38.6059 58.4724 38.677 58.4724C38.7372 58.4724 38.8986 58.4669 38.9861 58.4669C39.0217 58.4669 39.0381 58.4724 39.0381 58.4888C39.0381 58.5052 39.0244 58.5134 38.9998 58.5134C38.9724 58.5134 38.9588 58.5161 38.9287 58.5216C38.8658 58.5326 38.8466 58.5654 38.8411 58.6474C38.8357 58.7213 38.8357 58.7869 38.8357 59.1397V59.4652C38.8357 59.8043 38.9013 59.9356 39.0189 60.0286C39.1256 60.1134 39.2405 60.1216 39.3225 60.1216C39.4264 60.1216 39.5495 60.0915 39.6452 59.9985C39.7793 59.8727 39.7847 59.6703 39.7847 59.4324V59.1397C39.7847 58.7869 39.782 58.7213 39.7793 58.6474C39.7738 58.5681 39.7547 58.5435 39.6781 58.5216C39.6589 58.5161 39.6179 58.5134 39.5905 58.5134C39.5632 58.5134 39.5495 58.5052 39.5495 58.4888C39.5495 58.4724 39.5659 58.4669 39.5988 58.4669C39.7218 58.4669 39.8832 58.4724 39.8859 58.4724C39.9133 58.4724 40.0746 58.4669 40.1676 58.4669C40.2005 58.4669 40.2169 58.4724 40.2169 58.4888C40.2169 58.5052 40.2032 58.5134 40.1758 58.5134C40.1485 58.5134 40.1348 58.5161 40.1047 58.5216C40.0391 58.5326 40.0227 58.5654 40.0172 58.6474C40.0145 58.7213 40.0117 58.7869 40.0117 59.1397V59.3886C40.0117 59.6484 39.9844 59.922 39.782 60.0888C39.6124 60.231 39.4292 60.2556 39.2733 60.2556C39.1475 60.2556 38.8986 60.2502 38.7235 60.097C38.6005 59.9903 38.5047 59.818 38.5047 59.4816ZM40.956 59.1397V59.55C40.956 59.8481 40.956 59.9958 41.0079 60.0396C41.049 60.0751 41.142 60.0888 41.3279 60.0888C41.4565 60.0888 41.5495 60.0861 41.6096 60.0232C41.6397 59.9931 41.6644 59.9274 41.6698 59.8837C41.6726 59.8618 41.678 59.8481 41.6972 59.8481C41.7136 59.8481 41.7191 59.8727 41.7191 59.9001C41.7191 59.9274 41.7026 60.0997 41.6835 60.1681C41.6671 60.2201 41.6561 60.231 41.5303 60.231C41.358 60.231 41.2185 60.2283 41.0982 60.2228C40.9779 60.2201 40.8767 60.2173 40.7782 60.2173C40.7508 60.2173 40.6989 60.2201 40.6414 60.2201C40.584 60.2228 40.5238 60.2255 40.4746 60.2255C40.4445 60.2255 40.4281 60.2173 40.4281 60.2009C40.4281 60.19 40.4363 60.1763 40.4664 60.1763C40.502 60.1763 40.5293 60.1736 40.5512 60.1681C40.6004 60.1572 40.6141 60.1134 40.6223 60.045C40.6332 59.9466 40.6332 59.7633 40.6332 59.55V59.1397C40.6332 58.7869 40.6332 58.7213 40.6305 58.6474C40.625 58.5681 40.6032 58.5435 40.5266 58.5216C40.5074 58.5161 40.4773 58.5134 40.4473 58.5134C40.4199 58.5134 40.4062 58.5052 40.4062 58.4888C40.4062 58.4724 40.4226 58.4669 40.4582 58.4669C40.5703 58.4669 40.7235 58.4724 40.7891 58.4724C40.8466 58.4724 41.0435 58.4669 41.1365 58.4669C41.172 58.4669 41.1885 58.4724 41.1885 58.4888C41.1885 58.5052 41.1748 58.5134 41.1447 58.5134C41.1173 58.5134 41.0791 58.5161 41.0517 58.5216C40.9861 58.5326 40.9669 58.5654 40.9614 58.6474C40.956 58.7213 40.956 58.7869 40.956 59.1397ZM43.6324 59.6375H43.0662C43.0526 59.6375 43.0498 59.6402 43.0444 59.6539L42.9158 59.9684C42.8912 60.0259 42.8802 60.0833 42.8802 60.1107C42.8802 60.1517 42.9021 60.1763 42.976 60.1763H43.0115C43.0416 60.1763 43.0471 60.1873 43.0471 60.2009C43.0471 60.2201 43.0334 60.2255 43.0088 60.2255C42.9295 60.2255 42.8173 60.2173 42.7408 60.2173C42.7161 60.2173 42.5876 60.2255 42.4618 60.2255C42.4317 60.2255 42.418 60.2201 42.418 60.2009C42.418 60.1873 42.4262 60.1763 42.4454 60.1763C42.4673 60.1763 42.4946 60.1736 42.5165 60.1736C42.6259 60.1572 42.6669 60.0861 42.7161 59.9684L43.3452 58.5161C43.3726 58.4505 43.3917 58.4232 43.4163 58.4232C43.4519 58.4232 43.4628 58.445 43.4874 58.497C43.5449 58.6255 43.9469 59.5664 44.1001 59.9192C44.1931 60.1298 44.2614 60.1599 44.3052 60.1681C44.3408 60.1736 44.3681 60.1763 44.3955 60.1763C44.4173 60.1763 44.4283 60.1845 44.4283 60.2009C44.4283 60.2201 44.4146 60.2255 44.3244 60.2255C44.2396 60.2255 44.0645 60.2255 43.8621 60.2201C43.8184 60.2173 43.791 60.2173 43.791 60.2009C43.791 60.1873 43.7965 60.179 43.8211 60.1763C43.8375 60.1736 43.8539 60.1517 43.843 60.1243L43.657 59.6539C43.6515 59.6402 43.6433 59.6375 43.6324 59.6375ZM43.1155 59.509H43.5804C43.5914 59.509 43.5941 59.5035 43.5914 59.4953L43.3644 58.9127C43.3616 58.9045 43.3589 58.8908 43.3534 58.8908C43.3452 58.8908 43.3425 58.9045 43.3397 58.9127L43.1073 59.4926C43.1018 59.5035 43.1073 59.509 43.1155 59.509ZM44.8135 58.9592L44.8408 59.9083C44.8463 60.0888 44.8764 60.1435 44.9229 60.1599C44.9639 60.1736 45.0104 60.1763 45.0487 60.1763C45.076 60.1763 45.0897 60.1873 45.0897 60.2009C45.0897 60.2201 45.0678 60.2255 45.035 60.2255C44.8791 60.2255 44.767 60.2173 44.7232 60.2173C44.7013 60.2173 44.5865 60.2255 44.4634 60.2255C44.4306 60.2255 44.4087 60.2228 44.4087 60.2009C44.4087 60.1873 44.4251 60.1763 44.447 60.1763C44.4798 60.1763 44.5236 60.1736 44.5564 60.1654C44.6193 60.149 44.6275 60.0861 44.6302 59.8837L44.6521 58.5052C44.6521 58.4587 44.6685 58.4259 44.6931 58.4259C44.7232 58.4259 44.756 58.4614 44.7971 58.5025C44.8272 58.5326 45.1882 58.9018 45.5383 59.2437C45.7024 59.405 46.0224 59.7332 46.0579 59.7661H46.0689L46.0442 58.7322C46.0415 58.59 46.0196 58.549 45.9622 58.5271C45.9266 58.5134 45.8692 58.5134 45.8364 58.5134C45.8063 58.5134 45.7981 58.5025 45.7981 58.4888C45.7981 58.4696 45.8227 58.4669 45.8583 58.4669C45.9841 58.4669 46.1126 58.4724 46.1646 58.4724C46.1919 58.4724 46.2822 58.4669 46.3998 58.4669C46.4326 58.4669 46.4545 58.4696 46.4545 58.4888C46.4545 58.5025 46.4408 58.5134 46.4135 58.5134C46.3889 58.5134 46.3697 58.5134 46.3396 58.5216C46.274 58.5408 46.2548 58.5818 46.2521 58.7131L46.2248 60.179C46.2248 60.231 46.2056 60.2529 46.1865 60.2529C46.1454 60.2529 46.1126 60.2283 46.088 60.2037C45.9376 60.0642 45.6367 59.777 45.3851 59.5336C45.1225 59.282 44.8682 59.0002 44.8217 58.9592H44.8135ZM46.9901 59.55V59.1397C46.9901 58.7869 46.9901 58.7213 46.9873 58.6474C46.9819 58.5681 46.96 58.5435 46.8834 58.5216C46.8643 58.5161 46.8232 58.5134 46.7877 58.5134C46.7631 58.5134 46.7467 58.5052 46.7467 58.4888C46.7467 58.4724 46.7658 58.4669 46.8014 58.4669C46.9272 58.4669 47.0803 58.4724 47.1487 58.4724C47.2226 58.4724 47.3949 58.4669 47.5398 58.4669C47.8407 58.4669 48.2455 58.4669 48.508 58.7322C48.6284 58.8526 48.735 59.0467 48.735 59.323C48.735 59.6156 48.6092 59.8372 48.4725 59.9712C48.3631 60.0806 48.1087 60.2447 47.6656 60.2447C47.5781 60.2447 47.4742 60.2365 47.3785 60.231C47.2827 60.2228 47.1952 60.2173 47.135 60.2173C47.1077 60.2173 47.0557 60.2201 46.9983 60.2201C46.9408 60.2228 46.8807 60.2255 46.8314 60.2255C46.8014 60.2255 46.7849 60.2173 46.7849 60.2009C46.7849 60.19 46.7932 60.1763 46.8232 60.1763C46.8588 60.1763 46.8861 60.1736 46.908 60.1681C46.9573 60.1572 46.9709 60.1134 46.9791 60.045C46.9901 59.9466 46.9901 59.7633 46.9901 59.55ZM47.3128 59.1042V59.3968C47.3128 59.643 47.3155 59.8208 47.3183 59.8673C47.321 59.9247 47.3265 60.0067 47.3456 60.0314C47.3757 60.0751 47.4714 60.1243 47.6602 60.1243C47.879 60.1243 48.0403 60.0861 48.1853 59.9657C48.3412 59.8372 48.3904 59.6293 48.3904 59.3886C48.3904 59.0932 48.2728 58.9018 48.1661 58.8088C47.9446 58.6119 47.682 58.5873 47.4933 58.5873C47.4441 58.5873 47.3648 58.5927 47.3456 58.6037C47.3238 58.6119 47.3155 58.6228 47.3155 58.6502C47.3128 58.7295 47.3128 58.9209 47.3128 59.1042ZM50.1377 59.4324V58.951C50.1377 58.5353 50.1377 58.4587 50.1323 58.3712C50.1268 58.2782 50.1049 58.2344 50.0147 58.2153C49.9928 58.2098 49.9463 58.2071 49.908 58.2071C49.8779 58.2071 49.8615 58.2016 49.8615 58.1825C49.8615 58.1633 49.8806 58.1579 49.9217 58.1579C50.0666 58.1579 50.2389 58.1661 50.2936 58.1661C50.4276 58.1661 50.5343 58.1579 50.6273 58.1579C51.1223 58.1579 51.2099 58.4232 51.2099 58.5681C51.2099 58.7924 51.0813 58.9264 50.9309 59.0467C51.1552 59.1233 51.4287 59.3175 51.4287 59.6375C51.4287 59.9302 51.2017 60.2337 50.6984 60.2337C50.6656 60.2337 50.5863 60.2283 50.507 60.2255C50.4249 60.2201 50.3429 60.2173 50.3018 60.2173C50.2717 60.2173 50.2116 60.2173 50.1459 60.2201C50.083 60.2201 50.0119 60.2255 49.9572 60.2255C49.9217 60.2255 49.9025 60.2173 49.9025 60.1982C49.9025 60.1845 49.9135 60.1763 49.9463 60.1763C49.9873 60.1763 50.0201 60.1708 50.0447 60.1654C50.0994 60.1544 50.1131 60.0943 50.1241 60.0149C50.1377 59.9001 50.1377 59.684 50.1377 59.4324ZM50.4659 58.322V58.9975C50.4659 59.0194 50.4741 59.0249 50.4851 59.0276C50.5097 59.0331 50.5507 59.0358 50.6136 59.0358C50.7039 59.0358 50.7641 59.0249 50.8105 58.9838C50.8817 58.9264 50.9227 58.8279 50.9227 58.6939C50.9227 58.5107 50.816 58.27 50.5808 58.27C50.5425 58.27 50.5179 58.27 50.4905 58.2755C50.4714 58.2809 50.4659 58.2919 50.4659 58.322ZM51.0923 59.7606C51.0923 59.591 51.0348 59.3613 50.827 59.2163C50.7695 59.1753 50.7066 59.1561 50.6 59.1507C50.5507 59.1479 50.5234 59.1479 50.4823 59.1479C50.4714 59.1479 50.4659 59.1534 50.4659 59.1671V59.8153C50.4659 59.9958 50.4741 60.0423 50.5617 60.0779C50.6355 60.1079 50.6984 60.1107 50.7613 60.1107C50.8844 60.1107 51.0923 60.045 51.0923 59.7606ZM52.6854 60.2556C51.9852 60.2556 51.7008 59.7579 51.7008 59.3449C51.7008 58.9483 51.9798 58.4341 52.71 58.4341C53.3172 58.4341 53.6947 58.7705 53.6947 59.3038C53.6947 59.8372 53.3063 60.2556 52.6854 60.2556ZM52.7839 60.1298C52.9535 60.1298 53.3364 60.0505 53.3364 59.3886C53.3364 58.8744 53.0273 58.5572 52.6389 58.5572C52.3709 58.5572 52.0564 58.6994 52.0564 59.2737C52.0564 59.7524 52.3299 60.1298 52.7839 60.1298ZM54.1429 59.55V59.1397C54.1429 58.7869 54.1429 58.7213 54.1401 58.6474C54.1347 58.5681 54.1128 58.5435 54.0362 58.5216C54.017 58.5161 53.976 58.5134 53.9405 58.5134C53.9158 58.5134 53.8994 58.5052 53.8994 58.4888C53.8994 58.4724 53.9186 58.4669 53.9541 58.4669C54.08 58.4669 54.2331 58.4724 54.3015 58.4724C54.3753 58.4724 54.5476 58.4669 54.6926 58.4669C54.9935 58.4669 55.3982 58.4669 55.6608 58.7322C55.7811 58.8526 55.8878 59.0467 55.8878 59.323C55.8878 59.6156 55.762 59.8372 55.6253 59.9712C55.5158 60.0806 55.2615 60.2447 54.8184 60.2447C54.7309 60.2447 54.627 60.2365 54.5312 60.231C54.4355 60.2228 54.348 60.2173 54.2878 60.2173C54.2605 60.2173 54.2085 60.2201 54.1511 60.2201C54.0936 60.2228 54.0335 60.2255 53.9842 60.2255C53.9541 60.2255 53.9377 60.2173 53.9377 60.2009C53.9377 60.19 53.9459 60.1763 53.976 60.1763C54.0116 60.1763 54.0389 60.1736 54.0608 60.1681C54.11 60.1572 54.1237 60.1134 54.1319 60.045C54.1429 59.9466 54.1429 59.7633 54.1429 59.55ZM54.4656 59.1042V59.3968C54.4656 59.643 54.4683 59.8208 54.4711 59.8673C54.4738 59.9247 54.4793 60.0067 54.4984 60.0314C54.5285 60.0751 54.6242 60.1243 54.8129 60.1243C55.0317 60.1243 55.1931 60.0861 55.3381 59.9657C55.494 59.8372 55.5432 59.6293 55.5432 59.3886C55.5432 59.0932 55.4256 58.9018 55.3189 58.8088C55.0974 58.6119 54.8348 58.5873 54.6461 58.5873C54.5969 58.5873 54.5176 58.5927 54.4984 58.6037C54.4765 58.6119 54.4683 58.6228 54.4683 58.6502C54.4656 58.7295 54.4656 58.9209 54.4656 59.1042ZM56.6757 59.8126V59.6211C56.6757 59.4953 56.6538 59.4461 56.621 59.3777C56.6045 59.3421 56.2763 58.8307 56.1916 58.7076C56.1314 58.6228 56.0822 58.5681 56.0357 58.5435C56.0056 58.5271 55.9645 58.5134 55.9345 58.5134C55.9153 58.5134 55.8989 58.5052 55.8989 58.4888C55.8989 58.4724 55.9153 58.4669 55.9454 58.4669C55.9864 58.4669 56.1669 58.4724 56.2463 58.4724C56.2982 58.4724 56.4104 58.4669 56.5198 58.4669C56.5416 58.4669 56.5553 58.4724 56.5553 58.4888C56.5553 58.5079 56.5389 58.5079 56.5006 58.5189C56.4815 58.5243 56.4678 58.5353 56.4678 58.5544C56.4678 58.5736 56.4787 58.6009 56.4979 58.6337C56.5416 58.7049 56.8562 59.2491 56.8972 59.3148C56.9273 59.2601 57.2199 58.7623 57.2555 58.6912C57.2801 58.6392 57.291 58.5982 57.291 58.5681C57.291 58.5462 57.2801 58.5243 57.2391 58.5161C57.2172 58.5107 57.1953 58.5079 57.1953 58.4888C57.1953 58.4724 57.209 58.4669 57.2363 58.4669C57.3157 58.4669 57.4004 58.4724 57.4716 58.4724C57.5235 58.4724 57.6822 58.4669 57.7286 58.4669C57.756 58.4669 57.7724 58.4724 57.7724 58.4861C57.7724 58.5025 57.7533 58.5134 57.7259 58.5134C57.7013 58.5134 57.6575 58.5243 57.622 58.5408C57.57 58.5654 57.5481 58.5873 57.4962 58.6502C57.4169 58.7432 57.0722 59.2956 57.0285 59.3941C56.9929 59.4789 56.9984 59.55 56.9984 59.6266V59.8126C56.9984 59.8508 56.9984 59.9466 57.0039 60.045C57.0093 60.1134 57.0312 60.1572 57.1023 60.1681C57.1379 60.1736 57.1898 60.1763 57.2227 60.1763C57.25 60.1763 57.2637 60.19 57.2637 60.2009C57.2637 60.2173 57.2445 60.2255 57.2117 60.2255C57.0613 60.2255 56.8999 60.2173 56.8343 60.2173C56.7741 60.2173 56.6127 60.2255 56.5225 60.2255C56.4897 60.2255 56.4705 60.2201 56.4705 60.2009C56.4705 60.19 56.4815 60.1763 56.5088 60.1763C56.5416 60.1763 56.5717 60.1736 56.5936 60.1681C56.6428 60.1572 56.662 60.1134 56.6675 60.045C56.6757 59.9466 56.6757 59.8508 56.6757 59.8126ZM58.2631 58.1004C58.2631 58.2645 58.0908 58.5517 57.9677 58.6775C57.9513 58.6912 57.9376 58.6967 57.924 58.6967C57.9158 58.6967 57.9076 58.6912 57.9076 58.683C57.9076 58.6748 57.913 58.6666 57.924 58.6474C57.9787 58.5572 58.0279 58.3958 58.0279 58.229C58.0279 58.1387 57.9869 58.0649 57.9623 58.043C57.9349 58.0156 57.9322 58.0074 57.9322 57.9937C57.9322 57.9855 57.9513 57.9746 57.9623 57.9746C58.0142 57.9746 58.1346 58.0102 58.1838 58.0238C58.2522 58.0457 58.2631 58.0594 58.2631 58.1004ZM58.4382 58.229C58.4382 58.1387 58.3971 58.0649 58.3725 58.043C58.3452 58.0156 58.3424 58.0074 58.3424 57.9937C58.3424 57.9855 58.3616 57.9746 58.3725 57.9746C58.4245 57.9746 58.5448 58.0102 58.5941 58.0238C58.6624 58.0457 58.6734 58.0594 58.6734 58.1004C58.6734 58.2645 58.5038 58.5544 58.3807 58.6775C58.3643 58.6912 58.3506 58.6967 58.337 58.6967C58.3288 58.6967 58.3205 58.6912 58.3205 58.683C58.3205 58.6748 58.3233 58.6666 58.3342 58.6474C58.3889 58.5572 58.4382 58.3958 58.4382 58.229Z" fill="#CBA437"/>
<defs>
<filter id="filter0_dddd_100_2759" x="14.221" y="9.76674" width="44.2739" height="38.2193" filterUnits="userSpaceOnUse" color-interpolation-filters="sRGB">
<feFlood flood-opacity="0" result="BackgroundImageFix"/>
<feColorMatrix in="SourceAlpha" type="matrix" values="0 0 0 0 0 0 0 0 0 0 0 0 0 0 0 0 0 0 127 0" result="hardAlpha"/>
<feOffset dx="0.313423"/>
<feGaussianBlur stdDeviation="0.0783558"/>
<feComposite in2="hardAlpha" operator="out"/>
<feColorMatrix type="matrix" values="0 0 0 0 0.811765 0 0 0 0 0.658824 0 0 0 0 0.215686 0 0 0 1 0"/>
<feBlend mode="normal" in2="BackgroundImageFix" result="effect1_dropShadow_100_2759"/>
<feColorMatrix in="SourceAlpha" type="matrix" values="0 0 0 0 0 0 0 0 0 0 0 0 0 0 0 0 0 0 127 0" result="hardAlpha"/>
<feOffset dy="0.313423"/>
<feGaussianBlur stdDeviation="0.0783558"/>
<feComposite in2="hardAlpha" operator="out"/>
<feColorMatrix type="matrix" values="0 0 0 0 0.819608 0 0 0 0 0.67451 0 0 0 0 0.215686 0 0 0 1 0"/>
<feBlend mode="normal" in2="effect1_dropShadow_100_2759" result="effect2_dropShadow_100_2759"/>
<feColorMatrix in="SourceAlpha" type="matrix" values="0 0 0 0 0 0 0 0 0 0 0 0 0 0 0 0 0 0 127 0" result="hardAlpha"/>
<feOffset dx="-0.313423"/>
<feGaussianBlur stdDeviation="0.0783558"/>
<feComposite in2="hardAlpha" operator="out"/>
<feColorMatrix type="matrix" values="0 0 0 0 0.768627 0 0 0 0 0.607843 0 0 0 0 0.219608 0 0 0 1 0"/>
<feBlend mode="normal" in2="effect2_dropShadow_100_2759" result="effect3_dropShadow_100_2759"/>
<feColorMatrix in="SourceAlpha" type="matrix" values="0 0 0 0 0 0 0 0 0 0 0 0 0 0 0 0 0 0 127 0" result="hardAlpha"/>
<feOffset dy="-0.313423"/>
<feGaussianBlur stdDeviation="0.0783558"/>
<feComposite in2="hardAlpha" operator="out"/>
<feColorMatrix type="matrix" values="0 0 0 0 0.768627 0 0 0 0 0.607843 0 0 0 0 0.219608 0 0 0 1 0"/>
<feBlend mode="normal" in2="effect3_dropShadow_100_2759" result="effect4_dropShadow_100_2759"/>
<feBlend mode="normal" in="SourceGraphic" in2="effect4_dropShadow_100_2759" result="shape"/>
</filter>
<linearGradient id="paint0_linear_100_2759" x1="29.4309" y1="17.4822" x2="45.2735" y2="33.6382" gradientUnits="userSpaceOnUse">
<stop stop-color="#D4AF37"/>
<stop offset="1" stop-color="#C49A3A"/>
</linearGradient>
<linearGradient id="paint1_linear_100_2759" x1="48.73" y1="24.9481" x2="44.0633" y2="45.1634" gradientUnits="userSpaceOnUse">
<stop stop-color="#D4AF37"/>
<stop offset="1" stop-color="#C49A3A"/>
</linearGradient>
<linearGradient id="paint2_linear_100_2759" x1="40.6433" y1="20.7264" x2="46.1583" y2="40.6825" gradientUnits="userSpaceOnUse">
<stop stop-color="#D4AF37"/>
<stop offset="1" stop-color="#C49A3A"/>
</linearGradient>
<linearGradient id="paint3_linear_100_2759" x1="32.0324" y1="20.7264" x2="26.5174" y2="40.6825" gradientUnits="userSpaceOnUse">
<stop stop-color="#D4AF37"/>
<stop offset="1" stop-color="#C49A3A"/>
</linearGradient>
<linearGradient id="paint4_linear_100_2759" x1="23.9857" y1="24.9481" x2="28.6525" y2="45.1634" gradientUnits="userSpaceOnUse">
<stop stop-color="#D4AF37"/>
<stop offset="1" stop-color="#C49A3A"/>
</linearGradient>
</defs>
</svg>
