<svg width="888" height="674" viewBox="0 0 888 674" fill="none" xmlns="http://www.w3.org/2000/svg">
<path d="M346.5 196.955C349.754 132.689 382.536 70.5894 437.254 24.3602C479.568 55.352 519.383 115.79 529.238 183.49C534.376 218.786 531.353 255.872 516.481 291.904C502.409 325.999 477.429 359.861 437.474 390.577C369.443 330.389 343.245 261.272 346.5 196.955Z" stroke="url(#paint0_linear_192_614)" stroke-width="25.0677" stroke-linecap="round" stroke-linejoin="round"/>
<path d="M529.767 237.079C575.714 209.292 636.22 206.257 695.474 225.049C697.734 275.865 675.494 340.966 633.086 383.854C610.908 406.283 583.6 422.242 551.885 427.225C522.028 431.916 487.338 427.025 448.096 407.266C450.002 319.196 483.611 264.992 529.767 237.079Z" stroke="url(#paint1_linear_192_614)" stroke-width="25.0677" stroke-linecap="round" stroke-linejoin="round"/>
<path d="M451.518 210.063C482.266 162.823 535.71 130.894 596.446 119.275C618.07 164.016 623.111 233.454 601.393 292.588C590.034 323.513 571.551 351.085 544.848 370.882C519.704 389.523 486.5 401.843 443.456 402.938C411.227 322.586 420.643 257.499 451.518 210.063Z" stroke="url(#paint2_linear_192_614)" stroke-width="25.0677" stroke-linecap="round" stroke-linejoin="round"/>
<path d="M422.504 210.063C391.757 162.823 338.312 130.894 277.576 119.275C255.952 164.016 250.911 233.454 272.63 292.588C283.988 323.513 302.472 351.085 329.175 370.882C354.318 389.523 387.522 401.843 430.566 402.938C462.795 322.586 453.379 257.499 422.504 210.063Z" stroke="url(#paint3_linear_192_614)" stroke-width="25.0677" stroke-linecap="round" stroke-linejoin="round"/>
<path d="M344.768 237.079C298.821 209.292 238.315 206.257 179.061 225.049C176.801 275.865 199.041 340.966 241.449 383.854C263.627 406.283 290.935 422.242 322.65 427.225C352.507 431.916 387.197 427.025 426.439 407.266C424.533 319.196 390.924 264.992 344.768 237.079Z" stroke="url(#paint4_linear_192_614)" stroke-width="25.0677" stroke-linecap="round" stroke-linejoin="round"/>
<ellipse cx="436.313" cy="116.3" rx="20.3126" ry="20.3002" fill="#D4AF37"/>
<path d="M118.392 413.534C122.446 418.691 124.189 424.523 123.62 431.032C123.691 434.304 123.264 437.523 122.339 440.688C121.343 443.782 120.383 445.81 119.458 446.77C118.818 447.446 118.125 447.855 117.378 447.997C116.595 447.997 115.795 447.766 114.977 447.303C113.875 446.77 112.879 446.236 111.99 445.703C111.954 445.667 111.759 445.561 111.403 445.383C111.083 445.169 110.834 445.009 110.656 444.903C110.478 444.796 110.229 444.636 109.909 444.422C109.625 444.209 109.393 444.013 109.216 443.836C109.073 443.658 108.913 443.462 108.735 443.249C108.593 443 108.522 442.769 108.522 442.555C108.486 442.093 108.593 441.666 108.842 441.275C109.127 440.848 109.571 440.35 110.176 439.781C110.78 439.177 111.118 438.839 111.189 438.768C112.043 437.878 112.914 436.776 113.804 435.46C117.076 430.907 118.747 425.839 118.818 420.256C118.818 420.078 118.783 419.829 118.712 419.509C118.64 419.189 118.605 418.975 118.605 418.868C118.534 418.086 118.463 417.535 118.392 417.215C118.071 416.077 117.556 415.01 116.844 414.014C113.252 409.283 108.664 410.564 103.08 417.855C96.8564 426.924 93.9045 436.971 94.2246 447.997C94.2246 452.692 94.7936 457.564 95.9317 462.614C97.1054 467.629 98.5636 472.413 100.306 476.965C102.085 481.518 103.881 486.017 105.695 490.462C107.508 494.908 109.18 499.656 110.709 504.707C112.239 509.721 113.234 514.469 113.697 518.951C114.195 523.574 113.804 528.109 112.523 532.555C111.278 536.965 109.465 540.93 107.082 544.451C104.699 547.972 101.747 551.369 98.2257 554.641C94.7047 557.913 91.1303 560.74 87.5026 563.123C83.8749 565.506 79.9805 567.747 75.8193 569.845C71.4091 572.086 66.9634 573.989 62.4821 575.554C58.0008 577.118 53.2172 578.381 48.1313 579.341C43.0454 580.302 38.0128 580.462 33.0336 579.821C28.09 579.181 23.6442 577.67 19.6964 575.287C19.1274 574.967 18.6472 574.647 18.256 574.327C17.9004 574.006 17.6514 573.74 17.5091 573.526C17.3669 573.348 17.3313 573.206 17.4024 573.1C12.2098 569.685 8.74217 565.008 6.99945 559.069C2.98051 544.451 7.71077 526.135 21.1902 504.12C25.8493 496.011 31.6465 488.791 38.5819 482.46C40.5736 480.255 42.9743 478.672 45.7839 477.712C48.5936 476.716 51.4567 476.485 54.3731 477.019C57.6096 478.121 60.5438 479.757 63.1756 481.927C64.2782 482.816 64.9361 483.58 65.1495 484.221C65.2918 484.647 64.9539 484.772 64.1359 484.594C64.0648 484.558 64.0114 484.541 63.9759 484.541C63.1223 484.327 62.1264 484.434 60.9883 484.861C59.8502 485.252 58.5521 485.981 57.0939 487.048C55.6712 488.115 54.6043 488.951 53.893 489.555C53.2172 490.125 52.2214 491.014 50.9054 492.223C50.7987 492.33 50.7098 492.419 50.6387 492.49C50.5675 492.525 50.4964 492.579 50.4253 492.65C37.1237 504.635 26.6673 518.684 19.0563 534.795C18.0604 537 17.1713 539.188 16.3888 541.357C15.6419 543.527 14.9306 545.927 14.2549 548.559C13.5791 551.191 13.1879 553.716 13.0812 556.135C13.0101 558.553 13.1701 560.918 13.5613 563.23C13.9526 565.542 14.8239 567.676 16.1754 569.632C17.5625 571.588 19.3586 573.224 21.5636 574.54C23.6265 575.536 26.0449 576.105 28.8191 576.247C31.5932 576.425 34.2962 576.265 36.9281 575.767C39.5955 575.305 42.423 574.593 45.4105 573.633C48.398 572.673 51.0121 571.712 53.2528 570.752C55.4934 569.792 57.7163 568.76 59.9214 567.658C70.3777 562.323 79.1624 554.908 86.2756 545.412C90.7213 540.219 93.94 534.333 95.9317 527.753C97.959 521.173 98.5814 514.487 97.7989 507.694C94.4202 494.037 89.9745 480.557 84.4618 467.256C80.3717 456.23 79.1624 444.885 80.834 433.219C81.5098 429.876 82.6123 426.586 84.1417 423.35C85.7066 420.078 87.8405 417.072 90.5435 414.334C93.2465 411.595 96.1985 409.817 99.3994 408.999C102.351 408.288 105.339 408.199 108.362 408.732C111.385 409.23 114.177 410.315 116.738 411.986C117.271 412.413 117.751 412.893 118.178 413.427C118.214 413.462 118.249 413.48 118.285 413.48C118.32 413.48 118.356 413.498 118.392 413.534ZM172.647 503.213C173.536 504.244 174.159 505.329 174.514 506.467C174.87 507.57 174.941 508.814 174.728 510.201C174.514 511.553 174.283 512.673 174.034 513.562C173.821 514.416 173.376 515.679 172.7 517.35C172.06 519.022 171.651 520.142 171.473 520.711C169.055 528.002 166.014 534.955 162.351 541.57C160.822 544.914 158.723 547.634 156.056 549.733C153.139 551.298 150.152 551.333 147.093 549.839C142.683 548.168 138.611 546.123 134.876 543.704C133.667 542.958 132.564 542.211 131.569 541.464C131.355 542.104 130.84 543.598 130.022 545.945C129.204 548.257 128.563 550.053 128.101 551.333C125.825 557.415 122.926 564.795 119.405 573.473C119.049 574.327 118.445 575.714 117.591 577.634C116.702 579.59 116.009 581.173 115.511 582.382C114.977 583.627 114.462 585.174 113.964 587.024C113.466 588.873 113.234 590.473 113.27 591.825C113.306 593.176 113.661 594.599 114.337 596.093C114.977 597.587 115.991 598.885 117.378 599.987C118.196 600.627 118.249 600.876 117.538 600.734C116.293 600.45 114.728 599.792 112.843 598.76C112.665 598.654 112.541 598.582 112.47 598.547C109.802 596.697 107.74 594.581 106.281 592.198C104.788 589.815 103.881 587.255 103.561 584.516C103.24 581.813 103.258 579.128 103.614 576.46C103.97 573.793 104.645 570.894 105.641 567.765C105.961 566.733 106.922 563.621 108.522 558.429C110.122 553.272 111.385 549.324 112.31 546.585C120.17 523.645 127.123 504.938 133.169 490.462C133.347 490 134.627 490.249 137.01 491.209C139.393 492.17 141.669 493.397 143.839 494.89C146.044 496.349 147.004 497.487 146.72 498.305C144.906 503.319 143.145 508.334 141.438 513.349C145.528 506.52 150.241 499.905 155.576 493.503C156.145 492.863 158.012 493.557 161.177 495.584C161.568 495.833 162.191 496.242 163.044 496.811C166.743 498.234 169.944 500.367 172.647 503.213ZM133.756 540.237C133.4 540.023 133.062 539.846 132.742 539.703C133.062 539.846 133.365 539.988 133.649 540.13L133.756 540.237ZM160.697 503.373V503.426C161.266 502.146 161.462 500.865 161.284 499.585C159.897 500.332 158.688 501.15 157.656 502.039C156.091 503.319 154.42 504.849 152.641 506.627C149.583 509.828 146.826 513.047 144.372 516.283C143.554 517.386 142.31 519.04 140.638 521.245C139.002 523.414 137.775 525.05 136.957 526.153C135.961 529.069 134.432 533.444 132.369 539.276C132.547 539.348 132.796 539.49 133.116 539.703C133.471 539.917 133.738 540.077 133.916 540.183C134.129 540.29 134.396 540.45 134.716 540.664C135.072 540.877 135.303 541.001 135.41 541.037C135.552 541.108 135.801 541.197 136.157 541.304C136.512 541.41 136.761 541.499 136.904 541.57C136.797 541.57 136.797 541.588 136.904 541.624C137.259 541.659 137.508 541.677 137.65 541.677H137.704H137.757H137.81H137.864H137.97H138.024H138.077H138.184H138.237H138.771C140.193 541.357 141.403 540.646 142.398 539.543C146.844 534.422 150.241 528.785 152.588 522.632C155.789 515.625 158.492 509.206 160.697 503.373ZM222.368 516.657C222.119 517.297 221.443 518.293 220.341 519.644C219.274 520.996 218.652 522.116 218.474 523.005C218.225 524.25 218.189 525.619 218.367 527.113C218.438 527.433 218.616 527.913 218.9 528.553L219.114 529.194L219.061 529.14C219.558 529.78 219.416 530.029 218.634 529.887C218.1 529.78 217.585 529.603 217.087 529.354C215.771 528.82 214.437 528.144 213.085 527.326C211.77 526.473 210.507 525.459 209.298 524.285C208.088 523.076 207.11 521.849 206.364 520.604C205.652 519.324 205.314 517.937 205.35 516.443C205.385 514.914 205.919 513.456 206.95 512.069C207.982 510.931 208.818 509.686 209.458 508.334C209.885 507.232 210.276 505.916 210.631 504.386C210.454 504.564 210.098 504.867 209.564 505.293C209.067 505.72 208.693 506.058 208.444 506.307C205.457 509.294 202.629 512.584 199.962 516.176C199.179 517.172 198.023 518.702 196.494 520.764C194.965 522.792 193.827 524.321 193.08 525.352C192.262 527.806 191.373 529.994 190.412 531.914C190.27 532.163 189.897 532.857 189.292 533.995C188.687 535.133 188.278 535.915 188.065 536.342C187.887 536.734 187.567 537.48 187.105 538.583C186.642 539.65 186.358 540.468 186.251 541.037C186.144 541.57 186.038 542.317 185.931 543.278C185.824 544.202 185.878 544.985 186.091 545.625C186.304 546.265 186.625 546.959 187.051 547.706C187.514 548.452 188.118 549.128 188.865 549.733C189.079 549.911 189.239 550.053 189.345 550.16C189.452 550.266 189.523 550.373 189.559 550.48C189.594 550.586 189.559 550.675 189.452 550.746C189.381 550.818 189.221 550.853 188.972 550.853C188.332 550.889 186.945 550.231 184.811 548.879C182.214 547.563 179.956 545.821 178.035 543.651C176.115 541.446 174.692 538.974 173.767 536.236C173.234 532.466 173.785 528.82 175.421 525.299C176.097 523.45 177.235 520.267 178.836 515.75C180.436 511.233 181.859 507.338 183.103 504.066C184.348 500.794 185.646 497.664 186.998 494.677C187.211 494.179 188.492 494.41 190.839 495.37C193.222 496.331 195.498 497.558 197.668 499.052C199.837 500.545 200.797 501.701 200.549 502.519C200.157 503.693 198.984 507.285 197.027 513.296C200.62 507.712 203.269 503.711 204.976 501.292C205.617 500.403 206.577 499.105 207.857 497.398C208.64 496.188 209.511 495.122 210.471 494.197C211.538 493.308 212.694 493.183 213.939 493.823C216.535 494.713 218.918 496.082 221.088 497.931C222.51 498.998 223.4 500.35 223.755 501.986C223.969 503.586 224.058 505.098 224.022 506.52C224.058 509.935 223.506 513.313 222.368 516.657ZM263.5 519.537C263.571 519.395 263.873 519.449 264.407 519.697C264.94 519.911 265.421 520.195 265.847 520.551C266.31 520.907 266.505 521.156 266.434 521.298C265.581 523.432 262.984 528.82 258.645 537.463C257.294 540.379 255.587 543.527 253.524 546.905C252.777 548.47 251.639 549.644 250.109 550.426C248.616 551.209 247.015 551.476 245.308 551.227C242.107 550.551 239.244 549.413 236.719 547.812C232.273 545.607 228.823 542.388 226.369 538.156C224.058 531.683 224.342 525.299 227.223 519.004C227.436 518.364 228.041 516.657 229.037 513.882C230.033 511.108 230.726 509.188 231.117 508.121C231.509 507.018 232.113 505.4 232.931 503.266C233.749 501.097 234.496 499.176 235.172 497.504C235.848 495.833 236.559 494.179 237.306 492.543C237.519 492.045 238.817 492.276 241.2 493.237C243.583 494.197 245.859 495.424 248.029 496.918C250.198 498.376 251.141 499.514 250.856 500.332C250.181 502.324 249.274 505.151 248.136 508.814C247.033 512.442 245.984 515.75 244.988 518.737C243.992 521.689 242.961 524.446 241.894 527.006C239.404 531.808 238.053 537.036 237.839 542.691C237.982 544.007 238.337 545.305 238.906 546.585C238.906 546.621 238.924 546.692 238.96 546.799C239.031 546.87 239.084 546.923 239.12 546.959C240.364 547.563 241.645 547.848 242.961 547.812C243.85 547.741 244.703 547.492 245.521 547.065C246.339 546.603 247.104 545.981 247.815 545.198C248.527 544.38 249.096 543.687 249.523 543.118C249.949 542.513 250.483 541.713 251.123 540.717C252.439 538.69 254.413 535.258 257.045 530.421C259.677 525.584 261.828 521.956 263.5 519.537ZM259.179 484.327C257.294 486.212 255 487.155 252.297 487.155C249.594 487.155 247.282 486.212 245.361 484.327C243.441 482.407 242.481 480.095 242.481 477.392C242.481 474.689 243.441 472.395 245.361 470.51C247.282 468.589 249.594 467.629 252.297 467.629C255 467.629 257.294 468.589 259.179 470.51C261.099 472.395 262.06 474.689 262.06 477.392C262.06 480.095 261.099 482.407 259.179 484.327ZM327.625 519.537C327.696 519.395 327.999 519.449 328.532 519.697C329.101 519.911 329.617 520.195 330.079 520.551C330.577 520.871 330.808 521.12 330.773 521.298C330.132 522.898 329.403 524.57 328.585 526.313C327.767 528.02 326.825 529.958 325.758 532.128C324.691 534.262 323.891 535.88 323.357 536.982C321.045 541.926 319.481 545.109 318.663 546.532C317.667 548.275 316.6 549.573 315.462 550.426C314.359 551.28 312.954 551.6 311.247 551.387C308.757 550.96 306.428 550.16 304.258 548.986C299.066 546.888 294.745 543.562 291.295 539.01C289.979 536.307 289.339 533.444 289.374 530.421C289.445 527.397 290.21 524.57 291.668 521.938C292.308 520.195 293.357 517.795 294.816 514.736C296.274 511.642 297.27 509.437 297.803 508.121C298.87 505.667 299.404 503.177 299.404 500.652C299.19 500.759 298.532 501.239 297.43 502.092C295.865 503.266 294.282 504.564 292.682 505.987C289.801 508.69 287.24 511.34 284.999 513.936C281.905 517.599 279.487 520.48 277.744 522.578C277.602 522.756 277.033 523.45 276.037 524.659C275.077 525.833 274.33 526.722 273.796 527.326L273.636 527.486C269.262 538.227 269.511 545.465 274.383 549.199C275.308 549.875 275.752 550.32 275.717 550.533C275.681 550.675 275.557 550.782 275.343 550.853C274.774 551.067 273.316 550.391 270.969 548.826C265.776 545.696 262.344 541.233 260.672 535.435C259.641 530.883 259.623 526.295 260.619 521.671C261.259 518.506 262.202 515.376 263.447 512.282C265.972 505.916 268.319 499.71 270.489 493.663C270.809 492.81 273.494 493.752 278.544 496.491C278.58 496.526 278.758 496.633 279.078 496.811C279.398 496.953 279.665 497.095 279.878 497.238C280.127 497.38 280.447 497.576 280.838 497.825C281.265 498.073 281.621 498.305 281.905 498.518C282.225 498.731 282.563 498.963 282.919 499.212C283.31 499.461 283.63 499.71 283.879 499.958C284.128 500.207 284.359 500.456 284.573 500.705C284.786 500.954 284.928 501.203 284.999 501.452C285.071 501.666 285.071 501.861 284.999 502.039C283.648 505.453 281.727 509.775 279.238 515.003C279.807 514.185 280.66 512.993 281.799 511.428C285.889 505.916 288.094 502.964 288.414 502.573C289.516 501.15 291.828 498.18 295.349 493.663C295.669 493.521 296.043 493.485 296.469 493.557C296.896 493.628 297.483 493.859 298.23 494.25C298.977 494.641 299.546 494.961 299.937 495.21C300.364 495.424 300.702 495.619 300.951 495.797L301.911 496.384C302.871 496.704 303.618 497.007 304.152 497.291C307.281 498.465 309.878 500.367 311.941 502.999C312.652 504.386 313.096 505.862 313.274 507.427C313.488 508.992 313.523 510.415 313.381 511.695C313.239 512.94 312.865 514.452 312.261 516.23C311.692 517.973 311.176 519.36 310.714 520.391C310.251 521.422 309.575 522.863 308.686 524.712C307.833 526.562 307.228 527.878 306.872 528.66C303.992 533.177 302.587 538.067 302.658 543.331C303.085 544.647 303.583 545.785 304.152 546.745V546.799L304.258 546.852C305.539 547.528 306.89 547.83 308.313 547.759C308.989 547.688 309.664 547.457 310.34 547.065C311.016 546.674 311.549 546.301 311.941 545.945C312.367 545.589 312.883 544.985 313.488 544.131C314.092 543.278 314.466 542.709 314.608 542.424C314.786 542.14 315.159 541.535 315.728 540.61C316.724 538.939 318.52 535.631 321.117 530.687C323.713 525.744 325.882 522.027 327.625 519.537ZM355.206 501.559C355.135 501.559 355.046 501.47 354.94 501.292L355.206 501.559ZM386.735 519.644C386.807 519.537 387.073 519.591 387.536 519.804C388.034 520.018 388.496 520.284 388.923 520.604C389.35 520.889 389.527 521.102 389.456 521.245C386.611 527.469 383.446 533.461 379.96 539.223C377.897 542.744 375.621 546.07 373.132 549.199C368.828 554.107 363.689 557.913 357.714 560.616C356.256 564.564 354.886 567.942 353.606 570.752C352.361 573.597 350.796 576.692 348.911 580.035C347.026 583.414 344.875 586.401 342.456 588.997C340.038 591.594 337.388 593.763 334.507 595.506C331.982 597.391 329.154 598.582 326.025 599.08C322.93 599.578 319.89 599.312 316.902 598.28C314.519 597.533 312.527 596.2 310.927 594.279C309.326 592.394 308.384 590.207 308.099 587.717C308.028 586.33 308.153 584.996 308.473 583.716C308.757 582.436 309.166 581.28 309.7 580.248C310.198 579.217 310.945 578.185 311.941 577.154C312.901 576.158 313.826 575.287 314.715 574.54C315.568 573.829 316.724 573.064 318.182 572.246C319.605 571.464 320.832 570.823 321.863 570.325C322.895 569.827 324.246 569.241 325.918 568.565C327.625 567.925 328.959 567.427 329.919 567.071C330.879 566.715 332.231 566.235 333.974 565.631C335.716 565.026 336.961 564.599 337.708 564.35C338.633 561.861 340.215 557.522 342.456 551.333C344.697 545.18 346.439 540.432 347.684 537.089C348.182 535.773 348.911 533.817 349.872 531.221C350.867 528.589 351.614 526.633 352.112 525.352C349.338 529.265 346.742 532.981 344.323 536.502C343.541 537.64 342.403 539.383 340.909 541.73C339.415 544.078 338.277 545.821 337.495 546.959C337.317 547.208 336.997 547.723 336.534 548.506C336.108 549.288 335.752 549.875 335.467 550.266C335.183 550.622 334.756 550.942 334.187 551.227C333.654 551.547 333.067 551.636 332.426 551.493C328.834 550.462 325.687 548.701 322.984 546.212C318.005 541.837 317.542 534.582 321.597 524.446C325.296 515.554 329.955 507.338 335.574 499.798C336.463 498.589 337.548 497.362 338.828 496.117C339.753 495.05 340.909 494.392 342.296 494.143C343.719 493.894 345.035 494.126 346.244 494.837C349.765 496.331 353.304 498.394 356.86 501.025C358.105 501.915 359.243 502.893 360.275 503.96C360.666 502.928 361.253 501.363 362.035 499.265C362.853 497.167 363.458 495.602 363.849 494.57C364.027 494.108 365.36 494.375 367.85 495.37C370.375 496.366 372.794 497.647 375.105 499.212C377.417 500.741 378.431 501.95 378.146 502.839C371.211 523.254 365.058 540.788 359.688 555.441C363.387 553.307 366.73 550.551 369.717 547.172C375.941 538.458 381.614 529.282 386.735 519.644ZM332.16 549.946L332.106 549.893L332.16 549.946ZM354.406 515.323C355.011 514.54 356.024 513.331 357.447 511.695L359.314 506.734C358.887 506.307 358.727 505.951 358.834 505.667C359.012 505.027 358.941 504.475 358.621 504.013C358.301 503.551 357.714 503.053 356.86 502.519C356.007 501.986 355.491 501.648 355.313 501.506C355.455 501.47 355.491 501.381 355.42 501.239C355.313 501.097 355.171 501.097 354.993 501.239C354.957 501.203 354.904 501.168 354.833 501.132C354.797 501.097 354.762 501.061 354.726 501.025C354.691 500.99 354.673 500.954 354.673 500.919C354.744 501.025 354.851 501.15 354.993 501.292H354.94C354.904 501.292 354.886 501.31 354.886 501.346C354.815 501.452 354.637 501.666 354.353 501.986C354.068 502.306 353.873 502.555 353.766 502.733C353.304 503.408 352.646 504.458 351.792 505.88C351.294 506.698 350.334 508.21 348.911 510.415C347.489 512.62 346.422 514.345 345.71 515.59C341.656 522.596 338.099 529.869 335.041 537.409C334.4 538.939 333.831 540.45 333.333 541.944C333.44 541.837 333.6 541.659 333.814 541.41C334.027 541.161 334.187 540.984 334.294 540.877L337.175 537.356C340.055 533.728 342.812 530.225 345.444 526.846C346.119 525.993 347.062 524.783 348.271 523.218C349.516 521.654 350.636 520.231 351.632 518.951C352.628 517.67 353.553 516.461 354.406 515.323ZM333.493 575.66C333.885 574.736 334.383 573.402 334.987 571.659C335.627 569.952 336.054 568.796 336.268 568.191C334.205 568.938 332.533 569.543 331.253 570.005C329.972 570.503 328.39 571.161 326.505 571.979C324.62 572.833 323.055 573.669 321.81 574.487C320.565 575.34 319.303 576.318 318.022 577.421C316.706 578.523 315.639 579.75 314.821 581.102C313.968 582.453 313.328 583.912 312.901 585.476C312.723 586.437 312.599 587.557 312.527 588.837C312.456 590.118 312.634 591.451 313.061 592.839C313.488 594.226 314.128 595.186 314.981 595.719C316.262 596.537 317.773 596.537 319.516 595.719C321.259 594.937 322.788 593.888 324.104 592.572C328.336 587.45 331.466 581.813 333.493 575.66ZM473.637 487.732C472.873 489.783 471.738 492.805 470.233 496.798C468.727 500.791 467.516 504.031 466.6 506.518C465.683 508.984 464.636 511.962 463.458 515.453C462.28 518.923 461.254 522.13 460.381 525.076C459.028 529.592 458.177 532.745 457.828 534.535C456.497 541.168 457.174 546.077 459.858 549.263C460.229 549.721 459.967 549.797 459.072 549.492C459.028 549.47 458.963 549.437 458.876 549.394L458.745 549.361C457.632 548.925 456.672 548.303 455.865 547.495C450.693 542.215 449.297 533.76 451.675 522.13C455.035 508.471 459.465 495.336 464.963 482.724C465.072 482.44 465.891 482.604 467.418 483.215C468.945 483.804 470.407 484.579 471.804 485.539C473.222 486.477 473.833 487.208 473.637 487.732ZM490.852 467.047C494.343 468.88 497.202 471.16 499.427 473.887C501.675 476.615 503.246 479.517 504.14 482.593C505.035 485.67 505.471 489.008 505.45 492.608C505.45 496.209 505.068 499.754 504.304 503.245C503.54 506.715 502.493 510.271 501.162 513.915C499.831 517.537 498.413 520.865 496.907 523.898C495.402 526.93 493.787 529.854 492.063 532.669C487.656 540.328 482.201 547.146 475.699 553.125C469.196 559.103 461.952 563.98 453.966 567.755C452.112 568.519 450.126 569.053 448.01 569.359C445.915 569.664 443.831 569.74 441.758 569.588C439.707 569.435 437.776 568.988 435.965 568.246C434.154 567.504 432.605 566.522 431.318 565.3C430.03 564.078 429.103 562.485 428.536 560.522C427.968 558.558 427.903 556.343 428.339 553.878C428.361 553.834 428.514 553.867 428.797 553.976C429.081 554.107 429.365 554.259 429.648 554.434C429.932 554.609 430.074 554.761 430.074 554.892C430.139 556.245 430.248 557.478 430.401 558.591C430.576 559.703 430.881 560.827 431.318 561.962C431.754 563.118 432.31 564.067 432.987 564.809C433.663 565.573 434.558 566.173 435.671 566.609C436.783 567.068 438.082 567.264 439.565 567.198C442.533 566.958 445.304 566.228 447.879 565.006C454.032 561.973 459.476 557.925 464.211 552.863C474.444 542.128 482.561 529.974 488.561 516.403C494.06 506.104 496.94 495.15 497.202 483.542C497.158 482.059 496.984 480.575 496.678 479.091C496.394 477.607 495.969 476.124 495.402 474.64C494.856 473.156 494.092 471.803 493.111 470.582C492.151 469.338 491.027 468.389 489.739 467.734C488.779 467.276 487.798 466.916 486.794 466.654C483.325 466.109 479.877 466.294 476.451 467.21C473.048 468.127 469.982 469.687 467.254 471.891C462.018 475.578 457.632 480.182 454.097 485.702C450.846 490.219 448.25 495.063 446.308 500.234C445.653 502.023 445.293 503.878 445.228 505.798C445.228 506.213 445.337 506.835 445.555 507.664C445.773 508.493 445.871 509.126 445.849 509.562C445.828 509.868 445.282 509.846 444.213 509.497C443.166 509.126 442.413 508.82 441.955 508.58C439.947 507.707 438.016 506.496 436.162 504.947C434.547 503.813 433.707 502.263 433.641 500.3C433.685 498.62 434.023 497.06 434.656 495.619C436.729 491.256 439.38 487.295 442.609 483.739C445.839 480.16 449.515 477.138 453.639 474.673C458.396 471.422 463.458 468.727 468.825 466.589C474.062 464.232 479.539 463.61 485.256 464.723C485.997 464.941 486.641 465.214 487.187 465.541C488.321 465.89 489.543 466.392 490.852 467.047ZM532.251 501.559C532.144 501.559 532.037 501.47 531.931 501.292C531.966 501.328 532.02 501.381 532.091 501.452C532.162 501.488 532.215 501.523 532.251 501.559ZM569.328 519.537C569.435 519.395 569.755 519.449 570.289 519.697C570.822 519.946 571.302 520.249 571.729 520.604C572.191 520.925 572.387 521.156 572.316 521.298C571.178 523.467 569.364 526.544 566.874 530.527C564.42 534.475 562.998 536.787 562.606 537.463C559.654 542.442 557.734 545.554 556.845 546.799C556.098 548.257 555.031 549.413 553.644 550.266C552.257 551.12 550.745 551.529 549.109 551.493C546.691 551.102 544.414 550.355 542.28 549.253C537.159 547.261 533.051 543.918 529.957 539.223C527.859 534.742 527.556 530.136 529.05 525.406C527.307 527.86 524.729 531.541 521.314 536.449C520.532 537.587 519.394 539.33 517.9 541.677C516.406 544.024 515.268 545.767 514.486 546.905C514.308 547.154 513.988 547.67 513.525 548.452C513.099 549.235 512.743 549.822 512.459 550.213C512.174 550.604 511.747 550.942 511.178 551.227C510.645 551.547 510.058 551.636 509.418 551.493C505.861 550.462 502.731 548.701 500.028 546.212C495.013 541.802 494.533 534.528 498.588 524.392C502.18 515.714 506.857 507.516 512.619 499.798C513.579 498.447 514.646 497.22 515.819 496.117C516.744 495.05 517.9 494.392 519.287 494.143C520.71 493.894 522.026 494.126 523.235 494.837C526.969 496.402 530.526 498.447 533.905 500.972C535.043 501.826 536.216 502.857 537.426 504.066C540.093 497.664 541.711 493.823 542.28 492.543C542.494 492.045 543.792 492.276 546.175 493.237C548.558 494.197 550.834 495.424 553.004 496.918C555.173 498.376 556.116 499.514 555.831 500.332C555.084 502.501 553.092 507.943 549.856 516.657C547.686 522.489 546.388 525.904 545.961 526.9C542.974 532.057 541.391 537.658 541.213 543.704C541.285 544.522 541.445 545.269 541.694 545.945C541.729 546.016 541.836 546.212 542.014 546.532C542.192 546.816 542.298 547.012 542.334 547.119L543.134 547.385C543.454 547.528 543.81 547.652 544.201 547.759C544.806 547.866 545.428 547.866 546.068 547.759C546.78 547.652 547.509 547.421 548.255 547.065C549.002 546.674 549.607 546.301 550.069 545.945C550.532 545.554 551.119 544.949 551.83 544.131C552.541 543.313 553.004 542.762 553.217 542.477C553.466 542.157 553.928 541.535 554.604 540.61C555.92 538.832 558.178 535.489 561.379 530.581C564.616 525.673 567.265 521.991 569.328 519.537ZM509.204 549.946L509.151 549.893L509.204 549.946ZM509.151 549.946V549.893L509.204 549.946H509.151ZM514.219 537.356H514.166C514.45 537 517.242 533.479 522.541 526.793C523.217 525.939 524.16 524.73 525.369 523.165C526.614 521.6 527.734 520.178 528.73 518.897C529.726 517.617 530.65 516.408 531.504 515.27C531.717 514.985 532.624 513.865 534.225 511.909C534.438 511.34 534.794 510.504 535.292 509.401C535.79 508.263 536.145 507.41 536.359 506.84C535.896 506.414 535.719 506.022 535.825 505.667C536.003 505.027 535.932 504.475 535.612 504.013C535.292 503.551 534.705 503.053 533.851 502.519C532.998 501.986 532.482 501.648 532.304 501.506C532.411 501.47 532.446 501.399 532.411 501.292C532.34 501.15 532.215 501.132 532.037 501.239C532.002 501.203 531.931 501.15 531.824 501.079C531.753 501.008 531.7 500.954 531.664 500.919C531.806 501.097 531.913 501.221 531.984 501.292H531.931L531.877 501.346C531.806 501.452 531.628 501.666 531.344 501.986C531.059 502.306 530.864 502.555 530.757 502.733C530.579 502.982 529.939 504.031 528.837 505.88C528.303 506.734 527.325 508.263 525.902 510.468C524.48 512.638 523.413 514.345 522.701 515.59C518.754 522.383 515.215 529.656 512.085 537.409C511.231 539.508 510.645 541.019 510.325 541.944C510.431 541.837 510.591 541.659 510.805 541.41C511.018 541.161 511.178 540.984 511.285 540.877C511.961 540.094 512.939 538.921 514.219 537.356ZM634.947 519.644C635.018 519.537 635.285 519.591 635.747 519.804C636.245 519.982 636.69 520.231 637.081 520.551C637.508 520.836 637.686 521.049 637.615 521.191C634.805 527.344 631.622 533.355 628.065 539.223C625.896 542.922 623.637 546.247 621.29 549.199C617.022 554.036 611.883 557.824 605.872 560.563C604.414 564.51 603.045 567.889 601.764 570.699C600.519 573.544 598.955 576.638 597.07 579.982C595.185 583.36 593.033 586.348 590.614 588.944C588.196 591.54 585.546 593.71 582.665 595.453C580.14 597.338 577.313 598.529 574.183 599.027C571.089 599.525 568.048 599.258 565.06 598.227C562.677 597.48 560.686 596.146 559.085 594.226C557.485 592.341 556.542 590.153 556.258 587.664C556.151 585.885 556.365 584.196 556.898 582.596C557.396 580.995 558.125 579.573 559.085 578.328C560.01 577.118 561.166 575.945 562.553 574.807C563.904 573.704 565.345 572.726 566.874 571.873C568.404 571.054 570.057 570.254 571.836 569.472C573.649 568.689 575.392 567.996 577.064 567.391C578.771 566.787 580.496 566.182 582.239 565.577C583.875 565.044 585.066 564.635 585.813 564.35C588.729 556.526 590.899 550.658 592.322 546.745C591.646 548.061 590.686 549.146 589.441 550C588.231 550.818 586.88 551.298 585.386 551.44C582.825 551.155 580.514 550.426 578.451 549.253C573.365 547.154 569.239 543.936 566.074 539.597C564.509 536.396 563.727 533.035 563.727 529.514C563.727 525.957 564.509 522.578 566.074 519.377C570.484 507 573.916 498.038 576.37 492.49C576.584 491.992 577.882 492.223 580.265 493.183C582.648 494.143 584.924 495.37 587.093 496.864C589.263 498.358 590.205 499.514 589.921 500.332C589.21 502.395 588.267 505.276 587.093 508.974C585.955 512.638 584.87 515.999 583.839 519.057C582.808 522.08 581.758 524.908 580.692 527.54C577.882 532.661 576.726 538.192 577.224 544.131C577.331 544.594 577.722 545.536 578.398 546.959C579.785 547.457 581.136 547.581 582.452 547.332C582.843 547.261 583.217 547.136 583.572 546.959C583.964 546.781 584.301 546.621 584.586 546.479C584.906 546.301 585.244 546.052 585.6 545.732C585.991 545.376 586.293 545.109 586.507 544.931C586.72 544.754 587.004 544.451 587.36 544.024C587.751 543.562 588.018 543.242 588.16 543.064C588.303 542.886 588.552 542.531 588.907 541.997C589.298 541.464 589.53 541.144 589.601 541.037C589.707 540.895 589.939 540.539 590.294 539.97C590.686 539.401 590.899 539.099 590.934 539.063C592.179 537.214 593.958 534.386 596.269 530.581C598.617 526.74 600.413 523.894 601.658 522.045C602.191 520.587 603.703 516.532 606.192 509.881C608.682 503.231 610.62 498.127 612.007 494.57C612.185 494.108 613.537 494.375 616.062 495.37C618.587 496.366 621.005 497.647 623.317 499.212C625.629 500.741 626.643 501.95 626.358 502.839C619.423 523.254 613.27 540.788 607.899 555.441C611.634 553.307 614.959 550.551 617.876 547.172C624.242 538.281 629.932 529.105 634.947 519.644ZM581.652 575.66C582.043 574.7 582.577 573.313 583.252 571.499C583.928 569.685 584.337 568.583 584.479 568.191C582.381 568.938 580.692 569.543 579.411 570.005C578.166 570.503 576.584 571.161 574.663 571.979C572.778 572.833 571.213 573.669 569.968 574.487C568.759 575.305 567.497 576.265 566.181 577.367C564.865 578.47 563.798 579.697 562.98 581.048C562.162 582.4 561.539 583.858 561.113 585.423C560.864 586.383 560.721 587.504 560.686 588.784C560.65 590.1 560.846 591.434 561.273 592.785C561.664 594.172 562.304 595.15 563.193 595.719C564.474 596.537 565.985 596.537 567.728 595.719C569.471 594.937 571 593.888 572.316 592.572C576.513 587.521 579.625 581.884 581.652 575.66ZM757.611 447.758C760.657 451.634 761.967 456.017 761.539 460.907C761.593 463.366 761.272 465.785 760.577 468.163C759.829 470.489 759.107 472.012 758.413 472.733C757.931 473.241 757.41 473.549 756.849 473.655C756.261 473.655 755.66 473.482 755.045 473.134C754.217 472.733 753.468 472.333 752.8 471.932C752.773 471.905 752.626 471.825 752.359 471.691C752.119 471.531 751.932 471.411 751.798 471.33C751.664 471.25 751.477 471.13 751.237 470.97C751.023 470.809 750.849 470.662 750.716 470.529C750.609 470.395 750.488 470.248 750.355 470.088C750.248 469.901 750.194 469.727 750.194 469.566C750.168 469.219 750.248 468.898 750.435 468.604C750.649 468.284 750.983 467.909 751.437 467.482C751.891 467.028 752.145 466.774 752.199 466.72C752.84 466.052 753.495 465.224 754.163 464.235C756.622 460.814 757.878 457.005 757.931 452.81C757.931 452.676 757.905 452.489 757.851 452.248C757.798 452.008 757.771 451.847 757.771 451.767C757.718 451.179 757.664 450.765 757.611 450.524C757.37 449.669 756.983 448.867 756.448 448.119C753.749 444.565 750.301 445.527 746.105 451.006C741.428 457.821 739.21 465.371 739.451 473.655C739.451 477.183 739.878 480.845 740.734 484.64C741.615 488.408 742.711 492.003 744.021 495.423C745.357 498.844 746.707 502.225 748.07 505.566C749.433 508.907 750.689 512.474 751.838 516.269C752.987 520.038 753.736 523.606 754.083 526.973C754.457 530.447 754.163 533.855 753.201 537.196C752.266 540.51 750.903 543.489 749.112 546.135C747.321 548.781 745.103 551.333 742.457 553.792C739.811 556.251 737.126 558.376 734.4 560.166C731.674 561.957 728.747 563.641 725.62 565.217C722.306 566.901 718.966 568.331 715.598 569.507C712.231 570.683 708.636 571.632 704.814 572.353C700.993 573.075 697.211 573.195 693.469 572.714C689.754 572.233 686.414 571.097 683.447 569.306C683.02 569.066 682.659 568.825 682.365 568.585C682.098 568.344 681.91 568.144 681.804 567.984C681.697 567.85 681.67 567.743 681.723 567.663C677.821 565.097 675.216 561.583 673.906 557.12C670.886 546.135 674.441 532.372 684.57 515.828C688.071 509.735 692.427 504.31 697.638 499.553C699.135 497.896 700.939 496.706 703.05 495.985C705.162 495.236 707.313 495.063 709.505 495.464C711.937 496.292 714.142 497.521 716.119 499.152C716.948 499.82 717.442 500.394 717.603 500.876C717.709 501.196 717.456 501.29 716.841 501.156C716.787 501.129 716.747 501.116 716.721 501.116C716.079 500.956 715.331 501.036 714.476 501.357C713.62 501.651 712.645 502.198 711.549 503C710.48 503.802 709.678 504.43 709.144 504.884C708.636 505.312 707.888 505.98 706.899 506.889C706.819 506.969 706.752 507.036 706.698 507.089C706.645 507.116 706.592 507.156 706.538 507.209C696.543 516.216 688.685 526.773 682.966 538.879C682.218 540.536 681.55 542.18 680.962 543.81C680.4 545.44 679.866 547.244 679.358 549.222C678.85 551.2 678.556 553.097 678.476 554.915C678.423 556.732 678.543 558.509 678.837 560.246C679.131 561.984 679.786 563.587 680.801 565.057C681.844 566.527 683.193 567.756 684.85 568.745C686.4 569.494 688.218 569.921 690.302 570.028C692.387 570.162 694.418 570.041 696.396 569.667C698.4 569.32 700.525 568.785 702.77 568.064C705.015 567.342 706.979 566.621 708.663 565.899C710.347 565.177 712.017 564.402 713.674 563.574C721.531 559.565 728.132 553.993 733.478 546.857C736.818 542.955 739.237 538.532 740.734 533.588C742.257 528.643 742.725 523.619 742.137 518.514C739.598 508.252 736.257 498.123 732.115 488.127C729.041 479.842 728.132 471.317 729.388 462.551C729.896 460.039 730.725 457.567 731.874 455.135C733.05 452.676 734.653 450.418 736.685 448.36C738.716 446.302 740.934 444.966 743.339 444.351C745.557 443.816 747.802 443.75 750.074 444.15C752.346 444.525 754.444 445.34 756.368 446.596C756.769 446.917 757.13 447.277 757.45 447.678C757.477 447.705 757.504 447.718 757.531 447.718C757.557 447.718 757.584 447.732 757.611 447.758ZM810.792 503.213C811.681 504.244 812.304 505.329 812.659 506.467C813.015 507.57 813.086 508.814 812.873 510.201C812.659 511.553 812.428 512.673 812.179 513.562C811.966 514.416 811.521 515.679 810.846 517.35C810.205 519.022 809.796 520.142 809.619 520.711C807.2 528.002 804.159 534.955 800.496 541.57C798.967 544.914 796.868 547.634 794.201 549.733C791.284 551.298 788.297 551.333 785.238 549.839C780.828 548.168 776.756 546.123 773.021 543.704C771.812 542.958 770.71 542.211 769.714 541.464C769.5 542.104 768.985 543.598 768.167 545.945C767.349 548.257 766.708 550.053 766.246 551.333C763.97 557.415 761.071 564.795 757.55 573.473C757.195 574.327 756.59 575.714 755.736 577.634C754.847 579.59 754.154 581.173 753.656 582.382C753.122 583.627 752.607 585.174 752.109 587.024C751.611 588.873 751.38 590.473 751.415 591.825C751.451 593.176 751.806 594.599 752.482 596.093C753.122 597.587 754.136 598.885 755.523 599.987C756.341 600.627 756.394 600.876 755.683 600.734C754.438 600.45 752.873 599.792 750.988 598.76C750.811 598.654 750.686 598.582 750.615 598.547C747.948 596.697 745.885 594.581 744.427 592.198C742.933 589.815 742.026 587.255 741.706 584.516C741.386 581.813 741.403 579.128 741.759 576.46C742.115 573.793 742.79 570.894 743.786 567.765C744.106 566.733 745.067 563.621 746.667 558.429C748.268 553.272 749.53 549.324 750.455 546.585C758.315 523.645 765.268 504.938 771.314 490.462C771.492 490 772.772 490.249 775.155 491.209C777.538 492.17 779.814 493.397 781.984 494.89C784.189 496.349 785.149 497.487 784.865 498.305C783.051 503.319 781.29 508.334 779.583 513.349C783.673 506.52 788.386 499.905 793.721 493.503C794.29 492.863 796.157 493.557 799.322 495.584C799.714 495.833 800.336 496.242 801.19 496.811C804.888 498.234 808.089 500.367 810.792 503.213ZM771.901 540.237C771.545 540.023 771.208 539.846 770.887 539.703C771.208 539.846 771.51 539.988 771.794 540.13L771.901 540.237ZM798.842 503.373V503.426C799.411 502.146 799.607 500.865 799.429 499.585C798.042 500.332 796.833 501.15 795.801 502.039C794.236 503.319 792.565 504.849 790.787 506.627C787.728 509.828 784.972 513.047 782.517 516.283C781.699 517.386 780.455 519.04 778.783 521.245C777.147 523.414 775.92 525.05 775.102 526.153C774.106 529.069 772.577 533.444 770.514 539.276C770.692 539.348 770.941 539.49 771.261 539.703C771.617 539.917 771.883 540.077 772.061 540.183C772.275 540.29 772.541 540.45 772.861 540.664C773.217 540.877 773.448 541.001 773.555 541.037C773.697 541.108 773.946 541.197 774.302 541.304C774.657 541.41 774.906 541.499 775.049 541.57C774.942 541.57 774.942 541.588 775.049 541.624C775.404 541.659 775.653 541.677 775.796 541.677H775.849H775.902H775.956H776.009H776.116H776.169H776.222H776.329H776.382H776.916C778.338 541.357 779.548 540.646 780.544 539.543C784.989 534.422 788.386 528.785 790.733 522.632C793.934 515.625 796.637 509.206 798.842 503.373ZM847.603 501.559C847.496 501.559 847.389 501.47 847.283 501.292C847.318 501.328 847.372 501.381 847.443 501.452C847.514 501.488 847.567 501.523 847.603 501.559ZM884.68 519.537C884.787 519.395 885.107 519.449 885.64 519.697C886.174 519.946 886.654 520.249 887.081 520.604C887.543 520.925 887.739 521.156 887.668 521.298C886.53 523.467 884.716 526.544 882.226 530.527C879.772 534.475 878.35 536.787 877.958 537.463C875.006 542.442 873.086 545.554 872.197 546.799C871.45 548.257 870.383 549.413 868.996 550.266C867.609 551.12 866.097 551.529 864.461 551.493C862.043 551.102 859.766 550.355 857.632 549.253C852.511 547.261 848.403 543.918 845.309 539.223C843.21 534.742 842.908 530.136 844.402 525.406C842.659 527.86 840.081 531.541 836.666 536.449C835.884 537.587 834.746 539.33 833.252 541.677C831.758 544.024 830.62 545.767 829.838 546.905C829.66 547.154 829.34 547.67 828.877 548.452C828.451 549.235 828.095 549.822 827.811 550.213C827.526 550.604 827.099 550.942 826.53 551.227C825.997 551.547 825.41 551.636 824.77 551.493C821.213 550.462 818.083 548.701 815.38 546.212C810.365 541.802 809.885 534.528 813.94 524.392C817.532 515.714 822.209 507.516 827.971 499.798C828.931 498.447 829.998 497.22 831.171 496.117C832.096 495.05 833.252 494.392 834.639 494.143C836.062 493.894 837.378 494.126 838.587 494.837C842.321 496.402 845.878 498.447 849.257 500.972C850.395 501.826 851.568 502.857 852.778 504.066C855.445 497.664 857.063 493.823 857.632 492.543C857.846 492.045 859.144 492.276 861.527 493.237C863.91 494.197 866.186 495.424 868.356 496.918C870.525 498.376 871.468 499.514 871.183 500.332C870.436 502.501 868.444 507.943 865.208 516.657C863.038 522.489 861.74 525.904 861.313 526.9C858.326 532.057 856.743 537.658 856.565 543.704C856.637 544.522 856.797 545.269 857.046 545.945C857.081 546.016 857.188 546.212 857.366 546.532C857.544 546.816 857.65 547.012 857.686 547.119L858.486 547.385C858.806 547.528 859.162 547.652 859.553 547.759C860.158 547.866 860.78 547.866 861.42 547.759C862.131 547.652 862.861 547.421 863.607 547.065C864.354 546.674 864.959 546.301 865.421 545.945C865.884 545.554 866.471 544.949 867.182 544.131C867.893 543.313 868.356 542.762 868.569 542.477C868.818 542.157 869.28 541.535 869.956 540.61C871.272 538.832 873.53 535.489 876.731 530.581C879.968 525.673 882.617 521.991 884.68 519.537ZM824.556 549.946L824.503 549.893L824.556 549.946ZM824.503 549.946V549.893L824.556 549.946H824.503ZM829.571 537.356H829.518C829.802 537 832.594 533.479 837.893 526.793C838.569 525.939 839.512 524.73 840.721 523.165C841.966 521.6 843.086 520.178 844.082 518.897C845.078 517.617 846.002 516.408 846.856 515.27C847.069 514.985 847.976 513.865 849.577 511.909C849.79 511.34 850.146 510.504 850.644 509.401C851.142 508.263 851.497 507.41 851.711 506.84C851.248 506.414 851.071 506.022 851.177 505.667C851.355 505.027 851.284 504.475 850.964 504.013C850.644 503.551 850.057 503.053 849.203 502.519C848.35 501.986 847.834 501.648 847.656 501.506C847.763 501.47 847.798 501.399 847.763 501.292C847.692 501.15 847.567 501.132 847.389 501.239C847.354 501.203 847.283 501.15 847.176 501.079C847.105 501.008 847.052 500.954 847.016 500.919C847.158 501.097 847.265 501.221 847.336 501.292H847.283L847.229 501.346C847.158 501.452 846.98 501.666 846.696 501.986C846.411 502.306 846.216 502.555 846.109 502.733C845.931 502.982 845.291 504.031 844.189 505.88C843.655 506.734 842.677 508.263 841.254 510.468C839.832 512.638 838.765 514.345 838.053 515.59C834.106 522.383 830.567 529.656 827.437 537.409C826.583 539.508 825.997 541.019 825.677 541.944C825.783 541.837 825.943 541.659 826.157 541.41C826.37 541.161 826.53 540.984 826.637 540.877C827.313 540.094 828.291 538.921 829.571 537.356Z" fill="white"/>
<path d="M174.66 621.285C174.66 622.44 175.185 623.385 175.5 623.665C175.85 624.015 175.885 624.12 175.885 624.295C175.885 624.4 175.64 624.54 175.5 624.54C174.835 624.54 173.295 624.085 172.665 623.91C171.79 623.63 171.65 623.455 171.65 622.93C171.65 620.83 173.855 617.155 175.43 615.58C175.605 615.37 175.78 615.3 175.955 615.3C176.06 615.3 176.2 615.37 176.2 615.475C176.2 615.58 176.13 615.685 175.99 615.93C175.395 617.155 174.66 619.15 174.66 621.285ZM169.41 621.285C169.41 622.44 169.935 623.385 170.25 623.665C170.6 624.015 170.635 624.12 170.635 624.295C170.635 624.4 170.39 624.54 170.25 624.54C169.585 624.54 168.045 624.085 167.415 623.91C166.54 623.63 166.4 623.455 166.4 622.93C166.4 620.83 168.605 617.155 170.18 615.58C170.355 615.37 170.53 615.3 170.705 615.3C170.81 615.3 170.915 615.37 170.915 615.475C170.915 615.58 170.88 615.685 170.74 615.93C170.145 617.155 169.41 619.15 169.41 621.285ZM188.349 633.955V619.605L183.134 619.745C181.104 619.815 180.264 619.99 179.739 620.76C179.389 621.285 179.214 621.705 179.144 621.985C179.074 622.265 178.969 622.405 178.759 622.405C178.514 622.405 178.444 622.23 178.444 621.845C178.444 621.285 179.109 618.1 179.179 617.82C179.284 617.365 179.389 617.155 179.599 617.155C179.879 617.155 180.229 617.505 181.104 617.575C182.119 617.68 183.449 617.75 184.604 617.75H198.464C199.584 617.75 200.354 617.645 200.879 617.575C201.404 617.47 201.684 617.4 201.824 617.4C202.069 617.4 202.104 617.61 202.104 618.135C202.104 618.87 201.999 621.285 201.999 622.195C201.964 622.545 201.894 622.755 201.684 622.755C201.404 622.755 201.334 622.58 201.299 622.055L201.264 621.67C201.194 620.76 200.249 619.78 197.134 619.71L192.724 619.605V633.955C192.724 637.175 192.724 639.94 192.899 641.445C193.004 642.425 193.214 643.195 194.264 643.335C194.754 643.405 195.524 643.475 196.049 643.475C196.434 643.475 196.609 643.58 196.609 643.755C196.609 644 196.329 644.105 195.944 644.105C193.634 644.105 191.429 644 190.449 644C189.644 644 187.439 644.105 186.039 644.105C185.584 644.105 185.339 644 185.339 643.755C185.339 643.58 185.479 643.475 185.899 643.475C186.424 643.475 186.844 643.405 187.159 643.335C187.859 643.195 188.069 642.425 188.174 641.41C188.349 639.94 188.349 637.175 188.349 633.955ZM207.843 635.46V630.21C207.843 625.695 207.843 624.855 207.808 623.91C207.738 622.895 207.458 622.58 206.478 622.3C206.233 622.23 205.708 622.195 205.253 622.195C204.938 622.195 204.728 622.09 204.728 621.88C204.728 621.67 204.973 621.6 205.428 621.6C207.038 621.6 208.998 621.67 209.628 621.67C210.678 621.67 213.478 621.6 214.423 621.6C216.383 621.6 218.623 621.775 220.268 622.86C221.143 623.455 222.438 624.96 222.438 626.955C222.438 629.16 221.178 631.12 218.168 633.535C220.898 636.895 223.068 639.59 224.923 641.445C226.638 643.16 227.723 643.3 228.213 643.405C228.528 643.475 228.703 643.475 228.948 643.475C229.193 643.475 229.333 643.65 229.333 643.79C229.333 644.035 229.123 644.105 228.738 644.105H225.798C224.083 644.105 223.243 643.93 222.438 643.51C221.108 642.845 219.953 641.445 218.238 639.135C217.013 637.525 215.718 635.53 215.333 635.075C215.158 634.9 214.983 634.865 214.773 634.865L212.008 634.795C211.868 634.795 211.763 634.865 211.763 635.04V635.46C211.763 638.225 211.798 640.535 211.938 641.795C212.043 642.67 212.183 643.23 213.128 643.37C213.583 643.44 214.248 643.475 214.633 643.475C214.878 643.475 215.018 643.65 215.018 643.79C215.018 644 214.773 644.105 214.388 644.105C212.603 644.105 210.048 644 209.593 644C208.998 644 207.038 644.105 205.813 644.105C205.428 644.105 205.218 644 205.218 643.79C205.218 643.65 205.323 643.475 205.708 643.475C206.163 643.475 206.513 643.44 206.793 643.37C207.423 643.23 207.598 642.67 207.703 641.795C207.843 640.535 207.843 638.19 207.843 635.46ZM211.763 623.665V632.52C211.763 632.835 211.833 632.94 212.043 633.045C212.708 633.255 213.618 633.325 214.388 633.325C215.613 633.325 216.033 633.22 216.558 632.835C217.503 632.17 218.553 630.875 218.553 628.425C218.553 624.225 215.683 623.14 213.863 623.14C213.093 623.14 212.358 623.175 212.043 623.245C211.833 623.315 211.763 623.42 211.763 623.665ZM231.837 635.46V630.21C231.837 625.695 231.837 624.855 231.802 623.91C231.732 622.895 231.452 622.58 230.472 622.3C230.227 622.23 229.702 622.195 229.247 622.195C228.932 622.195 228.722 622.09 228.722 621.88C228.722 621.67 228.967 621.6 229.422 621.6C231.032 621.6 232.992 621.67 233.867 621.67C234.847 621.67 241.672 621.705 242.267 621.67C242.827 621.635 243.317 621.53 243.562 621.495C243.737 621.46 243.912 621.355 244.052 621.355C244.227 621.355 244.262 621.495 244.262 621.635C244.262 621.845 244.087 622.195 244.017 623.56C243.982 623.875 243.912 625.17 243.842 625.52C243.807 625.66 243.737 626.01 243.492 626.01C243.282 626.01 243.247 625.87 243.247 625.625C243.247 625.415 243.212 624.89 243.037 624.54C242.792 624.015 242.547 623.595 241.007 623.455C240.482 623.385 236.807 623.315 236.177 623.315C236.037 623.315 235.967 623.42 235.967 623.595V630.945C235.967 631.12 236.002 631.26 236.177 631.26C236.877 631.26 240.867 631.26 241.567 631.19C242.302 631.12 242.722 631.015 243.037 630.735C243.282 630.525 243.387 630.35 243.527 630.35C243.667 630.35 243.772 630.49 243.772 630.665C243.772 630.84 243.702 631.33 243.527 632.835C243.457 633.43 243.387 634.62 243.387 634.83C243.387 635.075 243.352 635.495 243.072 635.495C242.862 635.495 242.792 635.39 242.792 635.25C242.757 634.935 242.757 634.55 242.687 634.165C242.512 633.57 242.127 633.115 240.972 633.01C240.412 632.94 236.912 632.87 236.142 632.87C236.002 632.87 235.967 633.01 235.967 633.185V635.565C235.967 636.58 235.932 639.1 235.967 639.975C236.037 642.005 236.982 642.46 240.132 642.46C240.937 642.46 242.232 642.425 243.037 642.075C243.807 641.725 244.157 641.095 244.367 639.87C244.437 639.555 244.507 639.415 244.717 639.415C244.962 639.415 244.997 639.8 244.997 640.115C244.997 640.78 244.752 642.81 244.577 643.405C244.367 644.175 244.087 644.175 242.932 644.175C240.622 644.175 238.767 644.14 237.262 644.07C235.757 644.035 234.602 644 233.692 644C233.342 644 232.677 644.035 231.942 644.035C231.207 644.07 230.437 644.105 229.807 644.105C229.422 644.105 229.212 644 229.212 643.79C229.212 643.65 229.317 643.475 229.702 643.475C230.157 643.475 230.507 643.44 230.787 643.37C231.417 643.23 231.592 642.67 231.697 641.795C231.837 640.535 231.837 638.19 231.837 635.46ZM260.578 636.58H253.333C253.158 636.58 253.123 636.615 253.053 636.79L251.408 640.815C251.093 641.55 250.953 642.285 250.953 642.635C250.953 643.16 251.233 643.475 252.178 643.475H252.633C253.018 643.475 253.088 643.615 253.088 643.79C253.088 644.035 252.913 644.105 252.598 644.105C251.583 644.105 250.148 644 249.168 644C248.853 644 247.208 644.105 245.598 644.105C245.213 644.105 245.038 644.035 245.038 643.79C245.038 643.615 245.143 643.475 245.388 643.475C245.668 643.475 246.018 643.44 246.298 643.44C247.698 643.23 248.223 642.32 248.853 640.815L256.903 622.23C257.253 621.39 257.498 621.04 257.813 621.04C258.268 621.04 258.408 621.32 258.723 621.985C259.458 623.63 264.603 635.67 266.563 640.185C267.753 642.88 268.628 643.265 269.188 643.37C269.643 643.44 269.993 643.475 270.343 643.475C270.623 643.475 270.763 643.58 270.763 643.79C270.763 644.035 270.588 644.105 269.433 644.105C268.348 644.105 266.108 644.105 263.518 644.035C262.958 644 262.608 644 262.608 643.79C262.608 643.615 262.678 643.51 262.993 643.475C263.203 643.44 263.413 643.16 263.273 642.81L260.893 636.79C260.823 636.615 260.718 636.58 260.578 636.58ZM253.963 634.935H259.913C260.053 634.935 260.088 634.865 260.053 634.76L257.148 627.305C257.113 627.2 257.078 627.025 257.008 627.025C256.903 627.025 256.868 627.2 256.833 627.305L253.858 634.725C253.788 634.865 253.858 634.935 253.963 634.935ZM275.922 635.46V623.42L271.337 623.525C269.552 623.56 268.817 623.77 268.362 624.435C268.047 624.855 267.907 625.24 267.837 625.45C267.767 625.695 267.697 625.835 267.487 625.835C267.277 625.835 267.207 625.66 267.207 625.345C267.207 624.855 267.802 621.985 267.872 621.74C267.942 621.355 268.047 621.18 268.222 621.18C268.467 621.18 268.782 621.425 269.552 621.53C270.462 621.635 271.617 621.67 272.632 621.67H285.127C286.107 621.67 286.772 621.6 287.227 621.53C287.717 621.46 287.962 621.39 288.067 621.39C288.277 621.39 288.312 621.565 288.312 622.02C288.312 622.65 288.242 624.855 288.242 625.625C288.207 625.94 288.137 626.115 287.962 626.115C287.717 626.115 287.647 625.975 287.612 625.52L287.577 625.205C287.507 624.435 286.702 623.525 283.937 623.49L280.052 623.42V635.46C280.052 638.19 280.087 640.535 280.227 641.83C280.332 642.67 280.507 643.23 281.417 643.37C281.837 643.44 282.537 643.475 282.992 643.475C283.342 643.475 283.482 643.65 283.482 643.79C283.482 644 283.237 644.105 282.887 644.105C280.857 644.105 278.792 644 277.917 644C277.217 644 275.117 644.105 273.892 644.105C273.507 644.105 273.297 644 273.297 643.79C273.297 643.65 273.402 643.475 273.787 643.475C274.242 643.475 274.627 643.44 274.872 643.37C275.502 643.23 275.677 642.67 275.782 641.795C275.922 640.535 275.922 638.19 275.922 635.46ZM309.089 637.91V635.04C309.089 633.15 308.739 632.38 308.284 631.365C308.039 630.805 303.349 623.105 302.124 621.285C301.249 619.99 300.374 619.115 299.709 618.73C299.254 618.485 298.659 618.275 298.239 618.275C297.959 618.275 297.714 618.205 297.714 617.96C297.714 617.75 297.959 617.645 298.379 617.645C299.009 617.645 301.634 617.75 302.789 617.75C303.524 617.75 304.959 617.645 306.534 617.645C306.884 617.645 307.059 617.75 307.059 617.96C307.059 618.17 306.814 618.205 306.289 618.345C305.974 618.415 305.799 618.695 305.799 618.975C305.799 619.255 305.974 619.675 306.219 620.165C306.709 621.215 311.609 629.65 312.169 630.63C312.519 629.79 316.929 622.09 317.419 621.005C317.769 620.235 317.909 619.64 317.909 619.185C317.909 618.835 317.769 618.45 317.174 618.31C316.859 618.24 316.544 618.17 316.544 617.96C316.544 617.715 316.719 617.645 317.139 617.645C318.294 617.645 319.414 617.75 320.429 617.75C321.199 617.75 323.509 617.645 324.174 617.645C324.559 617.645 324.804 617.715 324.804 617.925C324.804 618.17 324.524 618.275 324.139 618.275C323.789 618.275 323.124 618.415 322.599 618.695C321.864 619.045 321.479 619.465 320.709 620.41C319.554 621.81 314.654 630.035 314.024 631.54C313.499 632.8 313.499 633.885 313.499 635.04V637.91C313.499 638.47 313.499 639.94 313.604 641.41C313.674 642.425 313.989 643.195 315.039 643.335C315.529 643.405 316.299 643.475 316.789 643.475C317.174 643.475 317.349 643.58 317.349 643.755C317.349 644 317.069 644.105 316.614 644.105C314.409 644.105 312.204 644 311.259 644C310.384 644 308.179 644.105 306.884 644.105C306.394 644.105 306.114 644.035 306.114 643.755C306.114 643.58 306.289 643.475 306.674 643.475C307.164 643.475 307.584 643.405 307.899 643.335C308.599 643.195 308.914 642.425 308.984 641.41C309.089 639.94 309.089 638.47 309.089 637.91ZM336.643 644.49C327.683 644.49 324.043 638.12 324.043 632.835C324.043 627.76 327.613 621.18 336.958 621.18C344.728 621.18 349.558 625.485 349.558 632.31C349.558 639.135 344.588 644.49 336.643 644.49ZM337.903 642.88C340.073 642.88 344.973 641.865 344.973 633.395C344.973 626.815 341.018 622.755 336.048 622.755C332.618 622.755 328.593 624.575 328.593 631.925C328.593 638.05 332.093 642.88 337.903 642.88ZM355.023 634.585V630.21C355.023 625.695 355.058 624.855 354.988 623.91C354.918 622.86 354.638 622.58 353.658 622.3C353.413 622.23 352.888 622.195 352.468 622.195C352.118 622.195 351.943 622.09 351.943 621.88C351.943 621.67 352.153 621.6 352.608 621.6C354.253 621.6 356.318 621.67 357.228 621.67C357.998 621.67 360.063 621.6 361.183 621.6C361.638 621.6 361.848 621.67 361.848 621.88C361.848 622.09 361.673 622.195 361.358 622.195C361.008 622.195 360.833 622.23 360.448 622.3C359.643 622.44 359.398 622.86 359.328 623.91C359.258 624.855 359.258 625.695 359.258 630.21V634.375C359.258 638.715 360.098 640.395 361.603 641.585C362.968 642.67 364.438 642.775 365.488 642.775C366.818 642.775 368.393 642.39 369.618 641.2C371.333 639.59 371.403 637 371.403 633.955V630.21C371.403 625.695 371.368 624.855 371.333 623.91C371.263 622.895 371.018 622.58 370.038 622.3C369.793 622.23 369.268 622.195 368.918 622.195C368.568 622.195 368.393 622.09 368.393 621.88C368.393 621.67 368.603 621.6 369.023 621.6C370.598 621.6 372.663 621.67 372.698 621.67C373.048 621.67 375.113 621.6 376.303 621.6C376.723 621.6 376.933 621.67 376.933 621.88C376.933 622.09 376.758 622.195 376.408 622.195C376.058 622.195 375.883 622.23 375.498 622.3C374.658 622.44 374.448 622.86 374.378 623.91C374.343 624.855 374.308 625.695 374.308 630.21V633.395C374.308 636.72 373.958 640.22 371.368 642.355C369.198 644.175 366.853 644.49 364.858 644.49C363.248 644.49 360.063 644.42 357.823 642.46C356.248 641.095 355.023 638.89 355.023 634.585ZM382.262 635.46V630.21C382.262 625.695 382.262 624.855 382.227 623.91C382.157 622.895 381.877 622.58 380.897 622.3C380.652 622.23 380.127 622.195 379.672 622.195C379.357 622.195 379.147 622.09 379.147 621.88C379.147 621.67 379.392 621.6 379.847 621.6C381.457 621.6 383.417 621.67 384.047 621.67C385.097 621.67 387.897 621.6 388.842 621.6C390.802 621.6 393.042 621.775 394.687 622.86C395.562 623.455 396.857 624.96 396.857 626.955C396.857 629.16 395.597 631.12 392.587 633.535C395.317 636.895 397.487 639.59 399.342 641.445C401.057 643.16 402.142 643.3 402.632 643.405C402.947 643.475 403.122 643.475 403.367 643.475C403.612 643.475 403.752 643.65 403.752 643.79C403.752 644.035 403.542 644.105 403.157 644.105H400.217C398.502 644.105 397.662 643.93 396.857 643.51C395.527 642.845 394.372 641.445 392.657 639.135C391.432 637.525 390.137 635.53 389.752 635.075C389.577 634.9 389.402 634.865 389.192 634.865L386.427 634.795C386.287 634.795 386.182 634.865 386.182 635.04V635.46C386.182 638.225 386.217 640.535 386.357 641.795C386.462 642.67 386.602 643.23 387.547 643.37C388.002 643.44 388.667 643.475 389.052 643.475C389.297 643.475 389.437 643.65 389.437 643.79C389.437 644 389.192 644.105 388.807 644.105C387.022 644.105 384.467 644 384.012 644C383.417 644 381.457 644.105 380.232 644.105C379.847 644.105 379.637 644 379.637 643.79C379.637 643.65 379.742 643.475 380.127 643.475C380.582 643.475 380.932 643.44 381.212 643.37C381.842 643.23 382.017 642.67 382.122 641.795C382.262 640.535 382.262 638.19 382.262 635.46ZM386.182 623.665V632.52C386.182 632.835 386.252 632.94 386.462 633.045C387.127 633.255 388.037 633.325 388.807 633.325C390.032 633.325 390.452 633.22 390.977 632.835C391.922 632.17 392.972 630.875 392.972 628.425C392.972 624.225 390.102 623.14 388.282 623.14C387.512 623.14 386.777 623.175 386.462 623.245C386.252 623.315 386.182 623.42 386.182 623.665ZM420.634 644.595C418.604 644.595 417.029 644.35 415.524 643.685C414.964 643.44 414.859 643.265 414.859 642.495C414.859 640.57 414.999 638.47 415.034 637.91C415.069 637.385 415.174 637 415.454 637C415.769 637 415.804 637.315 415.804 637.595C415.804 638.05 415.944 638.785 416.119 639.38C416.889 641.97 418.954 642.915 421.124 642.915C424.274 642.915 425.814 640.78 425.814 638.925C425.814 637.21 425.289 635.6 422.384 633.325L420.774 632.065C416.924 629.055 415.594 626.605 415.594 623.77C415.594 619.92 418.814 617.155 423.679 617.155C425.954 617.155 427.424 617.505 428.334 617.75C428.649 617.82 428.824 617.925 428.824 618.17C428.824 618.625 428.684 619.64 428.684 622.37C428.684 623.14 428.579 623.42 428.299 623.42C428.054 623.42 427.949 623.21 427.949 622.79C427.949 622.475 427.774 621.39 427.039 620.48C426.514 619.815 425.499 618.765 423.224 618.765C420.634 618.765 419.059 620.27 419.059 622.37C419.059 623.98 419.864 625.205 422.769 627.41L423.749 628.145C427.984 631.33 429.489 633.745 429.489 637.07C429.489 639.1 428.719 641.515 426.199 643.16C424.449 644.28 422.489 644.595 420.634 644.595ZM446.36 644.49C437.4 644.49 433.76 638.12 433.76 632.835C433.76 627.76 437.33 621.18 446.675 621.18C454.445 621.18 459.275 625.485 459.275 632.31C459.275 639.135 454.305 644.49 446.36 644.49ZM447.62 642.88C449.79 642.88 454.69 641.865 454.69 633.395C454.69 626.815 450.735 622.755 445.765 622.755C442.335 622.755 438.31 624.575 438.31 631.925C438.31 638.05 441.81 642.88 447.62 642.88ZM464.74 634.585V630.21C464.74 625.695 464.775 624.855 464.705 623.91C464.635 622.86 464.355 622.58 463.375 622.3C463.13 622.23 462.605 622.195 462.185 622.195C461.835 622.195 461.66 622.09 461.66 621.88C461.66 621.67 461.87 621.6 462.325 621.6C463.97 621.6 466.035 621.67 466.945 621.67C467.715 621.67 469.78 621.6 470.9 621.6C471.355 621.6 471.565 621.67 471.565 621.88C471.565 622.09 471.39 622.195 471.075 622.195C470.725 622.195 470.55 622.23 470.165 622.3C469.36 622.44 469.115 622.86 469.045 623.91C468.975 624.855 468.975 625.695 468.975 630.21V634.375C468.975 638.715 469.815 640.395 471.32 641.585C472.685 642.67 474.155 642.775 475.205 642.775C476.535 642.775 478.11 642.39 479.335 641.2C481.05 639.59 481.12 637 481.12 633.955V630.21C481.12 625.695 481.085 624.855 481.05 623.91C480.98 622.895 480.735 622.58 479.755 622.3C479.51 622.23 478.985 622.195 478.635 622.195C478.285 622.195 478.11 622.09 478.11 621.88C478.11 621.67 478.32 621.6 478.74 621.6C480.315 621.6 482.38 621.67 482.415 621.67C482.765 621.67 484.83 621.6 486.02 621.6C486.44 621.6 486.65 621.67 486.65 621.88C486.65 622.09 486.475 622.195 486.125 622.195C485.775 622.195 485.6 622.23 485.215 622.3C484.375 622.44 484.165 622.86 484.095 623.91C484.06 624.855 484.025 625.695 484.025 630.21V633.395C484.025 636.72 483.675 640.22 481.085 642.355C478.915 644.175 476.57 644.49 474.575 644.49C472.965 644.49 469.78 644.42 467.54 642.46C465.965 641.095 464.74 638.89 464.74 634.585ZM496.108 630.21V635.46C496.108 639.275 496.108 641.165 496.773 641.725C497.298 642.18 498.488 642.355 500.868 642.355C502.513 642.355 503.703 642.32 504.473 641.515C504.858 641.13 505.173 640.29 505.243 639.73C505.278 639.45 505.348 639.275 505.593 639.275C505.803 639.275 505.873 639.59 505.873 639.94C505.873 640.29 505.663 642.495 505.418 643.37C505.208 644.035 505.068 644.175 503.458 644.175C501.253 644.175 499.468 644.14 497.928 644.07C496.388 644.035 495.093 644 493.833 644C493.483 644 492.818 644.035 492.083 644.035C491.348 644.07 490.578 644.105 489.948 644.105C489.563 644.105 489.353 644 489.353 643.79C489.353 643.65 489.458 643.475 489.843 643.475C490.298 643.475 490.648 643.44 490.928 643.37C491.558 643.23 491.733 642.67 491.838 641.795C491.978 640.535 491.978 638.19 491.978 635.46V630.21C491.978 625.695 491.978 624.855 491.943 623.91C491.873 622.895 491.593 622.58 490.613 622.3C490.368 622.23 489.983 622.195 489.598 622.195C489.248 622.195 489.073 622.09 489.073 621.88C489.073 621.67 489.283 621.6 489.738 621.6C491.173 621.6 493.133 621.67 493.973 621.67C494.708 621.67 497.228 621.6 498.418 621.6C498.873 621.6 499.083 621.67 499.083 621.88C499.083 622.09 498.908 622.195 498.523 622.195C498.173 622.195 497.683 622.23 497.333 622.3C496.493 622.44 496.248 622.86 496.178 623.91C496.108 624.855 496.108 625.695 496.108 630.21ZM530.358 636.58H523.113C522.938 636.58 522.903 636.615 522.833 636.79L521.188 640.815C520.873 641.55 520.733 642.285 520.733 642.635C520.733 643.16 521.013 643.475 521.958 643.475H522.413C522.798 643.475 522.868 643.615 522.868 643.79C522.868 644.035 522.693 644.105 522.378 644.105C521.363 644.105 519.928 644 518.948 644C518.633 644 516.988 644.105 515.378 644.105C514.993 644.105 514.818 644.035 514.818 643.79C514.818 643.615 514.923 643.475 515.168 643.475C515.448 643.475 515.798 643.44 516.078 643.44C517.478 643.23 518.003 642.32 518.633 640.815L526.683 622.23C527.033 621.39 527.278 621.04 527.593 621.04C528.048 621.04 528.188 621.32 528.503 621.985C529.238 623.63 534.383 635.67 536.343 640.185C537.533 642.88 538.408 643.265 538.968 643.37C539.423 643.44 539.773 643.475 540.123 643.475C540.403 643.475 540.543 643.58 540.543 643.79C540.543 644.035 540.368 644.105 539.213 644.105C538.128 644.105 535.888 644.105 533.298 644.035C532.738 644 532.388 644 532.388 643.79C532.388 643.615 532.458 643.51 532.773 643.475C532.983 643.44 533.193 643.16 533.053 642.81L530.673 636.79C530.603 636.615 530.498 636.58 530.358 636.58ZM523.743 634.935H529.693C529.833 634.935 529.868 634.865 529.833 634.76L526.928 627.305C526.893 627.2 526.858 627.025 526.788 627.025C526.683 627.025 526.648 627.2 526.613 627.305L523.638 634.725C523.568 634.865 523.638 634.935 523.743 634.935ZM545.472 627.9L545.822 640.045C545.892 642.355 546.277 643.055 546.872 643.265C547.397 643.44 547.992 643.475 548.482 643.475C548.832 643.475 549.007 643.615 549.007 643.79C549.007 644.035 548.727 644.105 548.307 644.105C546.312 644.105 544.877 644 544.317 644C544.037 644 542.567 644.105 540.992 644.105C540.572 644.105 540.292 644.07 540.292 643.79C540.292 643.615 540.502 643.475 540.782 643.475C541.202 643.475 541.762 643.44 542.182 643.335C542.987 643.125 543.092 642.32 543.127 639.73L543.407 622.09C543.407 621.495 543.617 621.075 543.932 621.075C544.317 621.075 544.737 621.53 545.262 622.055C545.647 622.44 550.267 627.165 554.747 631.54C556.847 633.605 560.942 637.805 561.397 638.225H561.537L561.222 624.995C561.187 623.175 560.907 622.65 560.172 622.37C559.717 622.195 558.982 622.195 558.562 622.195C558.177 622.195 558.072 622.055 558.072 621.88C558.072 621.635 558.387 621.6 558.842 621.6C560.452 621.6 562.097 621.67 562.762 621.67C563.112 621.67 564.267 621.6 565.772 621.6C566.192 621.6 566.472 621.635 566.472 621.88C566.472 622.055 566.297 622.195 565.947 622.195C565.632 622.195 565.387 622.195 565.002 622.3C564.162 622.545 563.917 623.07 563.882 624.75L563.532 643.51C563.532 644.175 563.287 644.455 563.042 644.455C562.517 644.455 562.097 644.14 561.782 643.825C559.857 642.04 556.007 638.365 552.787 635.25C549.427 632.03 546.172 628.425 545.577 627.9H545.472ZM573.326 635.46V630.21C573.326 625.695 573.326 624.855 573.291 623.91C573.221 622.895 572.941 622.58 571.961 622.3C571.716 622.23 571.191 622.195 570.736 622.195C570.421 622.195 570.211 622.09 570.211 621.88C570.211 621.67 570.456 621.6 570.911 621.6C572.521 621.6 574.481 621.67 575.356 621.67C576.301 621.67 578.506 621.6 580.361 621.6C584.211 621.6 589.391 621.6 592.751 624.995C594.291 626.535 595.656 629.02 595.656 632.555C595.656 636.3 594.046 639.135 592.296 640.85C590.896 642.25 587.641 644.35 581.971 644.35C580.851 644.35 579.521 644.245 578.296 644.175C577.071 644.07 575.951 644 575.181 644C574.831 644 574.166 644.035 573.431 644.035C572.696 644.07 571.926 644.105 571.296 644.105C570.911 644.105 570.701 644 570.701 643.79C570.701 643.65 570.806 643.475 571.191 643.475C571.646 643.475 571.996 643.44 572.276 643.37C572.906 643.23 573.081 642.67 573.186 641.795C573.326 640.535 573.326 638.19 573.326 635.46ZM577.456 629.755V633.5C577.456 636.65 577.491 638.925 577.526 639.52C577.561 640.255 577.631 641.305 577.876 641.62C578.261 642.18 579.486 642.81 581.901 642.81C584.701 642.81 586.766 642.32 588.621 640.78C590.616 639.135 591.246 636.475 591.246 633.395C591.246 629.615 589.741 627.165 588.376 625.975C585.541 623.455 582.181 623.14 579.766 623.14C579.136 623.14 578.121 623.21 577.876 623.35C577.596 623.455 577.491 623.595 577.491 623.945C577.456 624.96 577.456 627.41 577.456 629.755ZM613.606 633.955V627.795C613.606 622.475 613.606 621.495 613.536 620.375C613.466 619.185 613.186 618.625 612.031 618.38C611.751 618.31 611.156 618.275 610.666 618.275C610.281 618.275 610.071 618.205 610.071 617.96C610.071 617.715 610.316 617.645 610.841 617.645C612.696 617.645 614.901 617.75 615.601 617.75C617.316 617.75 618.681 617.645 619.871 617.645C626.206 617.645 627.326 621.04 627.326 622.895C627.326 625.765 625.681 627.48 623.756 629.02C626.626 630 630.126 632.485 630.126 636.58C630.126 640.325 627.221 644.21 620.781 644.21C620.361 644.21 619.346 644.14 618.331 644.105C617.281 644.035 616.231 644 615.706 644C615.321 644 614.551 644 613.711 644.035C612.906 644.035 611.996 644.105 611.296 644.105C610.841 644.105 610.596 644 610.596 643.755C610.596 643.58 610.736 643.475 611.156 643.475C611.681 643.475 612.101 643.405 612.416 643.335C613.116 643.195 613.291 642.425 613.431 641.41C613.606 639.94 613.606 637.175 613.606 633.955ZM617.806 619.745V628.39C617.806 628.67 617.911 628.74 618.051 628.775C618.366 628.845 618.891 628.88 619.696 628.88C620.851 628.88 621.621 628.74 622.216 628.215C623.126 627.48 623.651 626.22 623.651 624.505C623.651 622.16 622.286 619.08 619.276 619.08C618.786 619.08 618.471 619.08 618.121 619.15C617.876 619.22 617.806 619.36 617.806 619.745ZM625.821 638.155C625.821 635.985 625.086 633.045 622.426 631.19C621.691 630.665 620.886 630.42 619.521 630.35C618.891 630.315 618.541 630.315 618.016 630.315C617.876 630.315 617.806 630.385 617.806 630.56V638.855C617.806 641.165 617.911 641.76 619.031 642.215C619.976 642.6 620.781 642.635 621.586 642.635C623.161 642.635 625.821 641.795 625.821 638.155ZM646.209 644.49C637.249 644.49 633.609 638.12 633.609 632.835C633.609 627.76 637.179 621.18 646.524 621.18C654.294 621.18 659.124 625.485 659.124 632.31C659.124 639.135 654.154 644.49 646.209 644.49ZM647.469 642.88C649.639 642.88 654.539 641.865 654.539 633.395C654.539 626.815 650.584 622.755 645.614 622.755C642.184 622.755 638.159 624.575 638.159 631.925C638.159 638.05 641.659 642.88 647.469 642.88ZM664.859 635.46V630.21C664.859 625.695 664.859 624.855 664.824 623.91C664.754 622.895 664.474 622.58 663.494 622.3C663.249 622.23 662.724 622.195 662.269 622.195C661.954 622.195 661.744 622.09 661.744 621.88C661.744 621.67 661.989 621.6 662.444 621.6C664.054 621.6 666.014 621.67 666.889 621.67C667.834 621.67 670.039 621.6 671.894 621.6C675.744 621.6 680.924 621.6 684.284 624.995C685.824 626.535 687.189 629.02 687.189 632.555C687.189 636.3 685.579 639.135 683.829 640.85C682.429 642.25 679.174 644.35 673.504 644.35C672.384 644.35 671.054 644.245 669.829 644.175C668.604 644.07 667.484 644 666.714 644C666.364 644 665.699 644.035 664.964 644.035C664.229 644.07 663.459 644.105 662.829 644.105C662.444 644.105 662.234 644 662.234 643.79C662.234 643.65 662.339 643.475 662.724 643.475C663.179 643.475 663.529 643.44 663.809 643.37C664.439 643.23 664.614 642.67 664.719 641.795C664.859 640.535 664.859 638.19 664.859 635.46ZM668.989 629.755V633.5C668.989 636.65 669.024 638.925 669.059 639.52C669.094 640.255 669.164 641.305 669.409 641.62C669.794 642.18 671.019 642.81 673.434 642.81C676.234 642.81 678.299 642.32 680.154 640.78C682.149 639.135 682.779 636.475 682.779 633.395C682.779 629.615 681.274 627.165 679.909 625.975C677.074 623.455 673.714 623.14 671.299 623.14C670.669 623.14 669.654 623.21 669.409 623.35C669.129 623.455 669.024 623.595 669.024 623.945C668.989 624.96 668.989 627.41 668.989 629.755ZM697.271 638.82V636.37C697.271 634.76 696.991 634.13 696.571 633.255C696.361 632.8 692.161 626.255 691.076 624.68C690.306 623.595 689.676 622.895 689.081 622.58C688.696 622.37 688.171 622.195 687.786 622.195C687.541 622.195 687.331 622.09 687.331 621.88C687.331 621.67 687.541 621.6 687.926 621.6C688.451 621.6 690.761 621.67 691.776 621.67C692.441 621.67 693.876 621.6 695.276 621.6C695.556 621.6 695.731 621.67 695.731 621.88C695.731 622.125 695.521 622.125 695.031 622.265C694.786 622.335 694.611 622.475 694.611 622.72C694.611 622.965 694.751 623.315 694.996 623.735C695.556 624.645 699.581 631.61 700.106 632.45C700.491 631.75 704.236 625.38 704.691 624.47C705.006 623.805 705.146 623.28 705.146 622.895C705.146 622.615 705.006 622.335 704.481 622.23C704.201 622.16 703.921 622.125 703.921 621.88C703.921 621.67 704.096 621.6 704.446 621.6C705.461 621.6 706.546 621.67 707.456 621.67C708.121 621.67 710.151 621.6 710.746 621.6C711.096 621.6 711.306 621.67 711.306 621.845C711.306 622.055 711.061 622.195 710.711 622.195C710.396 622.195 709.836 622.335 709.381 622.545C708.716 622.86 708.436 623.14 707.771 623.945C706.756 625.135 702.346 632.205 701.786 633.465C701.331 634.55 701.401 635.46 701.401 636.44V638.82C701.401 639.31 701.401 640.535 701.471 641.795C701.541 642.67 701.821 643.23 702.731 643.37C703.186 643.44 703.851 643.475 704.271 643.475C704.621 643.475 704.796 643.65 704.796 643.79C704.796 644 704.551 644.105 704.131 644.105C702.206 644.105 700.141 644 699.301 644C698.531 644 696.466 644.105 695.311 644.105C694.891 644.105 694.646 644.035 694.646 643.79C694.646 643.65 694.786 643.475 695.136 643.475C695.556 643.475 695.941 643.44 696.221 643.37C696.851 643.23 697.096 642.67 697.166 641.795C697.271 640.535 697.271 639.31 697.271 638.82ZM717.586 616.91C717.586 619.01 715.381 622.685 713.806 624.295C713.596 624.47 713.421 624.54 713.246 624.54C713.141 624.54 713.036 624.47 713.036 624.365C713.036 624.26 713.106 624.155 713.246 623.91C713.946 622.755 714.576 620.69 714.576 618.555C714.576 617.4 714.051 616.455 713.736 616.175C713.386 615.825 713.351 615.72 713.351 615.545C713.351 615.44 713.596 615.3 713.736 615.3C714.401 615.3 715.941 615.755 716.571 615.93C717.446 616.21 717.586 616.385 717.586 616.91ZM719.826 618.555C719.826 617.4 719.301 616.455 718.986 616.175C718.636 615.825 718.601 615.72 718.601 615.545C718.601 615.44 718.846 615.3 718.986 615.3C719.651 615.3 721.191 615.755 721.821 615.93C722.696 616.21 722.836 616.385 722.836 616.91C722.836 619.01 720.666 622.72 719.091 624.295C718.881 624.47 718.706 624.54 718.531 624.54C718.426 624.54 718.321 624.47 718.321 624.365C718.321 624.26 718.356 624.155 718.496 623.91C719.196 622.755 719.826 620.69 719.826 618.555Z" fill="#C69C38"/>
<defs>
<linearGradient id="paint0_linear_192_614" x1="348.624" y1="92.7143" x2="551.36" y2="299.461" gradientUnits="userSpaceOnUse">
<stop stop-color="#D4AF37"/>
<stop offset="1" stop-color="#C49A3A"/>
</linearGradient>
<linearGradient id="paint1_linear_192_614" x1="595.593" y1="188.255" x2="535.873" y2="446.948" gradientUnits="userSpaceOnUse">
<stop stop-color="#D4AF37"/>
<stop offset="1" stop-color="#C49A3A"/>
</linearGradient>
<linearGradient id="paint2_linear_192_614" x1="492.107" y1="134.229" x2="562.682" y2="389.606" gradientUnits="userSpaceOnUse">
<stop stop-color="#D4AF37"/>
<stop offset="1" stop-color="#C49A3A"/>
</linearGradient>
<linearGradient id="paint3_linear_192_614" x1="381.915" y1="134.229" x2="311.34" y2="389.606" gradientUnits="userSpaceOnUse">
<stop stop-color="#D4AF37"/>
<stop offset="1" stop-color="#C49A3A"/>
</linearGradient>
<linearGradient id="paint4_linear_192_614" x1="278.942" y1="188.255" x2="338.662" y2="446.948" gradientUnits="userSpaceOnUse">
<stop stop-color="#D4AF37"/>
<stop offset="1" stop-color="#C49A3A"/>
</linearGradient>
</defs>
</svg>
